<svg width="226" height="212" viewBox="0 0 226 212" fill="none" xmlns="http://www.w3.org/2000/svg">
<path d="M102.597 37.6106C83.0373 42.3359 63.4774 47.0612 43.9175 51.7865C40.1853 52.6881 36.4966 53.823 32.8773 55.331C27.7276 57.4525 25.9131 60.3281 26.19 66.1107C26.4353 71.2184 27.2651 76.185 28.1486 81.1873C29.0842 86.4695 30.0733 91.7876 31.0539 97.0589C31.894 101.828 29.506 105.915 25.3243 106.925C21.1425 107.935 17.5051 105.304 16.6287 100.593C14.8341 90.692 12.7784 80.9033 11.9817 70.8105C11.7672 67.8889 11.7325 64.9238 11.985 61.9868C12.7984 51.4562 18.8451 45.3159 27.7679 41.503C37.4292 37.3654 47.5172 35.2696 57.5444 32.8472C90.3605 24.8707 123.185 16.9409 156.027 9.10443C162.008 7.65968 168.057 6.58813 174.199 6.51794C185.693 6.42227 192.146 11.0541 196.114 22.2819C199.262 31.1242 200.89 40.3824 202.608 49.619C206.817 72.2439 211.025 94.8688 215.189 117.505C216.343 123.709 217.236 130.025 217.068 136.451C216.772 149.002 211.959 155.965 200.606 160.609C191.567 164.303 182.189 166.423 172.844 168.729C159.588 171.98 146.315 175.138 133.041 178.296C129.579 179.132 126.624 177.896 124.927 175.089C123.338 172.353 123.512 168.997 125.46 166.332C126.773 164.553 128.547 163.734 130.571 163.245C147.658 159.118 164.744 154.99 181.823 150.815C186.544 149.675 191.239 148.394 195.786 146.565C201.124 144.446 202.893 141.582 202.698 135.731C202.539 131.089 201.841 126.578 200.999 122.054C196.027 95.3235 191.047 68.5468 186.075 41.8168C185.19 37.0586 184.178 32.3796 182.538 27.8527C180.748 22.7769 178.128 21.07 172.801 21.4795C167.985 21.8628 163.238 22.8635 158.517 24.0041C139.865 28.5588 121.258 33.1026 102.597 37.6106Z" fill="#00FF66"/>
<path d="M31.3152 117.111C61.6246 110.861 93.9131 127.164 108.222 155.978C111.084 161.741 113.197 167.782 114.434 174.182C115.427 179.272 113.05 183.465 108.758 184.453C104.511 185.431 101.089 182.737 100.023 177.763C95.3984 156.437 83.7376 141.359 63.9057 134.025C53.7296 130.226 43.1255 129.953 32.3861 132.499C28.9144 133.338 25.9742 132.729 23.8963 129.661C20.9799 125.379 23.3158 119.191 28.3758 117.772C29.3677 117.533 30.3683 117.34 31.3152 117.111Z" fill="#00FF66"/>
<path d="M35.9969 147.387C56.5155 143.21 78.6042 156.599 84.8396 176.705C85.4131 178.522 85.9415 180.351 86.2808 182.176C87.0188 186.398 84.463 190.39 80.6029 191.42C76.6439 192.426 72.7886 189.935 71.8892 185.605C69.8904 175.868 65.1769 168.255 56.3445 164.082C50.4199 161.357 44.209 161.147 37.7805 162.554C31.9468 163.866 27.4223 159.043 28.9901 153.285C30.0683 149.455 32.8249 147.811 35.9969 147.387Z" fill="#00FF66"/>
<path d="M40.8056 177.71C48.8313 175.77 56.4243 180.879 58.0268 189.244C59.5669 197.527 54.3271 205.835 46.3916 207.753C38.4022 209.635 30.7104 204.501 29.1703 196.218C27.6042 187.795 32.7799 179.649 40.8056 177.71Z" fill="#00FF66"/>
</svg>
