<svg width="245" height="279" viewBox="0 0 245 279" fill="none" xmlns="http://www.w3.org/2000/svg">
<path d="M144.552 24.0418C189.215 34.9267 223.203 76.3755 225.969 123.446C228.819 171.717 201.123 213.968 157.927 227.456C152.908 229.012 147.73 230.712 144.942 224.272C141.771 216.832 146.388 213.906 152.451 211.921C176 204.219 193.188 188.804 203.51 165.328C222.932 121.168 200.724 63.9509 156.726 45.0091C109.363 24.6183 57.448 48.2578 43.7531 96.7074C33.5489 132.743 42.4046 164.259 68.8209 191.074C73.2445 195.549 78.052 199.843 73.2209 205.804C68.2576 212.005 63.3809 207.376 58.8588 203.196C26.5706 173.099 15.5322 125.528 31.3042 83.5739C46.0319 44.4091 85.7724 18.6446 126.859 21.4458C132.828 21.8443 138.7 22.5368 144.552 24.0418Z" fill="#456EF5"/>
<path d="M58.2936 102.504C62.9162 78.5878 87.6786 55.7738 117.847 53.7669C148.241 51.7237 177.539 70.8666 189.559 100.573C201.605 130.377 193.938 164.079 170.52 184.134C169.323 185.16 168.1 186.089 166.869 187.061C162.561 190.465 157.766 192.254 153.7 186.827C149.566 181.293 152.449 177.318 157.058 173.942C167.691 166.172 175.02 155.698 178.083 142.289C183.795 117.457 172.681 90.8714 151.418 77.9329C129.801 64.7732 103.169 67.9974 86.0152 85.8928C68.8117 103.821 65.7742 130.978 78.6363 154.04C81.5895 159.334 84.2754 164.654 78.0377 168.317C71.9917 171.89 68.2652 167.225 65.2958 162.018C56.1063 145.558 53.1983 128.257 58.2936 102.504Z" fill="#456EF5"/>
<path d="M88.0786 191.206C91.5981 172.337 102.821 164.382 116.624 167.753C130.384 171.114 138.209 183.749 134.604 198.8C130.497 215.835 123.413 231.74 116.761 247.704C113.956 254.439 107.417 256.981 100.104 255.128C92.7915 253.275 87.9002 247.934 87.7485 240.441C87.2669 222.85 87.9098 205.164 88.0786 191.206Z" fill="#456EF5"/>
<path d="M147.883 131.884C145.611 145.285 133.922 153.457 121.138 150.549C108.178 147.643 100.02 135.175 102.284 121.817C104.525 108.59 116.388 100.188 129.07 102.935C141.593 105.598 150.115 118.7 147.883 131.884Z" fill="#456EF5"/>
</svg>
