<svg xmlns="http://www.w3.org/2000/svg" viewBox="0 0 1092.84 1242.27"><defs><style>.cls-1{fill:#0f6;}.cls-2{fill:#456ef5;}.cls-3{fill:none;stroke:#456ef5;stroke-miterlimit:10;stroke-width:18px;}.cls-4{fill:#f44c00;}.cls-5{fill:#f46d00;}.cls-6{fill:#f49200;}.cls-7{fill:#fbb03b;}.cls-8{fill:#ffdb00;}.cls-9{fill:#f4f612;}.cls-10{fill:#cf0;}.cls-11{fill:#a2ff20;}</style></defs><title>pod_viking_full_flat</title><g id="Layer_2" data-name="Layer 2"><g id="FULL"><g id="Layer_2-2" data-name="Layer 2"><path class="cls-1" d="M268.84,889.24q23.45,15.66,47.46,30.35a3.17,3.17,0,0,1,1.16,3.25c-17.76,73-36.19,145.93-54.39,218.88,4.72,8.37,10.36,16.16,15.86,24,9.2-3.73,17.92-10.13,26.17-15.51,15.7-69.34,31.59-138.64,46.91-208.06.42-1.39,1.15-1.81,2.18-1.28,15.49,7.89,31.11,15.48,47.32,21.78a2.56,2.56,0,0,1,1.29,2.75Q383.32,1073,363.45,1180.59c-30.69,21-66.35,36.41-99.44,52.92l-1-.11c-25-23.72-52.85-50.44-69.33-81.39,24.29-87.19,49-174.28,72.86-261.58C267.16,889,267.92,888.62,268.84,889.24Z"/><path class="cls-1" d="M417.32,968.48c17.24,5.56,34.57,10.41,52.16,14.72a2.21,2.21,0,0,1,1.57,2.4l-32.28,253.94a2.16,2.16,0,0,1-2.46,2c-21.6.07-43.16-.26-64.75-.88-1.47-.05-2.09-.76-1.86-2.16q22.76-134.25,45.62-268.5C415.75,968.68,416.42,968.17,417.32,968.48Z"/><path class="cls-1" d="M488,987.28c18,3.53,35.94,6.52,54.07,9.05,1.21.39,1.79,1.09,1.71,2.1l-9.06,120.42q22.18-12.28,44.25-24.74,2.17-45.73,4.36-91.47a1.64,1.64,0,0,1,1.95-1.63q27.59,2.21,55.18,3.4c1.26.26,1.88.85,1.88,1.78q-.36,51.8-.7,103.57c-21.35,15.45-45.07,28.18-67.67,41.66,21.94,10.37,46.47,18.36,67.19,31.11q-.18,26.23-.35,52.48l-2.19.32a802,802,0,0,1-108.86-50.53q-2,26.22-3.94,52.45a2.19,2.19,0,0,1-2.36,2.17q-32.39,2-64.79,2.85c-1.47,0-2.12-.66-2-2.08Q471.35,1114.52,486,988.85C486.33,987.6,487,987.07,488,987.28Z"/><path class="cls-1" d="M659.33,1005.05q27.63.68,55.25.72c1.26.2,1.92.72,2,1.59q4.71,101.46,9.43,202.94c0,1.06-.64,1.73-2.08,2q-31.64,6.11-63.42,11.13c-1.45.23-2.18-.22-2.18-1.34l-.84-215.42A1.74,1.74,0,0,1,659.33,1005.05Z"/><path class="cls-1" d="M733.77,1005.72q28.14-.26,56.22-1.43c14,7,28.17,13.56,42.65,19.42l.87-.09c-1.13-8.18-1.7-12.27-2.83-20.45.1-.93.73-1.44,1.87-1.53q27.62-2.28,55.1-5.45c1.41,0,2.17.32,2.3,1l30.84,161.37c.16.84-.52,1.52-2,2q-30.48,10.14-61.27,19.22c-1.53.45-2.36.22-2.49-.7q-7.79-56.3-15.56-112.6c-14.18-6-29.25-10.24-43.68-15.59l-.89.09q7.33,70.21,14.65,140.44c.1,1-.62,1.64-2.17,2q-30.65,7.68-61.51,14.33c-1.44.3-2.18-.06-2.25-1.1Q737.79,1107,732,1007.29A1.66,1.66,0,0,1,733.77,1005.72Z"/><path class="cls-1" d="M982.29,980.3c2.31-.23,3.47-.35,5.78-.6q27.15-5.44,54.08-11.74c1.29-.18,2,0,2.22.5,2.93,8.15,4.4,12.22,7.34,20.37.23.63-.29,1.13-1.56,1.49q-40.44,11.26-81.36,20.41,10.14,38.54,20.29,77.09c.12.47,7.54,1.51,22.35,2.25a220.56,220.56,0,0,0,18.18-16.67c-14.58.45-22.14.39-22.74.59l-.17-.58c11.26-11.24,24.69-20.69,37.11-30.53,13.66-2.53,28.5-1.5,42.28-1.93l6.75,17.86c-23.54,21.07-46.52,45-72.29,63.42-29.65,1.36-60.65,2.5-90-3L904.93,994.58c.06-.85.6-1.34,1.63-1.48q35.78-4.92,71.25-11.43A15.52,15.52,0,0,0,982.29,980.3Z"/><path class="cls-2" d="M.11,1188.63q21.78-58,43.12-116.13c.5-1,1-1.38,1.54-1.18q29,10.61,58.22,20.66,5.85,41.83,14,83.25,17.85,4.21,35.79,8c.72.15,1,.65.71,1.5q-5.22,18-10.41,36a1.18,1.18,0,0,1-1.45,1q-71.1-13-140.86-31.61A1.14,1.14,0,0,1,.11,1188.63Zm41.09-33.05q22,6.12,44,11.84c-1.87-11.05-3.3-22.32-6.08-33.19q-13.77-4-27.48-8.28Q46.43,1140.77,41.2,1155.58Z"/><path class="cls-2" d="M70.64,997.13C85.36,981,99.46,963.21,116.13,949q33.5,18.06,67.32,35.48c4.24,21.6,6.2,43.79,9.35,65.57l-.41,1.39c-14.57,13.33-27.77,28.36-41.41,42.65l-1.2.3q-37.77-12.71-75.12-26.57C70.63,1044.71,71.05,1020.53,70.64,997.13Zm28.75,30.75q26.51,11.22,53.18,22c2.53-1.35,6.78-5.07,12.67-11-1.71-10.21-2.88-16.25-3.66-17.9q-26-11.64-51.68-23.72c-1.52.68-5.85,4.56-13.15,11.78C97.34,1018.26,98.26,1024.52,99.39,1027.88Z"/><path class="cls-2" d="M98.32,921.81q12.86-34.86,25.77-69.7c9-13.42,23.56-24.39,35.48-34.91C180.65,833,201.79,848.61,223.15,864c3.55,18.49,5.27,37.4,7.65,56.06q-9.5,32.72-19.07,65.4-27-13.87-53.58-28.41c-.9-.5-1.44-.48-1.62.05l-2-2q-28.07-15.46-56-31.24C98.06,923.41,98,922.74,98.32,921.81Zm38.35-31.25q31.76,20.12,63.82,39.73c1.54-5,2.3-7.53,3.81-12.48.69-2.26,0-9.24-2-20.89-6.68-4.41-10-6.62-16.57-11-.85-.56-1.35-.6-1.5-.11l-1.85-2.14q-14.49-9.76-28.93-19.62c-7.06,5.92-11.11,10.25-11.92,12.58C139.62,882.13,138.64,884.92,136.67,890.56Z"/></g></g><g id="LOGO"><path class="cls-2" d="M578.53,656.31c-3.27,1-6.69,1.61-9.73,3-23.65,10.64-47.28,21.26-71.35,31-9.28,3.64-15,7.92-11.78,18.76a8.25,8.25,0,0,1,.06,1.93c.72,16,2.8,31.82,3.48,47.8a14.18,14.18,0,0,0,6.39,11.51q42.42,30.07,84.09,61.19c3.63,2.73,7.1,3.34,10.76,1.53q42.4-21.08,84.18-43.34c3.64-2,5-5,4.55-9.56-.95-9.57-1.61-19.18-2.3-28.78-1.21-17.57-5.21-34.64-6.46-52.2-.63-8.09-1.65-9.17-9.23-12.07q-30.83-11.75-61.77-23.19C592.58,661.3,585.71,658.87,578.53,656.31Zm-196.45-282,1.07,1.11c2.18-.76,4.43-1.39,6.54-2.31,37.58-15.92,76.14-27.7,115.89-36.87a716.06,716.06,0,0,1,117-15.45c28.23-.58,55.13,1.31,82.7,7.63,7.24,1.87,14.36,4.17,21.53,6.3.25-.43.49-.86.73-1.29-2.28-1.63-4.34-3.81-6.87-4.78-8.42-3.23-16.79-6.84-25.57-8.72-30.52-5.85-60.6-8-91.65-8-45.82,1.14-90.64,7.23-135.44,16.76-4.21.93-8.44,1.72-12.67,2.58-1.28-11.25,2-16.15,12.77-19.09,29.63-7.87,59.21-14.53,89.56-18.94,49.54-5.83,97.86-4.87,146.85,4.82,3,.65,6.06.94,9.09,1.4.12-.46.24-.93.37-1.39a37.54,37.54,0,0,0-4.62-2.4c-6.46-2.32-12.82-5-19.48-6.6-36.59-7.93-73-9.18-110.35-7.23a839.75,839.75,0,0,0-108.63,15.7,64.91,64.91,0,0,1-6.69.6c6.29-12.72,12.15-25.71,19.16-38a346.63,346.63,0,0,1,23-35.17c8.58-11.36,18.14-21.92,27.32-32.8C470.11,241.55,421,304.18,382.08,374.35ZM179.77,727.16c-9.61-1.42,12-20.25,10-27.38-.23-.82,5.9-21,5.89-21.9-.09-4.36-4.74-5,13.11-17.68,8-6,18.41-10.47,27.88-13.34,18.09-6.35,36-13.14,53.83-20.14,7.34-2.9,11.24-8.9,16.49-15.26-24.72-.07-50-4.77-67.88-23.23,21.69-1.85,37.12-15.11,48.66-32.63l-19.32-3.18c.32-2.48.53-4.61.86-6.73q3.19-20.24,6.39-40.49,3.9-25.17,7.75-50.34c2.71-17.34,5.47-34.7,8-52,.54-3.72,1.52-5.19,6.13-4.54,9.15,1.28,18.51,2.31,27.36-2.17a15.53,15.53,0,0,0,6.46-5.73c6.95-13.74,13.49-27.61,21-41,45.24-74.64,105.47-139.2,168.94-198.32A60.81,60.81,0,0,1,534,141.81c27.72-14.74,60.93-19.75,88.45.75,37.08,26.53,71.82,55.24,103.62,88C764.73,272,795.65,316.9,815.62,370.2c1.72,4.89,4.9,7.17,9.48,6.88q11.46-.72,22.9-2.1c4.1-.49,8.18-1.58,13-2.54Q873.55,471,885.91,569.49c-8.08,1.18-15.54,2.26-23.46,3.39,1.83,8.79,2.82,16.86,7.67,24.15,4.84,8.19,15.09,15.86,24.45,17.88,5.55,1.47,11.09,3.06,16.62,4.65,1.44.41,2.86,1,5.35,1.81-23.69,11.38-44.66,14.83-70.62,11.4,4.41,8.73,8.54,15.73,15.05,20.23q23.6,16.2,47.27,32.28c14.45,9.55,28.9,18.83,42.65,29.39,19.5,16,26.74,15.86,9.11,37.17-6,7.24-13.5,11.11-23.75,11.32,1.44-2.34,2-3.6,2.87-4.63q4-5,8.19-9.82c-6.37,3.61-13.74,3.86-20.09-.22-7.29-5.14-12.55-2.16-13.51,7.22a39.86,39.86,0,0,0,0,6.82c3.15,49.53,41.19,53.91,73,82.35-.11,1.1-.14,1.31-.25,2.42A35.82,35.82,0,0,1,960.75,846c-12.58-5.66-24.6-12.42-36.73-19-4.11-2.18-8-5-12.61-7.86-2.9,17-1.7,35.86,7.82,50.82,9.08,14.71,18.62,29.1,28,43.59,1,1.5,1.86,3.06,3.23,5.32-8.75-.11-19.19-4-26.2-9.19-12.56-8.67-22-20.45-31.49-32.17-1.35-1.68-2.81-3.28-4.55-5.3-1.94,9.21-3.47,17.62-5.5,25.79-11.25,46.23-44.71,71.61-92.44,62-8.32-1.64-16.44-4.54-24.46-11.82,3-.83,5-1.44,7.13-2,6.6-1.82,13.34-3.35,19.81-5.56,14.62-5.17,26.85-16.86,29.74-32.6,1.61-7,.27-14.06-4.52-20.65-6.74-9.28-19.52-14.93-30.68-11.73a64.63,64.63,0,0,0-31.87,20.68c-18,21.84-12.9,47.21-1,70.28,6.24,10.17,14.53,18.87,23.55,26.6,4,3.45,7.89,7,12.36,11-19.14-1.17-40.4-12.56-55.93-23-28.05-19.15-48.44-48-55.82-81.29l-1.32-.37q-20.43,40.2-41.34,80.13c-9.88-7.93-19.61-15.66-30-22.92-10.81-4.88-21-8.71-33.12-5.43-9.72,1.75-21.08,7.71-27.74,15.07l-5.4-1.87a52.72,52.72,0,0,0-2.32-6.29q-19.48-38.16-39.49-76.06a33.88,33.88,0,0,0-2.39-3.33c-10.41,18.13-23.28,38.57-43.87,46.36-22.38,9.2-44.57,9.53-68,5.26a7.91,7.91,0,0,1,3.45-2.61c7.15-3.61,14.62-6.89,21.4-11.08,16.61-10.8,17.1-26.78,12.89-44.15-7.71-22-23.9-39.33-44-50.75a39,39,0,0,0-9.89-4.39c-16.33-4.37-31.84,9.52-23.85,26.1,6.26,17.49,22.38,29.91,38.62,37.51,3.33,1.58,6.69,3.09,10,4.64-.07.71-.06.58-.13,1.28-7.7-.5-15.38-.67-23.1-1.59-15.18-1.74-28.92-6.06-42.86-12.13-24-11.42-40.4-33-48.59-57.82-1.27-3.88-2.5-7.76-3.92-12.14-2.39,1.12-4.13,2-5.89,2.74-7.55,3.42-14.88,7.11-22.69,10-11.16,4.54-22.08,1.73-33.06-1.24,1-.92,1.6-1.58,2.31-2.18,5.07-4.27,10.49-8.3,15.16-13,9-8.8,16.17-19.66,18.74-32.12,1.4-6.94,1.4-14-3.24-21.45-3.61,1.35-6.77,2.5-9.91,3.68-16.58,5-30.53,6.09-47.74,4.15-7.57-1.36-14.44-4.27-19.91-10.35,7-2.12,16.82.35,23.24-1.78,10.11-3.46,26.64-4.45,33.26-13.84.79-1.14,1.43-2.63,2.05-3.74,4.83-8.61,26.2-18.21,22.38-31.35-3.58-8-9.06-10.33-17.3-7.39-11,3.92-8.28,1.76-5.39,11.91l.06.21c1.25,4.41-1.27,8.59-6,9.91Q199.88,717.5,179.77,727.16Zm416.9-370-.09-1.59c-24.87,3.76-49.76,7.11-74.48,11.72-28.79,5.89-57.34,12.58-85.83,19.74-17.88,4.48-36.25,13.05-48.58,27.19-20.72,25.35-28.93,53.36-21,85.76,2.73,11.7,13.08,18.64,24.6,19.77,8.2,1,16.75,1.73,24.86.74,29.15-3.67,58.19-8,87.25-12.39C523.24,505,543,501.53,563,499.15c42.66-3.17,83.72,3.81,125.57,11.32,20,3.9,39.35,8.24,59.71,9.26,20.07.2,35.26-12.22,40.74-30.63,5.89-19.81,5.39-38.16,1.17-58.8-5.49-22.44-19.61-41.39-42.47-47.93-9-2.59-18.17-5.4-27-8.36C680.39,360.49,639.57,354.51,596.67,357.14ZM549.84,585.07l-1.31.39c-4.72-5.17-9.52-10.24-14.14-15.44-6.3-7.1-6.55-7.13-15.26-3.76-30.32,11.65-60.79,22.87-91.34,33.89-3.63,1.3-5,.2-6.53-2.66-3.84-7.21-8.21-14.18-11.76-21.42a20.26,20.26,0,0,0-17.23-11.16c-4.62-.21-6.37.9-7.73,4.47a110,110,0,0,0-6.63,39.88c.22,25.36,16.77,46.23,39.37,56.47,7.75,3.55,14.47,3.58,21.78.16q54.65-25.67,108.58-52.78a24.3,24.3,0,0,1,9.76-2.9c14.61-.42,29.23-.44,43.84-.65,9.07-.15,17.54.86,26,6.12,30.43,19,60.91,37.94,91,57.48,6,4,11.75,4.77,18.07,2.18,23.32-9.42,38.35-29.65,43.51-53.94,2.39-17.43,1-31.07-4.45-47.79-1.23-3.09-2.46-6.8-6.67-6.12-7.86,1.29-14.87,2.42-17.28,14-2.23,10.81-4.62,11.54-14.53,8.77q-46.43-12.91-93-25.19c-5.28-1.39-9.4,0-12.81,4.24-3.23,4-6.75,7.77-10.22,11.53a15.58,15.58,0,0,1-3,1.94c-.42-1.89-.77-3.18-1-4.48l-11.64-65.52c-.52-2.9-1.27-5-5-4.7-12.12.78-24.25,1.45-36.37,2.14-5.56.34-7.39,2.13-7.87,7.55-.63,7.06-1.06,14.14-1.71,21.18Q552.06,562,549.84,585.07Z"/><path class="cls-2" d="M610.77,10.36c6.24-.67,12.49-1.15,18.72-2C665.85,3.34,702.27,0,739.1,0c17.2.5,33,2,49.6,6.6,22.11,7.79,38.33,25.65,51.16,44.55,22.27,34,37.22,70.91,50.06,109.36A1014.83,1014.83,0,0,1,924,304.78c1.06,6.75,3.46,12.47,11.35,9.45,3.07-1.18,3.68.82,4,3.67q5,40.8,10.07,81.6c.11.95.27,1.9.29,2.86.2,9.05,1.84,15.26,11.86,15.93,8.28.55,13.68,8.25,15.24,18.08,1.64,10.08,2.9,20.34,3.67,30.52a25.43,25.43,0,0,1-15.18,24.8c-1.23.53-2.52.91-4.18,1.51.37,3.76.8,7.54,1.12,11.32,1.39,12-3.9,21.79-17,21.24-1.34,0-3.3,2-4,3.61-7.2,17.78-21.93,33.18-41.25,37.19a21.5,21.5,0,0,1-3.1.2c-1-7.56-2.06-15-3-22.35q-8.24-65.53-16.52-131c-1.58-12.36-3.17-24.71-4.7-37.07-.82-6.81-.58-6.93,5.38-7.35a51.16,51.16,0,0,1,35.61,10.9,35.53,35.53,0,0,0,3.72,2.11q-2.12-17.46-4.22-34.93c-.39-3.17-.93-6.32-1.17-9.51-.44-5.69-1.68-9.86-7.11-12.42-2.92-1.38-5.09-7-5.78-11.18-13.29-78-32.15-154.84-69.45-225.15a316.56,316.56,0,0,0-26.8-37.28c-14.75-17.83-37.8-22.6-59.81-23.38C699.6,26.8,656.73,30.48,613.71,37c-26.4,4.28-52.88,8.82-78.9,14.37C490.33,60.88,446.17,73.31,404.25,91c-9.13,3.84-18.13,8.57-27,13.11-17.59,9-32,23.6-43.61,39.5-19.44,27.17-34.26,55.89-46.62,86.88a637.17,637.17,0,0,0-32.1,121.26c-.2,1.28.3,2.74-.28,3.87-1.62,3.13-2.84,7.58-5.65,8.86-5.42,2.45-6.47,5.69-7.07,10-1.35,9.74-3,19.48-4.52,29.19-.21,1.34-.21,2.71-.38,5,13-8.54,28.71-14.3,44.53-12.87q-11.83,76.53-23.9,153c-12.53-1.93-24.74-6.9-33.91-15.79-4-3.93-7.14-8.63-10.29-13.14-1.49-2.14-2.75-3.45-6-3.49-11.12-.13-16.67-5.78-15.16-15,.06-.42.17-.83.24-1.24,1.26-6.73,1.26-6.75-6.26-9.41-8.38-3-13.69-10.26-12.71-18.09.8-6.35,1.84-12.7,3.08-19,1.81-9.26,9-15.16,20.2-16.15,4.5-.4,6.13-1.66,6.72-5.55,3.48-22.67,7.25-45.36,10.82-68.05.45-2.85,1.25-4.05,4.93-3.84,6.58.37,8.59-1.24,9.81-7,4.48-21.94,8.5-44.22,13.95-65.66a502.11,502.11,0,0,1,49.36-123.13,327.05,327.05,0,0,1,42.17-55.92c15.3-15.75,35.41-26.64,55.22-35.6,34.33-15.19,69.72-27,105.81-36.7,10.24-2.74,20.63-5.25,30.91-7.93a17.68,17.68,0,0,0,3.23-1.61Z"/><path class="cls-3" d="M793.77,523c0,7.8-4.33,13.54-8.92,11.83A534.24,534.24,0,0,0,693.79,510c-39-7-79.07-11.22-119-13.39-32.39.53-64.39,4.73-96.41,8.63A726.58,726.58,0,0,0,361,529.46c-2.7.8-5.27-2.07-5.27-5.91V431c0-11.69,5.41-25.09,16.79-29.19,29-10.45,60.79-18.3,91.52-24.49a642.69,642.69,0,0,1,110.69-12.92,769.67,769.67,0,0,1,82.13,1.17c39.33,2.85,81,8.11,117.18,19.08,14,4.26,20.19,24.43,19.69,38.47Z"/><path class="cls-3" d="M389.1,394.5V523.23"/><path class="cls-3" d="M426.23,388.74V519.62"/><path class="cls-3" d="M463.37,382.85v133"/><path class="cls-3" d="M500.5,376.82V512"/><path class="cls-3" d="M537.64,370.66V508"/><path class="cls-3" d="M574.77,364.37V503.86"/><path class="cls-3" d="M611.67,368.25V509.88"/><path class="cls-3" d="M648.56,372.32V516.08"/><path class="cls-3" d="M685.46,376.56v145.9"/><path class="cls-3" d="M722.36,381V529"/><path class="cls-3" d="M759.25,385.57V535.75"/><path class="cls-4" d="M381.77,422v94s-10.76-3.23-16-20C360.93,480.53,360.64,452.76,381.77,422Z"/><polygon class="cls-5" points="418.77 396.03 418.77 507.03 398.77 513.03 398.77 401.03 418.77 396.03"/><polygon class="cls-6" points="435.77 392.03 455.77 387.03 455.77 499.03 435.77 502.03 435.77 392.03"/><polygon class="cls-7" points="472.77 384.03 492.77 380.03 492.77 494.03 472.77 496.03 472.77 384.03"/><polygon class="cls-8" points="509.77 377.03 530.77 374.03 530.77 490.03 509.77 492.03 509.77 377.03"/><polygon class="cls-9" points="546.77 373.03 566.77 372.03 566.77 488.03 546.77 489.03 546.77 373.03"/><polygon class="cls-10" points="583.77 371.03 604.77 371.03 603.77 489.03 583.77 488.03 583.77 371.03"/><polygon class="cls-11" points="621.77 371.03 641.77 372.03 641.77 493.03 620.77 490.03 621.77 371.03"/><polygon class="cls-1" points="657.77 373.03 678.77 375.03 677.77 498.03 657.77 495.03 657.77 373.03"/></g></g></svg>