<svg xmlns="http://www.w3.org/2000/svg" viewBox="0 0 1111.84 1264.27"><defs><style>.cls-1{fill:#fff;}.cls-2{fill:#2c4352;}.cls-3,.cls-5,.cls-7{fill:none;stroke-miterlimit:10;stroke-width:18px;}.cls-3{stroke:#2c4352;}.cls-4{fill:#3959a4;}.cls-5{stroke:#3959a4;}.cls-6{fill:#456ef5;}.cls-7{stroke:#456ef5;}.cls-8{fill:#16a15c;}.cls-9{fill:#0f6;}.cls-10{fill:#544542;}.cls-11{fill:#544b42;}.cls-12{fill:#545342;}.cls-13{fill:#55594d;}.cls-14{fill:#566142;}.cls-15{fill:#546745;}.cls-16{fill:#4c6942;}.cls-17{fill:#3f6942;}.cls-18{fill:#2c6942;}.cls-19{fill:#7c4731;}.cls-20{fill:#7c5431;}.cls-21{fill:#7c6331;}.cls-22{fill:#7f6f49;}.cls-23{fill:#808031;}.cls-24{fill:#7c8b38;}.cls-25{fill:#6c8e31;}.cls-26{fill:#518e31;}.cls-27{fill:#2c8e31;}.cls-28{fill:#a44821;}.cls-29{fill:#a45c21;}.cls-30{fill:#a47221;}.cls-31{fill:#a88444;}.cls-32{fill:#ab9e21;}.cls-33{fill:#a4ae2c;}.cls-34{fill:#8cb421;}.cls-35{fill:#64b421;}.cls-36{fill:#2cb421;}.cls-37{fill:#cc4a10;}.cls-38{fill:#cc6510;}.cls-39{fill:#cc8210;}.cls-40{fill:#d29a40;}.cls-41{fill:#d5bd10;}.cls-42{fill:#ccd21f;}.cls-43{fill:#acd910;}.cls-44{fill:#76d910;}.cls-45{fill:#2cd910;}.cls-46{fill:#f44c00;}.cls-47{fill:#f46d00;}.cls-48{fill:#f49200;}.cls-49{fill:#fbb03b;}.cls-50{fill:#ffdb00;}.cls-51{fill:#f4f612;}.cls-52{fill:#cf0;}.cls-53{fill:#a2ff20;}</style></defs><title>pod_viking_full</title><g id="Layer_2" data-name="Layer 2"><g id="FULL"><path class="cls-1" d="M806.08,547.43q-110.42-12.06-221-22.4-114.83,15.6-230,28.37,4-68.5,8-137,104.16-16.32,208-34.61,110.53,3.18,221,8Q799.12,468.61,806.08,547.43Z" transform="translate(-3.31)"/><path class="cls-2" d="M585.84,680.31c-3.27,1-6.69,1.61-9.73,3-23.65,10.64-47.28,21.26-71.35,31-9.28,3.64-15,7.92-11.78,18.76a8.25,8.25,0,0,1,.06,1.93c.72,16,2.8,31.82,3.48,47.8a14.18,14.18,0,0,0,6.39,11.51q42.42,30.07,84.09,61.19c3.63,2.73,7.1,3.34,10.76,1.53q42.4-21.08,84.18-43.34c3.64-2,5-5,4.55-9.56-1-9.57-1.61-19.18-2.3-28.78-1.21-17.57-5.22-34.64-6.46-52.2-.64-8.09-1.66-9.17-9.23-12.07q-30.82-11.75-61.77-23.19C599.89,685.3,593,682.87,585.84,680.31Zm-196.45-282,1.07,1.11c2.18-.76,4.43-1.39,6.54-2.31,37.58-15.92,76.14-27.7,115.89-36.87a716.06,716.06,0,0,1,117-15.45c28.23-.58,55.13,1.31,82.7,7.63,7.24,1.87,14.36,4.17,21.53,6.3.25-.43.49-.86.73-1.29-2.28-1.63-4.34-3.81-6.87-4.78-8.42-3.23-16.79-6.84-25.57-8.72-30.52-5.85-60.6-8-91.65-8-45.82,1.14-90.64,7.23-135.44,16.76-4.21.93-8.44,1.72-12.67,2.58-1.28-11.25,1.94-16.15,12.77-19.09,29.63-7.87,59.21-14.53,89.56-18.94,49.54-5.83,97.86-4.87,146.85,4.82,3,.65,6.06.94,9.09,1.4.12-.46.24-.93.37-1.39a37.54,37.54,0,0,0-4.62-2.4c-6.46-2.32-12.82-5-19.48-6.6-36.59-7.93-73-9.18-110.35-7.23a839.75,839.75,0,0,0-108.63,15.7,64.91,64.91,0,0,1-6.69.6c6.29-12.72,12.15-25.71,19.16-38a346.63,346.63,0,0,1,23-35.17c8.58-11.36,18.14-21.92,27.32-32.8C477.42,265.55,428.27,328.18,389.39,398.35ZM187.08,751.16c-9.61-1.42,12-20.25,10-27.38-.23-.82,5.9-21,5.89-21.9-.09-4.36-4.74-5,13.11-17.68,8-6,18.41-10.47,27.88-13.34,18.09-6.35,36-13.14,53.83-20.14,7.34-2.9,11.24-8.9,16.49-15.26-24.72-.07-50-4.77-67.88-23.23,21.69-1.85,37.12-15.11,48.66-32.63l-19.32-3.18c.31-2.48.53-4.61.86-6.73q3.19-20.24,6.39-40.49,3.9-25.17,7.75-50.34c2.71-17.34,5.47-34.7,8-52,.54-3.72,1.52-5.19,6.13-4.54,9.15,1.28,18.51,2.31,27.36-2.17a15.53,15.53,0,0,0,6.46-5.73c6.95-13.74,13.49-27.61,21-41,45.25-74.64,105.48-139.2,169-198.32a60.81,60.81,0,0,1,12.69-9.24c27.72-14.74,60.93-19.75,88.45.75,37.08,26.53,71.82,55.24,103.62,88C772,296,803,340.9,822.93,394.2c1.72,4.89,4.9,7.17,9.48,6.88q11.46-.72,22.9-2.1c4.1-.49,8.18-1.58,13-2.54q12.59,98.52,25,197.05c-8.08,1.18-15.54,2.26-23.46,3.39,1.83,8.79,2.82,16.86,7.67,24.15,4.84,8.19,15.09,15.86,24.45,17.88,5.55,1.47,11.09,3.06,16.62,4.65,1.44.41,2.86,1,5.35,1.81-23.69,11.38-44.66,14.83-70.62,11.4,4.41,8.73,8.53,15.73,15,20.23q23.6,16.2,47.27,32.28c14.45,9.55,28.9,18.83,42.65,29.39,19.5,16,26.74,15.86,9.11,37.17-6,7.24-13.5,11.11-23.76,11.32,1.45-2.34,2.06-3.6,2.88-4.63q4-5,8.19-9.82c-6.37,3.61-13.74,3.86-20.09-.22-7.29-5.14-12.55-2.16-13.51,7.22a39.86,39.86,0,0,0,0,6.82c3.15,49.53,41.19,53.91,73,82.35-.11,1.1-.14,1.31-.25,2.42A35.82,35.82,0,0,1,968.06,870c-12.58-5.66-24.6-12.42-36.73-19-4.11-2.18-8-5-12.61-7.86-2.9,17-1.7,35.86,7.82,50.82,9.08,14.71,18.62,29.1,28.05,43.59,1,1.5,1.86,3.06,3.23,5.32-8.75-.11-19.19-4-26.2-9.19-12.56-8.67-22-20.45-31.49-32.17-1.35-1.68-2.81-3.28-4.55-5.3-1.94,9.21-3.47,17.62-5.5,25.79-11.25,46.23-44.71,71.61-92.44,62-8.32-1.64-16.44-4.54-24.46-11.82,3-.83,5-1.44,7.13-2,6.6-1.82,13.34-3.35,19.8-5.56,14.63-5.17,26.86-16.86,29.75-32.6,1.61-7,.27-14.06-4.52-20.65-6.74-9.28-19.52-14.93-30.68-11.73a64.63,64.63,0,0,0-31.87,20.68c-18,21.84-12.9,47.21-1,70.28,6.24,10.17,14.53,18.87,23.55,26.6,4,3.45,7.89,7,12.36,11-19.14-1.17-40.4-12.56-55.93-23-28-19.15-48.44-48-55.82-81.29l-1.32-.37q-20.43,40.2-41.34,80.13c-9.88-7.93-19.61-15.66-30-22.92-10.81-4.88-21-8.71-33.12-5.43-9.73,1.75-21.08,7.71-27.74,15.07l-5.4-1.87a52.72,52.72,0,0,0-2.32-6.29q-19.49-38.16-39.49-76.06a33.88,33.88,0,0,0-2.39-3.33C492.45,921,479.58,941.46,459,949.25c-22.38,9.2-44.57,9.53-68,5.26a7.91,7.91,0,0,1,3.45-2.61c7.15-3.61,14.62-6.89,21.4-11.08,16.61-10.8,17.1-26.78,12.89-44.15-7.71-22-23.9-39.33-44-50.75a39,39,0,0,0-9.89-4.39c-16.33-4.37-31.84,9.52-23.85,26.1,6.26,17.49,22.38,29.91,38.62,37.51,3.33,1.58,6.69,3.09,10,4.64-.07.71-.06.58-.13,1.28-7.7-.5-15.38-.67-23.1-1.59-15.18-1.74-28.92-6.06-42.86-12.13-24-11.42-40.4-33-48.59-57.82-1.27-3.88-2.5-7.76-3.92-12.14-2.39,1.12-4.13,2-5.89,2.74-7.55,3.42-14.88,7.11-22.69,10-11.16,4.54-22.08,1.73-33.06-1.24,1-.92,1.6-1.58,2.31-2.18,5.07-4.27,10.49-8.3,15.16-13,9-8.8,16.17-19.66,18.74-32.12,1.4-6.94,1.4-14-3.24-21.45-3.62,1.35-6.77,2.5-9.91,3.68-16.58,5-30.53,6.09-47.74,4.15-7.57-1.36-14.45-4.27-19.91-10.35,7-2.12,16.82.35,23.24-1.78,10.11-3.46,26.64-4.45,33.26-13.84.79-1.14,1.43-2.63,2-3.74,4.83-8.61,26.2-18.21,22.38-31.35-3.58-8-9.06-10.33-17.3-7.39-11,3.92-8.28,1.76-5.39,11.91l.06.21c1.25,4.41-1.27,8.59-6,9.91Q207.19,741.5,187.08,751.16Zm416.9-370-.09-1.59c-24.87,3.76-49.76,7.11-74.48,11.72-28.79,5.89-57.34,12.58-85.83,19.74-17.88,4.48-36.25,13.05-48.58,27.19-20.72,25.35-28.93,53.36-21,85.76,2.73,11.7,13.08,18.64,24.6,19.77,8.2,1,16.75,1.73,24.86.74,29.15-3.67,58.19-8,87.25-12.39,19.88-3.12,39.68-6.55,59.66-8.93C613,520,654.05,527,695.9,534.47c20,3.9,39.35,8.24,59.71,9.26,20.07.2,35.26-12.22,40.74-30.63,5.89-19.81,5.39-38.16,1.17-58.8-5.49-22.44-19.61-41.39-42.47-47.93-9-2.59-18.17-5.4-27-8.36C687.7,384.49,646.88,378.51,604,381.14ZM557.15,609.07l-1.31.39c-4.72-5.17-9.52-10.24-14.14-15.44-6.3-7.1-6.55-7.13-15.26-3.76-30.32,11.65-60.79,22.87-91.34,33.89-3.63,1.3-5,.2-6.53-2.66-3.84-7.21-8.21-14.18-11.76-21.42a20.26,20.26,0,0,0-17.23-11.16c-4.62-.21-6.37.9-7.73,4.47a110,110,0,0,0-6.63,39.88c.22,25.36,16.77,46.23,39.37,56.47,7.75,3.55,14.47,3.58,21.78.16Q501,664.22,555,637.11a24.3,24.3,0,0,1,9.76-2.9c14.61-.42,29.23-.44,43.84-.65,9.07-.15,17.54.86,26,6.12,30.43,19,60.91,37.94,91,57.48,6,4,11.76,4.77,18.08,2.18,23.32-9.42,38.35-29.65,43.51-53.94,2.39-17.43,1-31.07-4.45-47.79-1.23-3.09-2.47-6.8-6.67-6.12-7.86,1.29-14.87,2.42-17.28,14-2.23,10.81-4.62,11.54-14.53,8.77q-46.42-12.91-93-25.19c-5.28-1.39-9.4,0-12.81,4.24-3.23,4-6.75,7.77-10.22,11.53a15.58,15.58,0,0,1-3,1.94c-.42-1.89-.77-3.18-1-4.48l-11.64-65.52c-.52-2.9-1.27-5-5-4.7-12.12.78-24.25,1.45-36.37,2.14-5.56.34-7.39,2.13-7.87,7.55-.63,7.06-1.06,14.14-1.71,21.18Q559.38,586,557.15,609.07Z" transform="translate(-3.31)"/><path class="cls-2" d="M618.08,34.36c6.24-.67,12.49-1.15,18.72-2,36.36-5,72.78-8.36,109.61-8.35,17.2.5,33,2,49.6,6.6,22.11,7.79,38.33,25.65,51.16,44.55,22.27,34,37.22,70.91,50.06,109.36a1014.83,1014.83,0,0,1,34.09,144.27c1.06,6.75,3.46,12.47,11.35,9.45,3.07-1.18,3.68.82,4,3.67q5,40.8,10.07,81.6c.11.95.27,1.9.29,2.86.2,9.05,1.84,15.26,11.86,15.93,8.28.55,13.68,8.25,15.24,18.08,1.64,10.08,2.9,20.34,3.67,30.52a25.43,25.43,0,0,1-15.18,24.8c-1.23.53-2.52.91-4.18,1.51.37,3.76.8,7.54,1.12,11.32,1.39,12-3.9,21.79-17,21.24-1.34,0-3.3,2-4,3.61-7.2,17.78-21.93,33.18-41.25,37.19a21.5,21.5,0,0,1-3.1.2c-1-7.56-2.06-15-3-22.35q-8.24-65.53-16.52-131c-1.58-12.36-3.17-24.71-4.7-37.07-.82-6.81-.58-6.93,5.38-7.35a51.16,51.16,0,0,1,35.61,10.9,35.53,35.53,0,0,0,3.72,2.11q-2.12-17.46-4.22-34.93c-.39-3.17-.93-6.32-1.17-9.51-.44-5.69-1.68-9.86-7.11-12.42-2.92-1.38-5.09-7-5.78-11.18-13.29-78-32.15-154.84-69.45-225.15a316.56,316.56,0,0,0-26.8-37.28c-14.75-17.83-37.8-22.6-59.81-23.38C706.91,50.8,664,54.48,621,61c-26.41,4.28-52.88,8.82-78.9,14.37C497.64,84.88,453.48,97.31,411.56,115c-9.13,3.84-18.13,8.57-27,13.11-17.59,9-32,23.6-43.61,39.5-19.44,27.17-34.26,55.89-46.62,86.88a637.17,637.17,0,0,0-32.1,121.26c-.2,1.28.3,2.74-.28,3.87-1.62,3.13-2.84,7.58-5.65,8.86-5.42,2.45-6.47,5.69-7.07,10-1.35,9.74-3,19.48-4.52,29.19-.21,1.34-.21,2.71-.38,5,13-8.54,28.71-14.3,44.53-12.87Q277,496.28,265,572.77c-12.53-1.93-24.74-6.9-33.91-15.79-4-3.93-7.14-8.63-10.29-13.14-1.49-2.14-2.75-3.45-6-3.49-11.12-.13-16.67-5.78-15.16-15,.06-.42.17-.83.24-1.24,1.26-6.73,1.26-6.75-6.26-9.41-8.38-3-13.69-10.26-12.71-18.09.8-6.35,1.84-12.7,3.08-19,1.81-9.26,9-15.16,20.2-16.15,4.5-.4,6.13-1.66,6.72-5.55,3.48-22.67,7.25-45.36,10.82-68.05.45-2.85,1.25-4.05,4.93-3.84,6.58.37,8.59-1.24,9.81-7,4.48-21.94,8.5-44.22,13.95-65.66a502.11,502.11,0,0,1,49.36-123.13,327.05,327.05,0,0,1,42.17-55.92c15.3-15.75,35.41-26.64,55.22-35.6,34.33-15.19,69.72-27,105.81-36.7,10.24-2.74,20.63-5.25,30.91-7.93a17.68,17.68,0,0,0,3.23-1.61Z" transform="translate(-3.31)"/><path class="cls-3" d="M801.08,547c0,7.8-4.33,13.54-8.92,11.83A534.24,534.24,0,0,0,701.1,534c-39-7-79.07-11.22-119-13.39-32.39.53-64.39,4.73-96.41,8.63a726.58,726.58,0,0,0-117.32,24.22c-2.7.8-5.27-2.07-5.27-5.91V455c-.05-11.69,5.41-25.09,16.79-29.19,29-10.45,60.79-18.3,91.52-24.49a642.69,642.69,0,0,1,110.69-12.92,769.44,769.44,0,0,1,82.12,1.17c39.34,2.85,81,8.11,117.19,19.08,14,4.26,20.18,24.43,19.69,38.47Z" transform="translate(-3.31)"/><path class="cls-3" d="M396.41,418.5V547.23" transform="translate(-3.31)"/><path class="cls-3" d="M433.54,412.74V543.62" transform="translate(-3.31)"/><path class="cls-3" d="M470.68,406.85v133" transform="translate(-3.31)"/><path class="cls-3" d="M507.81,400.82V536" transform="translate(-3.31)"/><path class="cls-3" d="M545,394.66V532" transform="translate(-3.31)"/><path class="cls-3" d="M582.08,388.37V527.86" transform="translate(-3.31)"/><path class="cls-3" d="M619,392.25V533.88" transform="translate(-3.31)"/><path class="cls-3" d="M655.87,396.32V540.08" transform="translate(-3.31)"/><path class="cls-3" d="M692.77,400.56v145.9" transform="translate(-3.31)"/><path class="cls-3" d="M729.67,405V553" transform="translate(-3.31)"/><path class="cls-3" d="M766.56,409.57V559.75" transform="translate(-3.31)"/><path class="cls-1" d="M817.08,535.43q-110.42-12.06-221-22.4-114.83,15.6-230,28.37,4-68.5,8-137,104.16-16.32,208-34.61,110.53,3.18,221,8Q810.12,456.61,817.08,535.43Z" transform="translate(-3.31)"/><path class="cls-4" d="M596.84,668.31c-3.27,1-6.69,1.61-9.73,3-23.65,10.64-47.28,21.26-71.35,31-9.28,3.64-15,7.92-11.78,18.76a8.25,8.25,0,0,1,.06,1.93c.72,16,2.8,31.82,3.48,47.8a14.18,14.18,0,0,0,6.39,11.51q42.42,30.07,84.09,61.19c3.63,2.73,7.1,3.34,10.76,1.53q42.4-21.08,84.18-43.34c3.64-2,5-5,4.55-9.56-1-9.57-1.61-19.18-2.3-28.78-1.21-17.57-5.22-34.64-6.46-52.2-.64-8.09-1.66-9.17-9.23-12.07q-30.82-11.75-61.77-23.19C610.89,673.3,604,670.87,596.84,668.31Zm-196.45-282,1.07,1.11c2.18-.76,4.43-1.39,6.54-2.31,37.58-15.92,76.14-27.7,115.89-36.87a716.06,716.06,0,0,1,117-15.45c28.23-.58,55.13,1.31,82.7,7.63,7.24,1.87,14.36,4.17,21.53,6.3.25-.43.49-.86.73-1.29-2.28-1.63-4.34-3.81-6.87-4.78-8.42-3.23-16.79-6.84-25.57-8.72-30.52-5.85-60.6-8-91.65-8-45.82,1.14-90.64,7.23-135.44,16.76-4.21.93-8.44,1.72-12.67,2.58-1.28-11.25,1.94-16.15,12.77-19.09,29.63-7.87,59.21-14.53,89.56-18.94,49.54-5.83,97.86-4.87,146.85,4.82,3,.65,6.06.94,9.09,1.4.12-.46.24-.93.37-1.39a37.54,37.54,0,0,0-4.62-2.4c-6.46-2.32-12.82-5-19.48-6.6-36.59-7.93-73-9.18-110.35-7.23a839.75,839.75,0,0,0-108.63,15.7,64.91,64.91,0,0,1-6.69.6c6.29-12.72,12.15-25.71,19.16-38a346.63,346.63,0,0,1,23-35.17c8.58-11.36,18.14-21.92,27.32-32.8C488.42,253.55,439.27,316.18,400.39,386.35ZM198.08,739.16c-9.61-1.42,12-20.25,10-27.38-.23-.82,5.9-21,5.89-21.9-.09-4.36-4.74-5,13.11-17.68,8-6,18.41-10.47,27.88-13.34,18.09-6.35,36-13.14,53.83-20.14,7.34-2.9,11.24-8.9,16.49-15.26-24.72-.07-50-4.77-67.88-23.23,21.69-1.85,37.12-15.11,48.66-32.63l-19.32-3.18c.31-2.48.53-4.61.86-6.73q3.19-20.24,6.39-40.49,3.9-25.17,7.75-50.34c2.71-17.34,5.47-34.7,8-52,.54-3.72,1.52-5.19,6.13-4.54,9.15,1.28,18.51,2.31,27.36-2.17a15.53,15.53,0,0,0,6.46-5.73c6.95-13.74,13.49-27.61,21-41,45.25-74.64,105.48-139.2,169-198.32a60.81,60.81,0,0,1,12.69-9.24c27.72-14.74,60.93-19.75,88.45.75,37.08,26.53,71.82,55.24,103.62,88C783,284,814,328.9,833.93,382.2c1.72,4.89,4.9,7.17,9.48,6.88q11.46-.72,22.9-2.1c4.1-.49,8.18-1.58,13-2.54q12.59,98.52,25,197.05c-8.08,1.18-15.54,2.26-23.46,3.39,1.83,8.79,2.82,16.86,7.67,24.15,4.84,8.19,15.09,15.86,24.45,17.88,5.55,1.47,11.09,3.06,16.62,4.65,1.44.41,2.86,1,5.35,1.81-23.69,11.38-44.66,14.83-70.62,11.4,4.41,8.73,8.53,15.73,15,20.23q23.6,16.2,47.27,32.28c14.45,9.55,28.9,18.83,42.65,29.39,19.5,16,26.74,15.86,9.11,37.17-6,7.24-13.5,11.11-23.76,11.32,1.45-2.34,2.06-3.6,2.88-4.63q4-5,8.19-9.82c-6.37,3.61-13.74,3.86-20.09-.22-7.29-5.14-12.55-2.16-13.51,7.22a39.86,39.86,0,0,0,0,6.82c3.15,49.53,41.19,53.91,73,82.35-.11,1.1-.14,1.31-.25,2.42A35.82,35.82,0,0,1,979.06,858c-12.58-5.66-24.6-12.42-36.73-19-4.11-2.18-8-5-12.61-7.86-2.9,17-1.7,35.86,7.82,50.82,9.08,14.71,18.62,29.1,28.05,43.59,1,1.5,1.86,3.06,3.23,5.32-8.75-.11-19.19-4-26.2-9.19-12.56-8.67-22-20.45-31.49-32.17-1.35-1.68-2.81-3.28-4.55-5.3-1.94,9.21-3.47,17.62-5.5,25.79-11.25,46.23-44.71,71.61-92.44,62-8.32-1.64-16.44-4.54-24.46-11.82,3-.83,5-1.44,7.13-2,6.6-1.82,13.34-3.35,19.8-5.56,14.63-5.17,26.86-16.86,29.75-32.6,1.61-7,.27-14.06-4.52-20.65-6.74-9.28-19.52-14.93-30.68-11.73a64.63,64.63,0,0,0-31.87,20.68c-18,21.84-12.9,47.21-1,70.28,6.24,10.17,14.53,18.87,23.55,26.6,4,3.45,7.89,7,12.36,11-19.14-1.17-40.4-12.56-55.93-23-28-19.15-48.44-48-55.82-81.29l-1.32-.37q-20.43,40.2-41.34,80.13c-9.88-7.93-19.61-15.66-30-22.92-10.81-4.88-21-8.71-33.12-5.43-9.73,1.75-21.08,7.71-27.74,15.07l-5.4-1.87a52.72,52.72,0,0,0-2.32-6.29q-19.49-38.16-39.49-76.06a33.88,33.88,0,0,0-2.39-3.33C503.45,909,490.58,929.46,470,937.25c-22.38,9.2-44.57,9.53-68,5.26a7.91,7.91,0,0,1,3.45-2.61c7.15-3.61,14.62-6.89,21.4-11.08,16.61-10.8,17.1-26.78,12.89-44.15-7.71-22-23.9-39.33-44-50.75a39,39,0,0,0-9.89-4.39c-16.33-4.37-31.84,9.52-23.85,26.1,6.26,17.49,22.38,29.91,38.62,37.51,3.33,1.58,6.69,3.09,10,4.64-.07.71-.06.58-.13,1.28-7.7-.5-15.38-.67-23.1-1.59-15.18-1.74-28.92-6.06-42.86-12.13-24-11.42-40.4-33-48.59-57.82-1.27-3.88-2.5-7.76-3.92-12.14-2.39,1.12-4.13,2-5.89,2.74-7.55,3.42-14.88,7.11-22.69,10-11.16,4.54-22.08,1.73-33.06-1.24,1-.92,1.6-1.58,2.31-2.18,5.07-4.27,10.49-8.3,15.16-13,9-8.8,16.17-19.66,18.74-32.12,1.4-6.94,1.4-14-3.24-21.45-3.62,1.35-6.77,2.5-9.91,3.68-16.58,5-30.53,6.09-47.74,4.15-7.57-1.36-14.45-4.27-19.91-10.35,7-2.12,16.82.35,23.24-1.78,10.11-3.46,26.64-4.45,33.26-13.84.79-1.14,1.43-2.63,2-3.74,4.83-8.61,26.2-18.21,22.38-31.35-3.58-8-9.06-10.33-17.3-7.39-11,3.92-8.28,1.76-5.39,11.91l.06.21c1.25,4.41-1.27,8.59-6,9.91Q218.19,729.5,198.08,739.16Zm416.9-370-.09-1.59c-24.87,3.76-49.76,7.11-74.48,11.72-28.79,5.89-57.34,12.58-85.83,19.74-17.88,4.48-36.25,13.05-48.58,27.19-20.72,25.35-28.93,53.36-21,85.76,2.73,11.7,13.08,18.64,24.6,19.77,8.2,1,16.75,1.73,24.86.74,29.15-3.67,58.19-8,87.25-12.39,19.88-3.12,39.68-6.55,59.66-8.93C624,508,665.05,515,706.9,522.47c20,3.9,39.35,8.24,59.71,9.26,20.07.2,35.26-12.22,40.74-30.63,5.89-19.81,5.39-38.16,1.17-58.8-5.49-22.44-19.61-41.39-42.47-47.93-9-2.59-18.17-5.4-27-8.36C698.7,372.49,657.88,366.51,615,369.14ZM568.15,597.07l-1.31.39c-4.72-5.17-9.52-10.24-14.14-15.44-6.3-7.1-6.55-7.13-15.26-3.76-30.32,11.65-60.79,22.87-91.34,33.89-3.63,1.3-5,.2-6.53-2.66-3.84-7.21-8.21-14.18-11.76-21.42a20.26,20.26,0,0,0-17.23-11.16c-4.62-.21-6.37.9-7.73,4.47a110,110,0,0,0-6.63,39.88c.22,25.36,16.77,46.23,39.37,56.47,7.75,3.55,14.47,3.58,21.78.16Q512,652.22,566,625.11a24.3,24.3,0,0,1,9.76-2.9c14.61-.42,29.23-.44,43.84-.65,9.07-.15,17.54.86,26,6.12,30.43,19,60.91,37.94,91,57.48,6,4,11.76,4.77,18.08,2.18,23.32-9.42,38.35-29.65,43.51-53.94,2.39-17.43,1-31.07-4.45-47.79-1.23-3.09-2.47-6.8-6.67-6.12-7.86,1.29-14.87,2.42-17.28,14-2.23,10.81-4.62,11.54-14.53,8.77q-46.42-12.91-93-25.19c-5.28-1.39-9.4,0-12.81,4.24-3.23,4-6.75,7.77-10.22,11.53a15.58,15.58,0,0,1-3,1.94c-.42-1.89-.77-3.18-1-4.48l-11.64-65.52c-.52-2.9-1.27-5-5-4.7-12.12.78-24.25,1.45-36.37,2.14-5.56.34-7.39,2.13-7.87,7.55-.63,7.06-1.06,14.14-1.71,21.18Q570.38,574,568.15,597.07Z" transform="translate(-3.31)"/><path class="cls-4" d="M629.08,22.36c6.24-.67,12.49-1.15,18.72-2,36.36-5,72.78-8.36,109.61-8.35,17.2.5,33,2,49.6,6.6,22.11,7.79,38.33,25.65,51.16,44.55,22.27,34,37.22,70.91,50.06,109.36a1014.83,1014.83,0,0,1,34.09,144.27c1.06,6.75,3.46,12.47,11.35,9.45,3.07-1.18,3.68.82,4,3.67q5,40.8,10.07,81.6c.11.95.27,1.9.29,2.86.2,9.05,1.84,15.26,11.86,15.93,8.28.55,13.68,8.25,15.24,18.08,1.64,10.08,2.9,20.34,3.67,30.52a25.43,25.43,0,0,1-15.18,24.8c-1.23.53-2.52.91-4.18,1.51.37,3.76.8,7.54,1.12,11.32,1.39,12-3.9,21.79-17,21.24-1.34,0-3.3,2-4,3.61-7.2,17.78-21.93,33.18-41.25,37.19a21.5,21.5,0,0,1-3.1.2c-1-7.56-2.06-15-3-22.35q-8.24-65.53-16.52-131c-1.58-12.36-3.17-24.71-4.7-37.07-.82-6.81-.58-6.93,5.38-7.35a51.16,51.16,0,0,1,35.61,10.9,35.53,35.53,0,0,0,3.72,2.11q-2.12-17.46-4.22-34.93c-.39-3.17-.93-6.32-1.17-9.51-.44-5.69-1.68-9.86-7.11-12.42-2.92-1.38-5.09-7-5.78-11.18-13.29-78-32.15-154.84-69.45-225.15a316.56,316.56,0,0,0-26.8-37.28c-14.75-17.83-37.8-22.6-59.81-23.38C717.91,38.8,675,42.48,632,49c-26.41,4.28-52.88,8.82-78.9,14.37C508.64,72.88,464.48,85.31,422.56,103c-9.13,3.84-18.13,8.57-27,13.11-17.59,9-32,23.6-43.61,39.5-19.44,27.17-34.26,55.89-46.62,86.88a637.17,637.17,0,0,0-32.1,121.26c-.2,1.28.3,2.74-.28,3.87-1.62,3.13-2.84,7.58-5.65,8.86-5.42,2.45-6.47,5.69-7.07,10-1.35,9.74-3,19.48-4.52,29.19-.21,1.34-.21,2.71-.38,5,13-8.54,28.71-14.3,44.53-12.87Q288,484.28,276,560.77c-12.53-1.93-24.74-6.9-33.91-15.79-4-3.93-7.14-8.63-10.29-13.14-1.49-2.14-2.75-3.45-6-3.49-11.12-.13-16.67-5.78-15.16-15,.06-.42.17-.83.24-1.24,1.26-6.73,1.26-6.75-6.26-9.41-8.38-3-13.69-10.26-12.71-18.09.8-6.35,1.84-12.7,3.08-19,1.81-9.26,9-15.16,20.2-16.15,4.5-.4,6.13-1.66,6.72-5.55,3.48-22.67,7.25-45.36,10.82-68.05.45-2.85,1.25-4.05,4.93-3.84,6.58.37,8.59-1.24,9.81-7,4.48-21.94,8.5-44.22,13.95-65.66a502.11,502.11,0,0,1,49.36-123.13,327.05,327.05,0,0,1,42.17-55.92c15.3-15.75,35.41-26.64,55.22-35.6,34.33-15.19,69.72-27,105.81-36.7,10.24-2.74,20.63-5.25,30.91-7.93a17.68,17.68,0,0,0,3.23-1.61Z" transform="translate(-3.31)"/><path class="cls-5" d="M812.08,535c0,7.8-4.33,13.54-8.92,11.83A534.24,534.24,0,0,0,712.1,522c-39-7-79.07-11.22-119-13.39-32.39.53-64.39,4.73-96.41,8.63a726.58,726.58,0,0,0-117.32,24.22c-2.7.8-5.27-2.07-5.27-5.91V443c-.05-11.69,5.41-25.09,16.79-29.19,29-10.45,60.79-18.3,91.52-24.49a642.69,642.69,0,0,1,110.69-12.92,769.44,769.44,0,0,1,82.12,1.17c39.34,2.85,81,8.11,117.19,19.08,14,4.26,20.18,24.43,19.69,38.47Z" transform="translate(-3.31)"/><path class="cls-5" d="M407.41,406.5V535.23" transform="translate(-3.31)"/><path class="cls-5" d="M444.54,400.74V531.62" transform="translate(-3.31)"/><path class="cls-5" d="M481.68,394.85v133" transform="translate(-3.31)"/><path class="cls-5" d="M518.81,388.82V524" transform="translate(-3.31)"/><path class="cls-5" d="M556,382.66V520" transform="translate(-3.31)"/><path class="cls-5" d="M593.08,376.37V515.86" transform="translate(-3.31)"/><path class="cls-5" d="M630,380.25V521.88" transform="translate(-3.31)"/><path class="cls-5" d="M666.87,384.32V528.08" transform="translate(-3.31)"/><path class="cls-5" d="M703.77,388.56v145.9" transform="translate(-3.31)"/><path class="cls-5" d="M740.67,393V541" transform="translate(-3.31)"/><path class="cls-5" d="M777.56,397.57V547.75" transform="translate(-3.31)"/><path class="cls-6" d="M607.84,656.31c-3.27,1-6.69,1.61-9.73,3-23.65,10.64-47.28,21.26-71.35,31-9.28,3.64-15,7.92-11.78,18.76a8.25,8.25,0,0,1,.06,1.93c.72,16,2.8,31.82,3.48,47.8a14.18,14.18,0,0,0,6.39,11.51q42.42,30.07,84.09,61.19c3.63,2.73,7.1,3.34,10.76,1.53q42.4-21.08,84.18-43.34c3.64-2,5-5,4.55-9.56-1-9.57-1.61-19.18-2.3-28.78-1.21-17.57-5.22-34.64-6.46-52.2-.64-8.09-1.66-9.17-9.23-12.07q-30.82-11.75-61.77-23.19C621.89,661.3,615,658.87,607.84,656.31Zm-196.45-282,1.07,1.11c2.18-.76,4.43-1.39,6.54-2.31,37.58-15.92,76.14-27.7,115.89-36.87a716.06,716.06,0,0,1,117-15.45c28.23-.58,55.13,1.31,82.7,7.63,7.24,1.87,14.36,4.17,21.53,6.3.25-.43.49-.86.73-1.29-2.28-1.63-4.34-3.81-6.87-4.78-8.42-3.23-16.79-6.84-25.57-8.72-30.52-5.85-60.6-8-91.65-8-45.82,1.14-90.64,7.23-135.44,16.76-4.21.93-8.44,1.72-12.67,2.58-1.28-11.25,1.94-16.15,12.77-19.09,29.63-7.87,59.21-14.53,89.56-18.94,49.54-5.83,97.86-4.87,146.85,4.82,3,.65,6.06.94,9.09,1.4.12-.46.24-.93.37-1.39a37.54,37.54,0,0,0-4.62-2.4c-6.46-2.32-12.82-5-19.48-6.6-36.59-7.93-73-9.18-110.35-7.23a839.75,839.75,0,0,0-108.63,15.7,64.91,64.91,0,0,1-6.69.6c6.29-12.72,12.15-25.71,19.16-38a346.63,346.63,0,0,1,23-35.17c8.58-11.36,18.14-21.92,27.32-32.8C499.42,241.55,450.27,304.18,411.39,374.35ZM209.08,727.16c-9.61-1.42,12-20.25,10-27.38-.23-.82,5.9-21,5.89-21.9-.09-4.36-4.74-5,13.11-17.68,8-6,18.41-10.47,27.88-13.34,18.09-6.35,36-13.14,53.83-20.14,7.34-2.9,11.24-8.9,16.49-15.26-24.72-.07-50-4.77-67.88-23.23,21.69-1.85,37.12-15.11,48.66-32.63l-19.32-3.18c.31-2.48.53-4.61.86-6.73q3.19-20.24,6.39-40.49,3.9-25.17,7.75-50.34c2.71-17.34,5.47-34.7,8-52,.54-3.72,1.52-5.19,6.13-4.54,9.15,1.28,18.51,2.31,27.36-2.17a15.53,15.53,0,0,0,6.46-5.73c6.95-13.74,13.49-27.61,21-41,45.25-74.64,105.48-139.2,169-198.32a60.81,60.81,0,0,1,12.69-9.24c27.72-14.74,60.93-19.75,88.45.75,37.08,26.53,71.82,55.24,103.62,88C794,272,825,316.9,844.93,370.2c1.72,4.89,4.9,7.17,9.48,6.88q11.46-.72,22.9-2.1c4.1-.49,8.18-1.58,13-2.54q12.59,98.52,25,197.05c-8.08,1.18-15.54,2.26-23.46,3.39,1.83,8.79,2.82,16.86,7.67,24.15,4.84,8.19,15.09,15.86,24.45,17.88,5.55,1.47,11.09,3.06,16.62,4.65,1.44.41,2.86,1,5.35,1.81-23.69,11.38-44.66,14.83-70.62,11.4,4.41,8.73,8.53,15.73,15,20.23q23.6,16.2,47.27,32.28c14.45,9.55,28.9,18.83,42.65,29.39,19.5,16,26.74,15.86,9.11,37.17-6,7.24-13.5,11.11-23.76,11.32,1.45-2.34,2.06-3.6,2.88-4.63q4-5,8.19-9.82c-6.37,3.61-13.74,3.86-20.09-.22-7.29-5.14-12.55-2.16-13.51,7.22a39.86,39.86,0,0,0,0,6.82c3.15,49.53,41.19,53.91,73,82.35-.11,1.1-.14,1.31-.25,2.42A35.82,35.82,0,0,1,990.06,846c-12.58-5.66-24.6-12.42-36.73-19-4.11-2.18-8-5-12.61-7.86-2.9,17-1.7,35.86,7.82,50.82,9.08,14.71,18.62,29.1,28.05,43.59,1,1.5,1.86,3.06,3.23,5.32-8.75-.11-19.19-4-26.2-9.19-12.56-8.67-22-20.45-31.49-32.17-1.35-1.68-2.81-3.28-4.55-5.3-1.94,9.21-3.47,17.62-5.5,25.79-11.25,46.23-44.71,71.61-92.44,62-8.32-1.64-16.44-4.54-24.46-11.82,3-.83,5-1.44,7.13-2,6.6-1.82,13.34-3.35,19.8-5.56,14.63-5.17,26.86-16.86,29.75-32.6,1.61-7,.27-14.06-4.52-20.65-6.74-9.28-19.52-14.93-30.68-11.73a64.63,64.63,0,0,0-31.87,20.68c-18,21.84-12.9,47.21-1,70.28,6.24,10.17,14.53,18.87,23.55,26.6,4,3.45,7.89,7,12.36,11-19.14-1.17-40.4-12.56-55.93-23-28-19.15-48.44-48-55.82-81.29l-1.32-.37q-20.43,40.2-41.34,80.13c-9.88-7.93-19.61-15.66-30-22.92-10.81-4.88-21-8.71-33.12-5.43-9.73,1.75-21.08,7.71-27.74,15.07l-5.4-1.87a52.72,52.72,0,0,0-2.32-6.29q-19.49-38.16-39.49-76.06a33.88,33.88,0,0,0-2.39-3.33C514.45,897,501.58,917.46,481,925.25c-22.38,9.2-44.57,9.53-68,5.26a7.91,7.91,0,0,1,3.45-2.61c7.15-3.61,14.62-6.89,21.4-11.08,16.61-10.8,17.1-26.78,12.89-44.15-7.71-22-23.9-39.33-44-50.75a39,39,0,0,0-9.89-4.39c-16.33-4.37-31.84,9.52-23.85,26.1,6.26,17.49,22.38,29.91,38.62,37.51,3.33,1.58,6.69,3.09,10,4.64-.07.71-.06.58-.13,1.28-7.7-.5-15.38-.67-23.1-1.59-15.18-1.74-28.92-6.06-42.86-12.13-24-11.42-40.4-33-48.59-57.82-1.27-3.88-2.5-7.76-3.92-12.14-2.39,1.12-4.13,2-5.89,2.74-7.55,3.42-14.88,7.11-22.69,10-11.16,4.54-22.08,1.73-33.06-1.24,1-.92,1.6-1.58,2.31-2.18,5.07-4.27,10.49-8.3,15.16-13,9-8.8,16.17-19.66,18.74-32.12,1.4-6.94,1.4-14-3.24-21.45-3.62,1.35-6.77,2.5-9.91,3.68-16.58,5-30.53,6.09-47.74,4.15-7.57-1.36-14.45-4.27-19.91-10.35,7-2.12,16.82.35,23.24-1.78,10.11-3.46,26.64-4.45,33.26-13.84.79-1.14,1.43-2.63,2-3.74,4.83-8.61,26.2-18.21,22.38-31.35-3.58-8-9.06-10.33-17.3-7.39-11,3.92-8.28,1.76-5.39,11.91l.06.21c1.25,4.41-1.27,8.59-6,9.91Q229.19,717.5,209.08,727.16Zm416.9-370-.09-1.59c-24.87,3.76-49.76,7.11-74.48,11.72-28.79,5.89-57.34,12.58-85.83,19.74-17.88,4.48-36.25,13.05-48.58,27.19-20.72,25.35-28.93,53.36-21,85.76,2.73,11.7,13.08,18.64,24.6,19.77,8.2,1,16.75,1.73,24.86.74,29.15-3.67,58.19-8,87.25-12.39,19.88-3.12,39.68-6.55,59.66-8.93C635,496,676.05,503,717.9,510.47c20,3.9,39.35,8.24,59.71,9.26,20.07.2,35.26-12.22,40.74-30.63,5.89-19.81,5.39-38.16,1.17-58.8-5.49-22.44-19.61-41.39-42.47-47.93-9-2.59-18.17-5.4-27-8.36C709.7,360.49,668.88,354.51,626,357.14ZM579.15,585.07l-1.31.39c-4.72-5.17-9.52-10.24-14.14-15.44-6.3-7.1-6.55-7.13-15.26-3.76-30.32,11.65-60.79,22.87-91.34,33.89-3.63,1.3-5,.2-6.53-2.66-3.84-7.21-8.21-14.18-11.76-21.42a20.26,20.26,0,0,0-17.23-11.16c-4.62-.21-6.37.9-7.73,4.47a110,110,0,0,0-6.63,39.88c.22,25.36,16.77,46.23,39.37,56.47,7.75,3.55,14.47,3.58,21.78.16Q523,640.22,577,613.11a24.3,24.3,0,0,1,9.76-2.9c14.61-.42,29.23-.44,43.84-.65,9.07-.15,17.54.86,26,6.12,30.43,19,60.91,37.94,91,57.48,6,4,11.76,4.77,18.08,2.18,23.32-9.42,38.35-29.65,43.51-53.94,2.39-17.43,1-31.07-4.45-47.79-1.23-3.09-2.47-6.8-6.67-6.12-7.86,1.29-14.87,2.42-17.28,14-2.23,10.81-4.62,11.54-14.53,8.77q-46.42-12.91-93-25.19c-5.28-1.39-9.4,0-12.81,4.24-3.23,4-6.75,7.77-10.22,11.53a15.58,15.58,0,0,1-3,1.94c-.42-1.89-.77-3.18-1-4.48l-11.64-65.52c-.52-2.9-1.27-5-5-4.7-12.12.78-24.25,1.45-36.37,2.14-5.56.34-7.39,2.13-7.87,7.55-.63,7.06-1.06,14.14-1.71,21.18Q581.38,562,579.15,585.07Z" transform="translate(-3.31)"/><path class="cls-6" d="M640.08,10.36c6.24-.67,12.49-1.15,18.72-2C695.16,3.34,731.58,0,768.41,0c17.2.5,33,2,49.6,6.6,22.11,7.79,38.33,25.65,51.16,44.55,22.27,34,37.22,70.91,50.06,109.36a1014.83,1014.83,0,0,1,34.09,144.27c1.06,6.75,3.46,12.47,11.35,9.45,3.07-1.18,3.68.82,4,3.67q5,40.8,10.07,81.6c.11.95.27,1.9.29,2.86.2,9.05,1.84,15.26,11.86,15.93,8.28.55,13.68,8.25,15.24,18.08,1.64,10.08,2.9,20.34,3.67,30.52a25.43,25.43,0,0,1-15.18,24.8c-1.23.53-2.52.91-4.18,1.51.37,3.76.8,7.54,1.12,11.32,1.39,12-3.9,21.79-17,21.24-1.34,0-3.3,2-4,3.61-7.2,17.78-21.93,33.18-41.25,37.19a21.5,21.5,0,0,1-3.1.2c-1-7.56-2.06-15-3-22.35q-8.24-65.53-16.52-131c-1.58-12.36-3.17-24.71-4.7-37.07-.82-6.81-.58-6.93,5.38-7.35a51.16,51.16,0,0,1,35.61,10.9,35.53,35.53,0,0,0,3.72,2.11q-2.12-17.46-4.22-34.93c-.39-3.17-.93-6.32-1.17-9.51-.44-5.69-1.68-9.86-7.11-12.42-2.92-1.38-5.09-7-5.78-11.18-13.29-78-32.15-154.84-69.45-225.15a316.56,316.56,0,0,0-26.8-37.28c-14.75-17.83-37.8-22.6-59.81-23.38C728.91,26.8,686,30.48,643,37c-26.41,4.28-52.88,8.82-78.9,14.37C519.64,60.88,475.48,73.31,433.56,91c-9.13,3.84-18.13,8.57-27,13.11-17.59,9-32,23.6-43.61,39.5-19.44,27.17-34.26,55.89-46.62,86.88a637.17,637.17,0,0,0-32.1,121.26c-.2,1.28.3,2.74-.28,3.87-1.62,3.13-2.84,7.58-5.65,8.86-5.42,2.45-6.47,5.69-7.07,10-1.35,9.74-3,19.48-4.52,29.19-.21,1.34-.21,2.71-.38,5,13-8.54,28.71-14.3,44.53-12.87Q299,472.28,287,548.77c-12.53-1.93-24.74-6.9-33.91-15.79-4-3.93-7.14-8.63-10.29-13.14-1.49-2.14-2.75-3.45-6-3.49-11.12-.13-16.67-5.78-15.16-15,.06-.42.17-.83.24-1.24,1.26-6.73,1.26-6.75-6.26-9.41-8.38-3-13.69-10.26-12.71-18.09.8-6.35,1.84-12.7,3.08-19,1.81-9.26,9-15.16,20.2-16.15,4.5-.4,6.13-1.66,6.72-5.55,3.48-22.67,7.25-45.36,10.82-68.05.45-2.85,1.25-4.05,4.93-3.84,6.58.37,8.59-1.24,9.81-7,4.48-21.94,8.5-44.22,13.95-65.66a502.11,502.11,0,0,1,49.36-123.13,327.05,327.05,0,0,1,42.17-55.92c15.3-15.75,35.41-26.64,55.22-35.6,34.33-15.19,69.72-27,105.81-36.7,10.24-2.74,20.63-5.25,30.91-7.93a17.68,17.68,0,0,0,3.23-1.61Z" transform="translate(-3.31)"/><path class="cls-7" d="M823.08,523c0,7.8-4.33,13.54-8.92,11.83A534.24,534.24,0,0,0,723.1,510c-39-7-79.07-11.22-119-13.39-32.39.53-64.39,4.73-96.41,8.63a726.58,726.58,0,0,0-117.32,24.22c-2.7.8-5.27-2.07-5.27-5.91V431c-.05-11.69,5.41-25.09,16.79-29.19,29-10.45,60.79-18.3,91.52-24.49a642.69,642.69,0,0,1,110.69-12.92,769.44,769.44,0,0,1,82.12,1.17c39.34,2.85,81,8.11,117.19,19.08,14,4.26,20.18,24.43,19.69,38.47Z" transform="translate(-3.31)"/><path class="cls-7" d="M418.41,394.5V523.23" transform="translate(-3.31)"/><path class="cls-7" d="M455.54,388.74V519.62" transform="translate(-3.31)"/><path class="cls-7" d="M492.68,382.85v133" transform="translate(-3.31)"/><path class="cls-7" d="M529.81,376.82V512" transform="translate(-3.31)"/><path class="cls-7" d="M567,370.66V508" transform="translate(-3.31)"/><path class="cls-7" d="M604.08,364.37V503.86" transform="translate(-3.31)"/><path class="cls-7" d="M641,368.25V509.88" transform="translate(-3.31)"/><path class="cls-7" d="M677.87,372.32V516.08" transform="translate(-3.31)"/><path class="cls-7" d="M714.77,376.56v145.9" transform="translate(-3.31)"/><path class="cls-7" d="M751.67,381V529" transform="translate(-3.31)"/><path class="cls-7" d="M788.56,385.57V535.75" transform="translate(-3.31)"/><g id="Layer_2-2" data-name="Layer 2"><path class="cls-2" d="M272.15,911.24q23.44,15.66,47.46,30.35a3.17,3.17,0,0,1,1.16,3.25c-17.76,73-36.19,145.93-54.39,218.88,4.71,8.37,10.36,16.16,15.86,24,9.2-3.73,17.92-10.13,26.17-15.51,15.7-69.34,31.59-138.64,46.91-208.06.42-1.39,1.15-1.81,2.18-1.28,15.49,7.89,31.11,15.48,47.32,21.78a2.56,2.56,0,0,1,1.29,2.75Q386.63,1095,366.76,1202.59c-30.69,21-66.35,36.41-99.44,52.92l-1-.11c-25-23.72-52.85-50.44-69.33-81.39,24.29-87.19,49-174.28,72.86-261.58C270.47,911,271.23,910.62,272.15,911.24Z" transform="translate(-3.31)"/><path class="cls-2" d="M420.63,990.48c17.24,5.56,34.57,10.41,52.16,14.72a2.21,2.21,0,0,1,1.57,2.4l-32.28,253.94a2.16,2.16,0,0,1-2.46,2c-21.6.07-43.16-.26-64.75-.88-1.47-.05-2.09-.76-1.86-2.16q22.75-134.25,45.62-268.5C419.06,990.68,419.73,990.17,420.63,990.48Z" transform="translate(-3.31)"/><path class="cls-2" d="M491.32,1009.28c18,3.53,35.94,6.52,54.07,9.05,1.21.39,1.79,1.09,1.71,2.1L538,1140.85q22.19-12.28,44.25-24.74,2.18-45.73,4.36-91.47a1.64,1.64,0,0,1,2-1.63q27.58,2.21,55.18,3.4c1.26.26,1.88.85,1.88,1.78q-.36,51.8-.7,103.57c-21.35,15.45-45.07,28.18-67.67,41.66,21.94,10.37,46.47,18.36,67.19,31.11q-.18,26.23-.35,52.48l-2.2.32a802.4,802.4,0,0,1-108.85-50.53q-2,26.22-3.94,52.45a2.19,2.19,0,0,1-2.36,2.17q-32.38,2-64.79,2.85c-1.47,0-2.12-.66-2-2.08q14.63-125.67,29.24-251.34C489.64,1009.6,490.32,1009.07,491.32,1009.28Z" transform="translate(-3.31)"/><path class="cls-2" d="M662.64,1027.05q27.63.67,55.25.72c1.26.2,1.92.72,2,1.59q4.71,101.46,9.43,202.94c.05,1.06-.64,1.73-2.08,2q-31.63,6.11-63.42,11.13c-1.45.23-2.18-.22-2.18-1.34l-.84-215.42A1.74,1.74,0,0,1,662.64,1027.05Z" transform="translate(-3.31)"/><path class="cls-2" d="M737.08,1027.72q28.14-.26,56.22-1.43c14,7,28.17,13.56,42.65,19.42l.87-.09c-1.13-8.18-1.7-12.27-2.83-20.45.1-.93.73-1.44,1.87-1.53q27.61-2.28,55.1-5.45c1.41,0,2.17.32,2.3,1l30.84,161.37c.16.84-.52,1.52-2,2q-30.48,10.14-61.27,19.22c-1.53.45-2.36.22-2.49-.7q-7.78-56.3-15.56-112.6c-14.18-6-29.25-10.24-43.68-15.59l-.89.09q7.33,70.21,14.65,140.44c.1,1-.62,1.64-2.17,2q-30.64,7.68-61.51,14.33c-1.44.3-2.18-.06-2.25-1.1q-5.79-99.72-11.6-199.44A1.66,1.66,0,0,1,737.08,1027.72Z" transform="translate(-3.31)"/><path class="cls-2" d="M985.6,1002.3c2.31-.23,3.47-.35,5.78-.6q27.15-5.44,54.08-11.74c1.29-.18,2,0,2.22.5,2.93,8.15,4.4,12.22,7.34,20.37.22.63-.29,1.13-1.56,1.49q-40.44,11.26-81.36,20.41,10.14,38.54,20.29,77.09c.12.47,7.54,1.51,22.35,2.25a220.56,220.56,0,0,0,18.18-16.67c-14.58.45-22.14.39-22.74.59l-.17-.58c11.26-11.24,24.69-20.69,37.11-30.53,13.66-2.53,28.5-1.5,42.28-1.93l6.75,17.86c-23.54,21.07-46.52,45-72.29,63.42-29.65,1.36-60.65,2.5-90-3l-25.59-124.66c.06-.85.6-1.34,1.63-1.48q35.77-4.92,71.25-11.43A15.52,15.52,0,0,0,985.6,1002.3Z" transform="translate(-3.31)"/><path class="cls-2" d="M44.51,1177.58q22,6.12,44,11.84c-1.87-11.05-3.3-22.32-6.08-33.19q-13.77-4-27.48-8.28Q49.74,1162.77,44.51,1177.58ZM3.42,1210.63q21.78-58,43.12-116.13c.5-1,1-1.38,1.54-1.18q29,10.61,58.22,20.66,5.85,41.83,14,83.25,17.85,4.21,35.79,8c.72.15,1,.65.71,1.5q-5.22,18-10.41,36a1.18,1.18,0,0,1-1.45,1Q73.8,1230.85,4,1212.2A1.14,1.14,0,0,1,3.42,1210.63Z" transform="translate(-3.31)"/><path class="cls-2" d="M102.7,1049.88q26.51,11.22,53.18,22c2.53-1.35,6.78-5.07,12.67-11-1.71-10.21-2.88-16.25-3.66-17.9q-25.95-11.64-51.68-23.72c-1.52.68-5.85,4.56-13.15,11.78C100.65,1040.26,101.57,1046.52,102.7,1049.88ZM74,1019.13c14.72-16.1,28.82-33.92,45.49-48.09q33.5,18.06,67.32,35.48c4.24,21.6,6.2,43.79,9.35,65.57l-.41,1.39c-14.57,13.33-27.77,28.36-41.41,42.65l-1.2.3q-37.77-12.71-75.12-26.57C73.94,1066.71,74.36,1042.53,74,1019.13Z" transform="translate(-3.31)"/><path class="cls-2" d="M140,912.56q31.76,20.12,63.82,39.73c1.54-5,2.3-7.53,3.81-12.48.69-2.26,0-9.24-2-20.89-6.68-4.41-10-6.62-16.57-11-.85-.56-1.35-.6-1.5-.11-.75-.86-1.12-1.28-1.85-2.14q-14.49-9.76-28.93-19.62c-7.06,5.92-11.11,10.25-11.92,12.58C142.93,904.13,142,906.92,140,912.56Zm-38.35,31.25q12.86-34.86,25.77-69.7c9-13.42,23.56-24.39,35.48-34.91C184,855,205.1,870.61,226.46,886c3.55,18.49,5.27,37.4,7.65,56.06q-9.5,32.72-19.07,65.4-27-13.87-53.58-28.41c-.91-.5-1.45-.48-1.62.05l-2-2q-28.06-15.46-56-31.24C101.37,945.41,101.29,944.74,101.63,943.81Z" transform="translate(-3.31)"/><path class="cls-8" d="M281.65,904.24q23.44,15.66,47.46,30.35a3.17,3.17,0,0,1,1.16,3.25c-17.76,73-36.19,145.93-54.39,218.88,4.71,8.37,10.36,16.16,15.86,24,9.2-3.73,17.92-10.13,26.17-15.51,15.7-69.34,31.59-138.64,46.91-208.06.42-1.39,1.15-1.81,2.18-1.28,15.49,7.89,31.11,15.48,47.32,21.78a2.56,2.56,0,0,1,1.29,2.75Q396.13,1088,376.26,1195.59c-30.69,21-66.35,36.41-99.44,52.92l-1-.11c-25-23.72-52.85-50.44-69.33-81.39,24.29-87.19,49-174.28,72.86-261.58C280,904,280.73,903.62,281.65,904.24Z" transform="translate(-3.31)"/><path class="cls-8" d="M430.13,983.48c17.24,5.56,34.57,10.41,52.16,14.72a2.21,2.21,0,0,1,1.57,2.4l-32.28,253.94a2.16,2.16,0,0,1-2.46,2c-21.6.07-43.16-.26-64.75-.88-1.47-.05-2.09-.76-1.86-2.16q22.75-134.25,45.62-268.5C428.56,983.68,429.23,983.17,430.13,983.48Z" transform="translate(-3.31)"/><path class="cls-8" d="M500.82,1002.28c18,3.53,35.94,6.52,54.07,9.05,1.21.39,1.79,1.09,1.71,2.1l-9.06,120.42q22.19-12.28,44.25-24.74,2.18-45.73,4.36-91.47a1.64,1.64,0,0,1,2-1.63q27.58,2.21,55.18,3.4c1.26.26,1.88.85,1.88,1.78q-.36,51.8-.7,103.57c-21.35,15.45-45.07,28.18-67.67,41.66,21.94,10.37,46.47,18.36,67.19,31.11q-.18,26.23-.35,52.48l-2.2.32a802.4,802.4,0,0,1-108.85-50.53q-2,26.22-3.94,52.45a2.19,2.19,0,0,1-2.36,2.17q-32.38,2-64.79,2.85c-1.47,0-2.12-.66-2-2.08q14.63-125.67,29.24-251.34C499.14,1002.6,499.82,1002.07,500.82,1002.28Z" transform="translate(-3.31)"/><path class="cls-8" d="M672.14,1020.05q27.63.68,55.25.72c1.26.2,1.92.72,2,1.59q4.71,101.46,9.43,202.94c.05,1.06-.64,1.73-2.08,2q-31.63,6.11-63.42,11.13c-1.45.23-2.18-.22-2.18-1.34l-.84-215.42A1.74,1.74,0,0,1,672.14,1020.05Z" transform="translate(-3.31)"/><path class="cls-8" d="M746.58,1020.72q28.14-.26,56.22-1.43c14,7,28.17,13.56,42.65,19.42l.87-.09c-1.13-8.18-1.7-12.27-2.83-20.45.1-.93.73-1.44,1.87-1.53q27.61-2.28,55.1-5.45c1.41,0,2.17.32,2.3,1l30.84,161.37c.16.84-.52,1.52-2,2q-30.48,10.14-61.27,19.22c-1.53.45-2.36.22-2.49-.7q-7.78-56.3-15.56-112.6c-14.18-6-29.25-10.24-43.68-15.59l-.89.09q7.33,70.21,14.65,140.44c.1,1-.62,1.64-2.17,2q-30.64,7.68-61.51,14.33c-1.44.3-2.18-.06-2.25-1.1q-5.79-99.72-11.6-199.44A1.66,1.66,0,0,1,746.58,1020.72Z" transform="translate(-3.31)"/><path class="cls-8" d="M995.1,995.3c2.31-.23,3.47-.35,5.78-.6Q1028,989.26,1055,983c1.29-.18,2,0,2.22.5,2.93,8.15,4.4,12.22,7.34,20.37.22.63-.29,1.13-1.56,1.49q-40.44,11.26-81.36,20.41,10.14,38.54,20.29,77.09c.12.47,7.54,1.51,22.35,2.25a220.56,220.56,0,0,0,18.18-16.67c-14.58.45-22.14.39-22.74.59l-.17-.58c11.26-11.24,24.69-20.69,37.11-30.53,13.66-2.53,28.5-1.5,42.28-1.93l6.75,17.86c-23.54,21.07-46.52,45-72.29,63.42-29.65,1.36-60.65,2.5-90-3l-25.59-124.66c.06-.85.6-1.34,1.63-1.48q35.77-4.92,71.25-11.43A15.52,15.52,0,0,0,995.1,995.3Z" transform="translate(-3.31)"/><path class="cls-4" d="M54,1170.58q22,6.12,44,11.84c-1.87-11.05-3.3-22.32-6.08-33.19q-13.77-4-27.48-8.28Q59.24,1155.77,54,1170.58Zm-41.09,33.05q21.78-58,43.12-116.13c.5-1,1-1.38,1.54-1.18q29,10.61,58.22,20.66,5.85,41.83,14,83.25,17.85,4.21,35.79,8c.72.15,1,.65.71,1.5q-5.22,18-10.41,36a1.18,1.18,0,0,1-1.45,1q-71.1-13-140.87-31.61A1.14,1.14,0,0,1,12.92,1203.63Z" transform="translate(-3.31)"/><path class="cls-4" d="M112.2,1042.88q26.51,11.22,53.18,22c2.53-1.35,6.78-5.07,12.67-11-1.71-10.21-2.88-16.25-3.66-17.9q-25.95-11.64-51.68-23.72c-1.52.68-5.85,4.56-13.15,11.78C110.15,1033.26,111.07,1039.52,112.2,1042.88Zm-28.75-30.75C98.17,996,112.27,978.21,128.94,964q33.5,18.06,67.32,35.48c4.24,21.6,6.2,43.79,9.35,65.57l-.41,1.39c-14.57,13.33-27.77,28.36-41.41,42.65l-1.2.3q-37.77-12.71-75.12-26.57C83.44,1059.71,83.86,1035.53,83.45,1012.13Z" transform="translate(-3.31)"/><path class="cls-4" d="M149.48,905.56q31.76,20.12,63.82,39.73c1.54-5,2.3-7.53,3.81-12.48.69-2.26,0-9.24-2-20.89-6.68-4.41-10-6.62-16.57-11-.85-.56-1.35-.6-1.5-.11-.75-.86-1.12-1.28-1.85-2.14q-14.49-9.76-28.93-19.62c-7.06,5.92-11.11,10.25-11.92,12.58C152.43,897.13,151.45,899.92,149.48,905.56Zm-38.35,31.25Q124,902,136.9,867.11c9-13.42,23.56-24.39,35.48-34.91C193.46,848,214.6,863.61,236,879c3.55,18.49,5.27,37.4,7.65,56.06q-9.5,32.72-19.07,65.4Q197.58,986.57,171,972c-.91-.5-1.45-.48-1.62.05l-2-2q-28.06-15.46-56-31.24C110.87,938.41,110.79,937.74,111.13,936.81Z" transform="translate(-3.31)"/><path class="cls-9" d="M291.15,897.24q23.44,15.66,47.46,30.35a3.17,3.17,0,0,1,1.16,3.25c-17.76,73-36.19,145.93-54.39,218.88,4.71,8.37,10.36,16.16,15.86,24,9.2-3.73,17.92-10.13,26.17-15.51,15.7-69.34,31.59-138.64,46.91-208.06.42-1.39,1.15-1.81,2.18-1.28,15.49,7.89,31.11,15.48,47.32,21.78a2.56,2.56,0,0,1,1.29,2.75Q405.63,1081,385.76,1188.59c-30.69,21-66.35,36.41-99.44,52.92l-1-.11c-25-23.72-52.85-50.44-69.33-81.39,24.29-87.19,49-174.28,72.86-261.58C289.47,897,290.23,896.62,291.15,897.24Z" transform="translate(-3.31)"/><path class="cls-9" d="M439.63,976.48c17.24,5.56,34.57,10.41,52.16,14.72a2.21,2.21,0,0,1,1.57,2.4l-32.28,253.94a2.16,2.16,0,0,1-2.46,2c-21.6.07-43.16-.26-64.75-.88-1.47-.05-2.09-.76-1.86-2.16q22.75-134.25,45.62-268.5C438.06,976.68,438.73,976.17,439.63,976.48Z" transform="translate(-3.31)"/><path class="cls-9" d="M510.32,995.28c18,3.53,35.94,6.52,54.07,9.05,1.21.39,1.79,1.09,1.71,2.1L557,1126.85q22.19-12.28,44.25-24.74,2.18-45.73,4.36-91.47a1.64,1.64,0,0,1,2-1.63q27.58,2.21,55.18,3.4c1.26.26,1.88.85,1.88,1.78q-.36,51.8-.7,103.57c-21.35,15.45-45.07,28.18-67.67,41.66,21.94,10.37,46.47,18.36,67.19,31.11q-.18,26.23-.35,52.48l-2.2.32a802.4,802.4,0,0,1-108.85-50.53q-2,26.22-3.94,52.45a2.19,2.19,0,0,1-2.36,2.17q-32.38,2-64.79,2.85c-1.47,0-2.12-.66-2-2.08q14.63-125.67,29.24-251.34C508.64,995.6,509.32,995.07,510.32,995.28Z" transform="translate(-3.31)"/><path class="cls-9" d="M681.64,1013.05q27.63.68,55.25.72c1.26.2,1.92.72,2,1.59q4.71,101.46,9.43,202.94c.05,1.06-.64,1.73-2.08,2q-31.63,6.11-63.42,11.13c-1.45.23-2.18-.22-2.18-1.34l-.84-215.42A1.74,1.74,0,0,1,681.64,1013.05Z" transform="translate(-3.31)"/><path class="cls-9" d="M756.08,1013.72q28.14-.26,56.22-1.43c14,7,28.17,13.56,42.65,19.42l.87-.09c-1.13-8.18-1.7-12.27-2.83-20.45.1-.93.73-1.44,1.87-1.53q27.61-2.28,55.1-5.45c1.41,0,2.17.32,2.3,1l30.84,161.37c.16.84-.52,1.52-2,2q-30.48,10.14-61.27,19.22c-1.53.45-2.36.22-2.49-.7q-7.78-56.3-15.56-112.6c-14.18-6-29.25-10.24-43.68-15.59l-.89.09q7.33,70.21,14.65,140.44c.1,1-.62,1.64-2.17,2q-30.64,7.68-61.51,14.33c-1.44.3-2.18-.06-2.25-1.1q-5.79-99.72-11.6-199.44A1.66,1.66,0,0,1,756.08,1013.72Z" transform="translate(-3.31)"/><path class="cls-9" d="M1004.6,988.3c2.31-.23,3.47-.35,5.78-.6q27.15-5.44,54.08-11.74c1.29-.18,2,0,2.22.5,2.93,8.15,4.4,12.22,7.34,20.37.22.63-.29,1.13-1.56,1.49q-40.44,11.26-81.36,20.41,10.14,38.54,20.29,77.09c.12.47,7.54,1.51,22.35,2.25a220.56,220.56,0,0,0,18.18-16.67c-14.58.45-22.14.39-22.74.59l-.17-.58c11.26-11.24,24.69-20.69,37.11-30.53,13.66-2.53,28.5-1.5,42.28-1.93l6.75,17.86c-23.54,21.07-46.52,45-72.29,63.42-29.65,1.36-60.65,2.5-90-3l-25.59-124.66c.06-.85.6-1.34,1.63-1.48q35.77-4.92,71.25-11.43A15.52,15.52,0,0,0,1004.6,988.3Z" transform="translate(-3.31)"/><path class="cls-6" d="M63.51,1163.58q22,6.12,44,11.84c-1.87-11.05-3.3-22.32-6.08-33.19q-13.77-4-27.48-8.28Q68.74,1148.77,63.51,1163.58Zm-41.09,33.05q21.78-58,43.12-116.13c.5-1,1-1.38,1.54-1.18q29,10.61,58.22,20.66,5.85,41.83,14,83.25,17.85,4.21,35.79,8c.72.15,1,.65.71,1.5q-5.22,18-10.41,36a1.18,1.18,0,0,1-1.45,1q-71.1-13-140.87-31.61A1.14,1.14,0,0,1,22.42,1196.63Z" transform="translate(-3.31)"/><path class="cls-6" d="M121.7,1035.88q26.51,11.22,53.18,22c2.53-1.35,6.78-5.07,12.67-11-1.71-10.21-2.88-16.25-3.66-17.9q-25.95-11.64-51.68-23.72c-1.52.68-5.85,4.56-13.15,11.78C119.65,1026.26,120.57,1032.52,121.7,1035.88ZM93,1005.13c14.72-16.1,28.82-33.92,45.49-48.09q33.5,18.06,67.32,35.48c4.24,21.6,6.2,43.79,9.35,65.57l-.41,1.39c-14.57,13.33-27.77,28.36-41.41,42.65l-1.2.3q-37.77-12.71-75.12-26.57C92.94,1052.71,93.36,1028.53,93,1005.13Z" transform="translate(-3.31)"/><path class="cls-6" d="M159,898.56q31.76,20.12,63.82,39.73c1.54-5,2.3-7.53,3.81-12.48.69-2.26,0-9.24-2-20.89-6.68-4.41-10-6.62-16.57-11-.85-.56-1.35-.6-1.5-.11-.75-.86-1.12-1.28-1.85-2.14q-14.49-9.76-28.93-19.62c-7.06,5.92-11.11,10.25-11.92,12.58C161.93,890.13,161,892.92,159,898.56Zm-38.35,31.25q12.85-34.86,25.77-69.7c9-13.42,23.56-24.39,35.48-34.91C203,841,224.1,856.61,245.46,872c3.55,18.49,5.27,37.4,7.65,56.06q-9.5,32.72-19.07,65.4-27-13.87-53.58-28.41c-.91-.5-1.45-.48-1.62.05l-2-2q-28.06-15.46-56-31.24C120.37,931.41,120.29,930.74,120.63,929.81Z" transform="translate(-3.31)"/></g><g id="Layer_8" data-name="Layer 8"><path class="cls-2" d="M407.08,427v94s-10.76-3.23-16-20C386.24,485.53,386,457.76,407.08,427Z" transform="translate(-3.31)"/><polygon class="cls-2" points="440.77 401.03 440.77 512.03 420.77 518.03 420.77 406.03 440.77 401.03"/><polygon class="cls-2" points="457.77 397.03 477.77 392.03 477.77 504.03 457.77 507.03 457.77 397.03"/><polygon class="cls-2" points="494.77 389.03 514.77 385.03 514.77 499.03 494.77 501.03 494.77 389.03"/><polygon class="cls-2" points="531.77 382.03 552.77 379.03 552.77 495.03 531.77 497.03 531.77 382.03"/><polygon class="cls-2" points="568.77 378.03 588.77 377.03 588.77 493.03 568.77 494.03 568.77 378.03"/><polygon class="cls-2" points="605.77 376.03 626.77 376.03 625.77 494.03 605.77 493.03 605.77 376.03"/><polygon class="cls-2" points="643.77 376.03 663.77 377.03 663.77 498.03 642.77 495.03 643.77 376.03"/><polygon class="cls-2" points="679.77 378.03 700.77 380.03 699.77 503.03 679.77 500.03 679.77 378.03"/><path class="cls-10" d="M408.48,425.63v94s-10.76-3.23-16-20C387.64,484.13,387.35,456.36,408.48,425.63Z" transform="translate(-3.31)"/><polygon class="cls-11" points="442.17 399.63 442.17 510.63 422.17 516.63 422.17 404.63 442.17 399.63"/><polygon class="cls-12" points="459.17 395.63 479.17 390.63 479.17 502.63 459.17 505.63 459.17 395.63"/><polygon class="cls-13" points="496.17 387.63 516.17 383.63 516.17 497.63 496.17 499.63 496.17 387.63"/><polygon class="cls-14" points="533.17 380.63 554.17 377.63 554.17 493.63 533.17 495.63 533.17 380.63"/><polygon class="cls-15" points="570.17 376.63 590.17 375.63 590.17 491.63 570.17 492.63 570.17 376.63"/><polygon class="cls-16" points="607.17 374.63 628.17 374.63 627.17 492.63 607.17 491.63 607.17 374.63"/><polygon class="cls-17" points="645.17 374.63 665.17 375.63 665.17 496.63 644.17 493.63 645.17 374.63"/><polygon class="cls-18" points="681.17 376.63 702.17 378.63 701.17 501.63 681.17 498.63 681.17 376.63"/><path class="cls-19" d="M409.88,424.23v94s-10.76-3.23-16-20C389,482.73,388.75,455,409.88,424.23Z" transform="translate(-3.31)"/><polygon class="cls-20" points="443.57 398.23 443.57 509.23 423.57 515.23 423.57 403.23 443.57 398.23"/><polygon class="cls-21" points="460.57 394.23 480.57 389.23 480.57 501.23 460.57 504.23 460.57 394.23"/><polygon class="cls-22" points="497.57 386.23 517.57 382.23 517.57 496.23 497.57 498.23 497.57 386.23"/><polygon class="cls-23" points="534.57 379.23 555.57 376.23 555.57 492.23 534.57 494.23 534.57 379.23"/><polygon class="cls-24" points="571.57 375.23 591.57 374.23 591.57 490.23 571.57 491.23 571.57 375.23"/><polygon class="cls-25" points="608.57 373.23 629.57 373.23 628.57 491.23 608.57 490.23 608.57 373.23"/><polygon class="cls-26" points="646.57 373.23 666.57 374.23 666.57 495.23 645.57 492.23 646.57 373.23"/><polygon class="cls-27" points="682.57 375.23 703.57 377.23 702.57 500.23 682.57 497.23 682.57 375.23"/><path class="cls-28" d="M411.28,422.83v94s-10.76-3.23-16-20C390.44,481.33,390.15,453.56,411.28,422.83Z" transform="translate(-3.31)"/><polygon class="cls-29" points="444.97 396.83 444.97 507.83 424.97 513.83 424.97 401.83 444.97 396.83"/><polygon class="cls-30" points="461.97 392.83 481.97 387.83 481.97 499.83 461.97 502.83 461.97 392.83"/><polygon class="cls-31" points="498.97 384.83 518.97 380.83 518.97 494.83 498.97 496.83 498.97 384.83"/><polygon class="cls-32" points="535.97 377.83 556.97 374.83 556.97 490.83 535.97 492.83 535.97 377.83"/><polygon class="cls-33" points="572.97 373.83 592.97 372.83 592.97 488.83 572.97 489.83 572.97 373.83"/><polygon class="cls-34" points="609.97 371.83 630.97 371.83 629.97 489.83 609.97 488.83 609.97 371.83"/><polygon class="cls-35" points="647.97 371.83 667.97 372.83 667.97 493.83 646.97 490.83 647.97 371.83"/><polygon class="cls-36" points="683.97 373.83 704.97 375.83 703.97 498.83 683.97 495.83 683.97 373.83"/><path class="cls-37" d="M412.68,421.43v94s-10.76-3.23-16-20C391.84,479.93,391.55,452.16,412.68,421.43Z" transform="translate(-3.31)"/><polygon class="cls-38" points="446.37 395.43 446.37 506.43 426.37 512.43 426.37 400.43 446.37 395.43"/><polygon class="cls-39" points="463.37 391.43 483.37 386.43 483.37 498.43 463.37 501.43 463.37 391.43"/><polygon class="cls-40" points="500.37 383.43 520.37 379.43 520.37 493.43 500.37 495.43 500.37 383.43"/><polygon class="cls-41" points="537.37 376.43 558.37 373.43 558.37 489.43 537.37 491.43 537.37 376.43"/><polygon class="cls-42" points="574.37 372.43 594.37 371.43 594.37 487.43 574.37 488.43 574.37 372.43"/><polygon class="cls-43" points="611.37 370.43 632.37 370.43 631.37 488.43 611.37 487.43 611.37 370.43"/><polygon class="cls-44" points="649.37 370.43 669.37 371.43 669.37 492.43 648.37 489.43 649.37 370.43"/><polygon class="cls-45" points="685.37 372.43 706.37 374.43 705.37 497.43 685.37 494.43 685.37 372.43"/><path class="cls-46" d="M414.08,420v94s-10.76-3.23-16-20C393.24,478.53,393,450.76,414.08,420Z" transform="translate(-3.31)"/><polygon class="cls-47" points="447.77 394.03 447.77 505.03 427.77 511.03 427.77 399.03 447.77 394.03"/><polygon class="cls-48" points="464.77 390.03 484.77 385.03 484.77 497.03 464.77 500.03 464.77 390.03"/><polygon class="cls-49" points="501.77 382.03 521.77 378.03 521.77 492.03 501.77 494.03 501.77 382.03"/><polygon class="cls-50" points="538.77 375.03 559.77 372.03 559.77 488.03 538.77 490.03 538.77 375.03"/><polygon class="cls-51" points="575.77 371.03 595.77 370.03 595.77 486.03 575.77 487.03 575.77 371.03"/><polygon class="cls-52" points="612.77 369.03 633.77 369.03 632.77 487.03 612.77 486.03 612.77 369.03"/><polygon class="cls-53" points="650.77 369.03 670.77 370.03 670.77 491.03 649.77 488.03 650.77 369.03"/><polygon class="cls-9" points="686.77 371.03 707.77 373.03 706.77 496.03 686.77 493.03 686.77 371.03"/></g></g></g></svg>