<svg xmlns="http://www.w3.org/2000/svg" viewBox="0 0 819.24 1004.24"><defs><style>.cls-1{fill:#456ef5;}.cls-2{fill:none;stroke:#456ef5;stroke-miterlimit:10;stroke-width:18px;}.cls-3{fill:#f44c00;}.cls-4{fill:#f46d00;}.cls-5{fill:#f49200;}.cls-6{fill:#fbb03b;}.cls-7{fill:#ffdb00;}.cls-8{fill:#f4f612;}.cls-9{fill:#cf0;}.cls-10{fill:#a2ff20;}.cls-11{fill:#0f6;}</style></defs><title>pod_viking_logo_flat</title><g id="Layer_2" data-name="Layer 2"><g id="LOGO"><path class="cls-1" d="M411,656.31c-3.28,1-6.69,1.61-9.74,3-23.65,10.64-47.28,21.26-71.35,31-9.27,3.64-15,7.92-11.77,18.76a8.83,8.83,0,0,1,.06,1.93c.72,16,2.79,31.82,3.47,47.8a14.18,14.18,0,0,0,6.39,11.51q42.42,30.07,84.09,61.19c3.64,2.73,7.1,3.34,10.76,1.53q42.4-21.08,84.18-43.34c3.65-2,5-5,4.56-9.56-1-9.57-1.62-19.18-2.31-28.78-1.21-17.57-5.21-34.64-6.46-52.2-.63-8.09-1.65-9.17-9.23-12.07q-30.82-11.75-61.76-23.19C425.05,661.3,418.18,658.87,411,656.31Zm-196.46-282,1.07,1.11c2.19-.76,4.43-1.39,6.54-2.31,37.58-15.92,76.15-27.7,115.89-36.87a716.06,716.06,0,0,1,117-15.45c28.23-.58,55.13,1.31,82.7,7.63,7.24,1.87,14.36,4.17,21.54,6.3.24-.43.48-.86.73-1.29-2.28-1.63-4.35-3.81-6.88-4.78-8.42-3.23-16.79-6.84-25.56-8.72-30.52-5.85-60.61-8-91.66-8-45.82,1.14-90.64,7.23-135.43,16.76-4.22.93-8.45,1.72-12.68,2.58-1.27-11.25,1.95-16.15,12.78-19.09,29.62-7.87,59.21-14.53,89.56-18.94,49.53-5.83,97.86-4.87,146.84,4.82,3,.65,6.06.94,9.09,1.4.13-.46.25-.93.37-1.39a37.54,37.54,0,0,0-4.62-2.4c-6.46-2.32-12.82-5-19.48-6.6-36.59-7.93-73-9.18-110.34-7.23a839.5,839.5,0,0,0-108.63,15.7,65.46,65.46,0,0,1-6.7.6c6.29-12.72,12.16-25.71,19.17-38a346.54,346.54,0,0,1,23-35.17c8.58-11.36,18.14-21.92,27.32-32.8C302.59,241.55,253.44,304.18,214.55,374.35ZM12.24,727.16c-9.61-1.42,12-20.25,10-27.38-.22-.82,5.91-21,5.89-21.9-.09-4.36-4.74-5,13.11-17.68,8-6,18.41-10.47,27.88-13.34,18.09-6.35,36-13.14,53.83-20.14,7.35-2.9,11.24-8.9,16.5-15.26-24.73-.07-50-4.77-67.89-23.23,21.69-1.85,37.12-15.11,48.66-32.63-6.89-1.14-12.87-2.13-19.31-3.18.31-2.48.52-4.61.85-6.73q3.19-20.24,6.4-40.49Q112,480,115.91,454.86c2.7-17.34,5.47-34.7,8-52,.54-3.72,1.52-5.19,6.13-4.54,9.14,1.28,18.5,2.31,27.35-2.17a15.53,15.53,0,0,0,6.46-5.73c7-13.74,13.49-27.61,21.05-41,45.25-74.64,105.48-139.2,169-198.32a61,61,0,0,1,12.68-9.24c27.72-14.74,60.93-19.75,88.45.75,37.09,26.53,71.83,55.24,103.62,88C597.2,272,628.13,316.9,648.09,370.2c1.72,4.89,4.9,7.17,9.48,6.88q11.46-.72,22.9-2.1c4.11-.49,8.18-1.58,13-2.54Q706,471,718.38,569.49c-8.08,1.18-15.54,2.26-23.45,3.39,1.83,8.79,2.82,16.86,7.66,24.15,4.84,8.19,15.1,15.86,24.45,17.88,5.55,1.47,11.09,3.06,16.63,4.65,1.44.41,2.86,1,5.34,1.81-23.69,11.38-44.65,14.83-70.61,11.4,4.4,8.73,8.53,15.73,15.05,20.23q23.58,16.2,47.26,32.28c14.46,9.55,28.9,18.83,42.65,29.39,19.51,16,26.74,15.86,9.12,37.17-6,7.24-13.5,11.11-23.76,11.32,1.44-2.34,2.06-3.6,2.88-4.63q3.95-5,8.18-9.82c-6.37,3.61-13.73,3.86-20.08-.22-7.3-5.14-12.55-2.16-13.52,7.22a38.88,38.88,0,0,0,.05,6.82c3.14,49.53,41.18,53.91,73,82.35-.11,1.1-.13,1.31-.25,2.42A35.82,35.82,0,0,1,793.22,846c-12.57-5.66-24.59-12.42-36.72-19-4.12-2.18-8-5-12.61-7.86-2.91,17-1.71,35.86,7.81,50.82,9.09,14.71,18.63,29.1,28.06,43.59,1,1.5,1.86,3.06,3.22,5.32-8.75-.11-19.19-4-26.2-9.19-12.56-8.67-22-20.45-31.48-32.17-1.36-1.68-2.81-3.28-4.55-5.3-2,9.21-3.47,17.62-5.5,25.79-11.26,46.23-44.71,71.61-92.44,62-8.32-1.64-16.44-4.54-24.47-11.82,3-.83,5-1.44,7.13-2,6.61-1.82,13.34-3.35,19.81-5.56,14.62-5.17,26.85-16.86,29.74-32.6,1.61-7,.27-14.06-4.52-20.65-6.74-9.28-19.52-14.93-30.68-11.73A64.56,64.56,0,0,0,588,896.34c-18,21.84-12.91,47.21-1,70.28,6.23,10.17,14.52,18.87,23.54,26.6,4,3.45,7.89,7,12.37,11-19.14-1.17-40.41-12.56-55.94-23-28-19.15-48.44-48-55.81-81.29l-1.33-.37q-20.42,40.2-41.34,80.13c-9.88-7.93-19.61-15.66-30-22.92-10.81-4.88-21-8.71-33.12-5.43-9.72,1.75-21.08,7.71-27.73,15.07l-5.41-1.87a52.67,52.67,0,0,0-2.31-6.29q-19.5-38.16-39.5-76.06a35.23,35.23,0,0,0-2.38-3.33c-10.42,18.13-23.28,38.57-43.87,46.36-22.39,9.2-44.57,9.53-68,5.26a8,8,0,0,1,3.45-2.61c7.16-3.61,14.63-6.89,21.4-11.08,16.62-10.8,17.1-26.78,12.89-44.15-7.7-22-23.9-39.33-44-50.75a39,39,0,0,0-9.89-4.39c-16.32-4.37-31.84,9.52-23.85,26.1,6.27,17.49,22.38,29.91,38.63,37.51,3.32,1.58,6.68,3.09,10,4.64-.07.71-.05.58-.13,1.28-7.7-.5-15.37-.67-23.1-1.59-15.18-1.74-28.91-6.06-42.85-12.13-24-11.42-40.4-33-48.6-57.82-1.27-3.88-2.5-7.76-3.92-12.14-2.38,1.12-4.13,2-5.89,2.74-7.54,3.42-14.88,7.11-22.69,10-11.15,4.54-22.08,1.73-33.06-1.24,1-.92,1.6-1.58,2.31-2.18,5.07-4.27,10.5-8.3,15.16-13,9-8.8,16.17-19.66,18.75-32.12,1.39-6.94,1.4-14-3.25-21.45-3.61,1.35-6.77,2.5-9.91,3.68-16.58,5-30.53,6.09-47.74,4.15C12.34,752.63,5.47,749.72,0,743.64c7-2.12,16.82.35,23.24-1.78C33.36,738.4,49.88,737.41,56.5,728c.8-1.14,1.43-2.63,2.06-3.74,4.82-8.61,26.19-18.21,22.37-31.35-3.58-8-9.05-10.33-17.3-7.39-11,3.92-8.27,1.76-5.39,11.91l.06.21c1.25,4.41-1.27,8.59-6,9.91Q32.34,717.5,12.24,727.16Zm416.9-370-.09-1.59c-24.86,3.76-49.76,7.11-74.48,11.72-28.78,5.89-57.34,12.58-85.83,19.74-17.88,4.48-36.24,13.05-48.57,27.19-20.72,25.35-28.93,53.36-21,85.76,2.73,11.7,13.08,18.64,24.6,19.77,8.2,1,16.75,1.73,24.86.74,29.16-3.67,58.2-8,87.25-12.39,19.88-3.12,39.68-6.55,59.67-8.93,42.65-3.17,83.72,3.81,125.56,11.32,20,3.9,39.35,8.24,59.71,9.26,20.08.2,35.27-12.22,40.74-30.63,5.89-19.81,5.39-38.16,1.17-58.8-5.49-22.44-19.61-41.39-42.47-47.93-9.05-2.59-18.16-5.4-27-8.36C512.86,360.49,472,354.51,429.14,357.14ZM382.31,585.07l-1.31.39c-4.72-5.17-9.52-10.24-14.14-15.44-6.3-7.1-6.55-7.13-15.26-3.76-30.32,11.65-60.79,22.87-91.34,33.89-3.63,1.3-5,.2-6.53-2.66-3.84-7.21-8.2-14.18-11.76-21.42a20.26,20.26,0,0,0-17.23-11.16c-4.62-.21-6.37.9-7.73,4.47a110,110,0,0,0-6.63,39.88c.22,25.36,16.77,46.23,39.37,56.47,7.76,3.55,14.47,3.58,21.79.16q54.65-25.67,108.57-52.78a24.35,24.35,0,0,1,9.76-2.9c14.61-.42,29.23-.44,43.85-.65,9.06-.15,17.53.86,25.95,6.12,30.43,19,60.91,37.94,91,57.48,6,4,11.76,4.77,18.07,2.18,23.32-9.42,38.35-29.65,43.51-53.94,2.39-17.43,1-31.07-4.45-47.79-1.23-3.09-2.46-6.8-6.67-6.12-7.86,1.29-14.87,2.42-17.27,14-2.24,10.81-4.63,11.54-14.54,8.77q-46.41-12.91-93-25.19c-5.27-1.39-9.39,0-12.8,4.24-3.24,4-6.75,7.77-10.22,11.53a15.9,15.9,0,0,1-3,1.94c-.43-1.89-.77-3.18-1-4.48q-5.81-32.76-11.64-65.52c-.52-2.9-1.27-5-5-4.7-12.12.78-24.24,1.45-36.37,2.14-5.56.34-7.38,2.13-7.87,7.55-.63,7.06-1.05,14.14-1.7,21.18Q384.54,562,382.31,585.07Z"/><path class="cls-1" d="M443.24,10.36c6.24-.67,12.49-1.15,18.73-2C498.33,3.34,534.75,0,571.58,0c17.2.5,33,2,49.6,6.6,22.1,7.79,38.32,25.65,51.15,44.55,22.27,34,37.22,70.91,50.06,109.36a1016.23,1016.23,0,0,1,34.1,144.27c1.06,6.75,3.45,12.47,11.34,9.45,3.08-1.18,3.68.82,4,3.67q5,40.8,10.07,81.6a27.45,27.45,0,0,1,.3,2.86c.19,9.05,1.83,15.26,11.86,15.93,8.27.55,13.68,8.25,15.23,18.08,1.65,10.08,2.91,20.34,3.67,30.52a25.43,25.43,0,0,1-15.18,24.8c-1.22.53-2.52.91-4.18,1.51.38,3.76.8,7.54,1.13,11.32,1.39,12-3.9,21.79-17,21.24-1.33,0-3.29,2-4,3.61-7.2,17.78-21.92,33.18-41.25,37.19a21.39,21.39,0,0,1-3.1.2c-1-7.56-2.06-15-3-22.35q-8.24-65.53-16.51-131-2.38-18.54-4.71-37.07c-.82-6.81-.58-6.93,5.38-7.35a51.19,51.19,0,0,1,35.62,10.9,36.23,36.23,0,0,0,3.71,2.11q-2.1-17.46-4.22-34.93c-.39-3.17-.93-6.32-1.17-9.51-.43-5.69-1.68-9.86-7.1-12.42-2.93-1.38-5.1-7-5.79-11.18-13.29-78-32.15-154.84-69.45-225.15a316.48,316.48,0,0,0-26.79-37.28c-14.75-17.83-37.81-22.6-59.81-23.38C532.07,26.8,489.2,30.48,446.18,37c-26.4,4.28-52.88,8.82-78.89,14.37C322.8,60.88,278.65,73.31,236.73,91c-9.14,3.84-18.14,8.57-27,13.11-17.6,9-32,23.6-43.62,39.5-19.44,27.17-34.25,55.89-46.62,86.88A637.89,637.89,0,0,0,87.42,351.7c-.21,1.28.29,2.74-.29,3.87-1.61,3.13-2.84,7.58-5.65,8.86-5.42,2.45-6.47,5.69-7.06,10-1.36,9.74-3,19.48-4.52,29.19-.22,1.34-.22,2.71-.38,5,13-8.54,28.71-14.3,44.52-12.87q-11.82,76.53-23.9,153c-12.52-1.93-24.74-6.9-33.9-15.79-4.05-3.93-7.15-8.63-10.29-13.14-1.49-2.14-2.75-3.45-6-3.49-11.12-.13-16.67-5.78-15.16-15,.07-.42.17-.83.25-1.24,1.26-6.73,1.26-6.75-6.27-9.41-8.38-3-13.69-10.26-12.7-18.09.79-6.35,1.84-12.7,3.07-19,1.82-9.26,9-15.16,20.2-16.15,4.51-.4,6.13-1.66,6.73-5.55,3.47-22.67,7.24-45.36,10.82-68.05.44-2.85,1.25-4.05,4.92-3.84,6.58.37,8.6-1.24,9.81-7,4.48-21.94,8.51-44.22,14-65.66a502.11,502.11,0,0,1,49.36-123.13,326.48,326.48,0,0,1,42.16-55.92c15.3-15.75,35.42-26.64,55.22-35.6C256.62,57.47,292,45.61,328.11,36c10.23-2.74,20.62-5.25,30.9-7.93a17.37,17.37,0,0,0,3.23-1.61Z"/><path class="cls-2" d="M626.24,523c0,7.8-4.32,13.54-8.92,11.83A534.38,534.38,0,0,0,526.27,510c-39-7-79.08-11.22-119-13.39-32.39.53-64.39,4.73-96.4,8.63a726.36,726.36,0,0,0-117.32,24.22c-2.71.8-5.28-2.07-5.28-5.91V431c-.05-11.69,5.41-25.09,16.8-29.19,29-10.45,60.78-18.3,91.51-24.49a642.69,642.69,0,0,1,110.69-12.92,769.67,769.67,0,0,1,82.13,1.17c39.33,2.85,81,8.11,117.18,19.08,14,4.26,20.19,24.43,19.69,38.47Z"/><path class="cls-2" d="M221.57,394.5V523.23"/><path class="cls-2" d="M258.7,388.74V519.62"/><path class="cls-2" d="M295.84,382.85v133"/><path class="cls-2" d="M333,376.82V512"/><path class="cls-2" d="M370.11,370.66V508"/><path class="cls-2" d="M407.24,364.37V503.86"/><path class="cls-2" d="M444.14,368.25V509.88"/><path class="cls-2" d="M481,372.32V516.08"/><path class="cls-2" d="M517.93,376.56v145.9"/><path class="cls-2" d="M554.83,381V529"/><path class="cls-2" d="M591.73,385.57V535.75"/><path class="cls-3" d="M214.24,422v94s-10.76-3.23-16-20C193.41,480.53,193.12,452.76,214.24,422Z"/><polygon class="cls-4" points="251.24 396.03 251.24 507.03 231.24 513.03 231.24 401.03 251.24 396.03"/><polygon class="cls-5" points="268.24 392.03 288.24 387.03 288.24 499.03 268.24 502.03 268.24 392.03"/><polygon class="cls-6" points="305.24 384.03 325.24 380.03 325.24 494.03 305.24 496.03 305.24 384.03"/><polygon class="cls-7" points="342.24 377.03 363.24 374.03 363.24 490.03 342.24 492.03 342.24 377.03"/><polygon class="cls-8" points="379.24 373.03 399.24 372.03 399.24 488.03 379.24 489.03 379.24 373.03"/><polygon class="cls-9" points="416.24 371.03 437.24 371.03 436.24 489.03 416.24 488.03 416.24 371.03"/><polygon class="cls-10" points="454.24 371.03 474.24 372.03 474.24 493.03 453.24 490.03 454.24 371.03"/><polygon class="cls-11" points="490.24 373.03 511.24 375.03 510.24 498.03 490.24 495.03 490.24 373.03"/></g></g></svg>