<svg width="410" height="1004" viewBox="0 0 410 1004" fill="none" xmlns="http://www.w3.org/2000/svg">
<path d="M388.304 656.153C385.205 657.153 381.983 657.763 379.102 659.152C356.758 669.79 334.433 680.407 311.692 690.145C302.934 693.784 297.52 698.063 300.572 708.901C300.657 709.54 300.676 710.187 300.628 710.83C301.309 726.826 303.264 742.643 303.907 758.619C303.959 760.91 304.535 763.154 305.587 765.159C306.638 767.163 308.133 768.867 309.944 770.126C336.662 790.168 363.144 810.56 389.39 831.301C392.829 834.031 396.098 834.641 399.556 832.831C426.262 818.781 452.772 804.338 479.088 789.501C482.536 787.502 483.811 784.503 483.396 779.944C482.451 770.376 481.865 760.768 481.213 751.17C480.07 733.605 476.291 716.539 475.11 698.983C474.515 690.895 473.551 689.815 466.39 686.916C446.978 679.084 427.528 671.356 408.04 663.731C401.578 661.142 395.087 658.713 388.304 656.153ZM202.693 374.221L203.704 375.33C205.773 374.57 207.889 373.941 209.882 373.021C245.387 357.105 281.827 345.327 319.373 336.16C355.755 327.801 392.727 322.635 429.912 320.713C456.583 320.133 481.997 322.023 508.045 328.342C514.885 330.211 521.612 332.511 528.396 334.64C528.622 334.21 528.849 333.78 529.085 333.35C526.931 331.721 524.975 329.541 522.585 328.571C514.63 325.342 506.722 321.733 498.437 319.854C469.602 314.005 441.174 311.855 411.838 311.855C368.548 312.995 326.204 319.084 283.887 328.611C279.9 329.541 275.904 330.331 271.907 331.191C270.707 319.944 273.749 315.045 283.981 312.105C311.966 304.237 339.922 297.579 368.596 293.17C415.391 287.341 461.052 288.301 507.327 297.989C510.161 298.639 513.052 298.929 515.915 299.388C516.038 298.929 516.151 298.459 516.265 297.999C514.864 297.093 513.405 296.291 511.9 295.599C505.796 293.28 499.788 290.601 493.495 289.001C458.926 281.073 424.527 279.823 389.249 281.773C354.751 284.63 320.468 289.873 286.617 297.469C284.518 297.784 282.406 297.984 280.287 298.069C286.23 285.352 291.776 272.365 298.399 260.078C304.963 247.903 312.22 236.161 320.129 224.916C328.235 213.559 337.267 203.001 345.94 192.124C285.88 241.492 239.445 304.107 202.702 374.261L202.693 374.221ZM11.5641 726.986C2.48477 725.567 22.9014 706.741 21.0119 699.613C20.804 698.793 26.5955 678.618 26.5766 677.718C26.4916 673.359 22.0984 672.719 38.9627 660.042C46.5209 654.044 56.356 649.575 65.3031 646.705C82.3941 640.357 99.3151 633.569 116.16 626.57C123.105 623.671 126.78 617.672 131.749 611.314C108.385 611.244 84.5104 606.545 67.6083 588.089C88.1006 586.24 102.678 572.983 113.581 555.467C107.072 554.328 101.422 553.338 95.3376 552.288C95.6304 549.809 95.8288 547.679 96.1406 545.56C98.1498 532.07 100.165 518.576 102.187 505.079C104.606 488.283 107.047 471.507 109.509 454.751C112.06 437.415 114.677 420.06 117.067 402.764C117.578 399.045 118.504 397.575 122.859 398.225C131.494 399.505 140.337 400.534 148.699 396.055C151.204 394.795 153.32 392.808 154.802 390.327C161.415 376.59 167.547 362.723 174.689 349.337C217.441 274.714 274.345 210.17 334.357 151.064C337.958 147.452 341.984 144.347 346.337 141.826C372.526 127.09 403.902 122.081 429.902 142.576C464.944 169.1 497.766 197.803 527.8 230.555C564.221 271.935 593.443 316.824 612.301 370.112C613.926 375 616.931 377.28 621.258 376.99C628.476 376.51 635.688 375.81 642.893 374.89C646.776 374.401 650.621 373.311 655.175 372.351C663.067 438.042 670.912 503.71 678.71 569.354C671.076 570.534 664.028 571.613 656.555 572.743C658.284 581.531 659.219 589.599 663.792 596.887C668.364 605.075 678.058 612.744 686.891 614.763C692.135 616.233 697.369 617.822 702.603 619.412C703.964 619.822 705.305 620.412 707.648 621.222C685.266 632.599 665.464 636.048 640.938 632.619C645.094 641.347 648.996 648.345 655.156 652.844C670.008 663.641 684.892 674.399 699.807 685.116C713.468 694.664 727.111 703.942 740.101 714.499C758.534 730.495 765.365 730.355 748.718 751.66C743.049 758.899 735.963 762.768 726.27 762.978C727.63 760.638 728.216 759.379 728.991 758.349C731.479 755.016 734.055 751.744 736.719 748.531C730.701 752.14 723.747 752.39 717.748 748.311C710.851 743.172 705.891 746.152 704.974 755.529C704.801 757.799 704.817 760.081 705.022 762.348C707.988 811.866 743.928 816.245 773.991 844.678C773.887 845.778 773.868 845.988 773.754 847.098C765.771 849.877 757.095 849.414 749.417 845.798C737.541 840.139 726.185 833.381 714.725 826.802C710.832 824.623 707.166 821.804 702.811 818.944C700.062 835.94 701.195 854.796 710.19 869.752C718.778 884.459 727.791 898.845 736.7 913.332C737.645 914.831 738.457 916.391 739.742 918.65C731.476 918.54 721.612 914.651 714.989 909.463C703.123 900.795 694.204 889.018 685.248 877.3C683.963 875.621 682.593 874.021 680.949 872.002C679.059 881.209 677.67 889.617 675.753 897.785C665.114 944.004 633.511 969.378 588.417 959.771C580.557 958.131 572.885 955.232 565.299 947.953C568.133 947.124 570.022 946.514 572.035 945.954C578.28 944.134 584.638 942.605 590.751 940.395C604.564 935.226 616.118 923.539 618.849 907.803C620.37 900.805 619.104 893.746 614.578 887.158C608.21 877.88 596.136 872.232 585.592 875.431C573.838 878.985 563.364 886.195 555.53 896.126C538.523 917.961 543.332 943.325 554.585 966.389C560.471 976.557 568.303 985.255 576.825 992.983C580.604 996.432 584.279 999.981 588.512 1003.98C570.429 1002.81 550.333 991.423 535.661 980.986C509.207 961.84 489.896 932.997 482.933 899.715L481.676 899.345C468.815 926.139 455.796 952.842 442.619 979.456C433.285 971.528 424.092 963.8 414.276 956.541C404.063 951.663 394.435 947.834 382.985 951.113C373.801 952.862 363.069 958.821 356.786 966.179L351.675 964.31C351.074 962.166 350.345 960.066 349.492 958.021C337.21 932.587 324.771 907.24 312.174 881.979C311.486 880.824 310.735 879.713 309.925 878.65C300.08 896.776 287.931 917.211 268.478 924.999C247.324 934.197 226.369 934.527 204.233 930.258C205.072 929.088 206.2 928.185 207.492 927.648C214.257 924.039 221.314 920.76 227.71 916.571C243.413 905.774 243.866 889.797 239.889 872.432C232.614 850.437 217.308 833.111 198.318 821.694C195.412 819.778 192.267 818.301 188.975 817.305C173.556 812.936 158.893 826.822 166.442 843.398C172.365 860.884 187.586 873.301 202.938 880.899C206.075 882.479 209.249 883.989 212.386 885.538C212.32 886.248 212.339 886.118 212.263 886.818C204.988 886.318 197.742 886.148 190.439 885.228C176.097 883.489 163.125 879.17 149.955 873.101C127.281 861.684 111.786 840.109 104.039 815.295C102.839 811.416 101.677 807.537 100.335 803.158C98.0869 804.278 96.4335 805.158 94.7707 805.897C87.6471 809.317 80.7124 813.006 73.3337 815.895C62.7994 820.434 52.473 817.625 42.0993 814.655C43.0441 813.736 43.611 813.076 44.2817 812.476C49.0718 808.207 54.2019 804.178 58.6046 799.479C67.1076 790.681 73.8816 779.824 76.3192 767.367C77.6324 760.428 77.6419 753.37 73.2486 745.922C69.838 747.271 66.8525 748.421 63.8859 749.601C48.2215 754.6 35.0418 755.689 18.7822 753.75C11.6586 752.45 5.16794 749.541 0 743.462C6.61345 741.343 15.8912 743.812 21.9566 741.683C31.5178 738.224 47.1255 737.234 53.38 727.826C54.1358 726.686 54.731 725.197 55.3262 724.087C59.88 715.479 80.0699 705.881 76.4609 692.744C73.0786 684.746 67.9107 682.417 60.1162 685.356C49.7237 689.275 52.3029 687.116 55.0239 697.263L55.0806 697.473C56.2615 701.882 53.8807 706.061 49.4119 707.381C36.84 714.013 24.2241 720.548 11.5641 726.986ZM405.442 357.075L405.357 355.485C381.87 359.244 358.345 362.593 334.99 367.202C307.799 373.091 280.816 379.779 253.9 386.938C237.007 391.416 219.661 399.984 208.012 414.121C188.436 439.465 180.679 467.468 188.171 499.861C190.751 511.558 200.529 518.496 211.413 519.626C219.16 520.626 227.238 521.355 234.9 520.366C262.45 516.697 289.886 512.368 317.332 507.979C336.114 504.859 354.821 501.43 373.707 499.051C414.002 495.882 452.804 502.86 492.333 510.368C511.229 514.267 529.51 518.606 548.746 519.626C567.717 519.826 582.068 507.409 587.236 489.003C592.801 469.198 592.329 450.852 588.342 430.217C583.155 407.783 569.815 388.837 548.217 382.299C539.667 379.709 531.06 376.9 522.708 373.941C484.539 360.404 445.935 354.425 405.442 357.055V357.075ZM361.198 584.93L359.96 585.32C355.501 580.151 350.966 575.083 346.601 569.884C340.649 562.786 340.413 562.756 332.184 566.125C303.538 577.772 274.751 588.989 245.888 600.007C242.458 601.306 241.164 600.207 239.719 597.347C236.091 590.139 231.971 583.171 228.608 575.932C227.08 572.707 224.765 569.972 221.903 568.01C219.041 566.049 215.736 564.932 212.329 564.775C207.965 564.565 206.311 565.675 205.026 569.244C200.629 582.011 198.505 595.529 198.762 609.114C198.97 634.468 214.606 655.333 235.958 665.571C243.29 669.12 249.629 669.15 256.545 665.731C290.966 648.622 325.158 631.033 359.12 612.964C361.966 611.32 365.108 610.332 368.341 610.064C382.144 609.644 395.956 609.624 409.769 609.414C418.329 609.264 426.331 610.274 434.286 615.533C463.036 634.528 491.833 653.464 520.261 672.999C525.93 676.998 531.372 677.768 537.333 675.179C559.365 665.761 573.565 645.536 578.44 621.252C580.698 603.826 579.385 590.189 574.236 573.473C573.074 570.384 571.912 566.675 567.934 567.354C560.508 568.644 553.886 569.774 551.618 581.351C549.502 592.158 547.244 592.888 537.881 590.119C508.65 581.514 479.362 573.12 450.017 564.935C445.038 563.545 441.145 564.935 437.924 569.174C434.862 573.173 431.546 576.942 428.268 580.701C427.395 581.458 426.444 582.109 425.434 582.641C425.027 580.751 424.706 579.462 424.489 578.162C420.829 556.327 417.164 534.492 413.492 512.658C413 509.758 412.292 507.659 408.768 507.959C397.317 508.738 385.866 509.408 374.406 510.098C369.153 510.438 367.434 512.228 366.971 517.646C366.376 524.705 365.979 531.783 365.365 538.821C363.992 554.184 362.603 569.554 361.198 584.93Z" fill="#3A3A3A"/>
<path d="M418.763 10.3575C424.659 9.68768 430.564 9.2078 436.459 8.358C470.811 3.3392 505.22 0 540.016 0C556.266 0.499881 571.194 1.99952 586.877 6.59842C607.757 14.3866 623.081 32.2423 635.203 51.1378C656.243 85.1297 670.367 122.031 682.498 160.472C696.541 207.656 707.309 255.863 714.715 304.707C715.717 311.456 717.975 317.174 725.429 314.155C728.339 312.975 728.906 314.975 729.208 317.824C732.357 345.018 735.529 372.211 738.722 399.405C738.864 400.352 738.958 401.306 739.005 402.264C739.185 411.312 740.734 417.52 750.21 418.19C758.024 418.74 763.135 426.438 764.599 436.266C766.158 446.343 767.349 456.601 768.067 466.778C768.358 471.967 767.139 477.125 764.575 481.559C762.011 485.992 758.224 489.487 753.725 491.573C752.572 492.102 751.344 492.482 749.776 493.082C750.135 496.841 750.532 500.62 750.843 504.399C752.157 516.397 747.159 526.184 734.782 525.634C733.526 525.634 731.674 527.634 731.003 529.243C724.201 547.019 710.294 562.416 692.031 566.425C691.061 566.566 690.082 566.633 689.102 566.625C688.157 559.066 687.156 551.628 686.268 544.28C681.078 500.604 675.878 456.947 670.67 413.311C669.171 400.954 667.687 388.6 666.22 376.25C665.445 369.442 665.672 369.322 671.303 368.902C683.415 367.933 695.429 371.823 704.956 379.799C706.084 380.575 707.254 381.279 708.461 381.909C707.138 370.272 705.809 358.631 704.474 346.987C704.105 343.818 703.595 340.669 703.368 337.479C702.962 331.791 701.781 327.622 696.66 325.062C693.892 323.683 691.842 318.064 691.19 313.885C678.634 235.904 660.816 159.082 625.575 88.7888C618.002 75.7331 609.543 63.2766 600.265 51.5177C586.329 33.6919 564.543 28.9231 543.758 28.1433C502.688 26.7936 462.185 30.4727 421.541 36.9912C396.599 41.2701 371.581 45.8091 347.008 51.3577C304.974 60.8655 263.262 73.2925 223.657 90.9783C215.022 94.8173 206.519 99.5462 198.148 104.085C181.52 113.083 167.915 127.679 156.937 143.576C138.571 170.739 124.578 199.452 112.892 230.435C99.0558 269.678 88.9071 310.267 82.5925 351.616C82.3941 352.896 82.8665 354.355 82.3185 355.485C80.7974 358.614 79.6354 363.063 76.9805 364.343C71.8598 366.792 70.8678 370.032 70.3104 374.341C69.0255 384.078 67.4761 393.816 66.04 403.524C65.8321 404.863 65.8321 406.233 65.681 408.522C77.9631 399.984 92.8056 394.226 107.743 395.655C100.298 446.663 92.7709 497.651 85.1623 548.619C73.3337 546.689 61.7885 541.721 53.1343 532.833C49.308 528.904 46.3792 524.205 43.4126 519.696C42.0048 517.556 40.8144 516.247 37.7439 516.207C27.238 516.077 21.9944 510.428 23.4211 501.21C23.4872 500.79 23.5817 500.38 23.6572 499.97C24.8477 493.242 24.8477 493.222 17.7335 490.563C9.81625 487.563 4.79948 480.305 5.73481 472.477C6.48118 466.129 7.4732 459.78 8.63528 453.482C10.3548 444.224 17.1383 438.325 27.7198 437.335C31.9807 436.936 33.5113 435.676 34.0782 431.787C37.3565 409.122 40.9183 386.438 44.3006 363.753C44.7164 360.904 45.4816 359.704 48.949 359.914C55.1656 360.284 57.074 358.674 58.2172 352.916C62.4498 330.981 66.2573 308.706 71.4441 287.271C81.7756 244.236 97.4572 202.841 118.078 164.171C129.423 144.078 142.777 125.335 157.91 108.264C172.365 92.5179 191.374 81.6305 210.081 72.6726C242.449 57.4563 275.875 45.5991 309.991 35.9914C319.656 33.2521 329.473 30.7427 339.185 28.0633C340.252 27.6403 341.275 27.1009 342.236 26.4537L418.763 10.3575Z" fill="#3A3A3A"/>
<path d="M591.658 522.875C591.658 530.673 587.576 536.412 583.23 534.702C555.304 523.759 526.518 515.452 497.208 509.878C460.362 502.88 422.495 498.661 384.78 496.491C354.178 497.021 323.945 501.22 293.703 505.119C256.189 509.947 219.116 518.046 182.862 529.333C180.301 530.133 177.873 527.264 177.873 523.425V430.897C177.826 419.21 182.985 405.813 193.746 401.714C221.144 391.266 251.169 383.418 280.202 377.23C314.642 369.728 349.633 365.406 384.78 364.313C410.646 363.241 436.548 363.632 462.374 365.483C499.532 368.332 538.901 373.591 573.083 384.558C586.31 388.817 592.159 408.982 591.686 423.019L591.658 522.875Z" stroke="#3A3A3A" stroke-width="18" stroke-miterlimit="10"/>
<path d="M209.334 394.406V523.105" stroke="#3A3A3A" stroke-width="18" stroke-miterlimit="10"/>
<path d="M244.414 388.647V519.496" stroke="#3A3A3A" stroke-width="18" stroke-miterlimit="10"/>
<path d="M279.503 382.759V515.727" stroke="#3A3A3A" stroke-width="18" stroke-miterlimit="10"/>
<path d="M314.611 376.73V511.878" stroke="#3A3A3A" stroke-width="18" stroke-miterlimit="10"/>
<path d="M349.672 370.571V507.879" stroke="#3A3A3A" stroke-width="18" stroke-miterlimit="10"/>
<path d="M384.751 364.283V503.74" stroke="#3A3A3A" stroke-width="18" stroke-miterlimit="10"/>
<path d="M202.409 421.899V515.877C202.409 515.877 192.243 512.647 187.293 495.881C182.73 480.415 182.456 452.652 202.409 421.899Z" fill="#456EF5"/>
<path d="M237.366 395.935V506.909L218.47 512.907V400.934L237.366 395.935Z" fill="#456EF5"/>
<path d="M253.427 391.936L272.323 386.938V498.911L253.427 501.91V391.936Z" fill="#456EF5"/>
<path d="M288.384 383.938L307.28 379.939V493.912L288.384 495.911V383.938Z" fill="#456EF5"/>
<path d="M323.341 376.94L343.181 373.941V489.913L323.341 491.912V376.94Z" fill="#456EF5"/>
<path d="M358.298 372.941L377.193 371.941V487.913L358.298 488.913V372.941Z" fill="#456EF5"/>
<path d="M393.254 370.941H413.095L412.15 488.913L393.254 487.913V370.941Z" fill="#456EF5"/>
</svg>
