<svg width="37" height="14" viewBox="0 0 37 14" fill="none" xmlns="http://www.w3.org/2000/svg">
  <defs>
    <clipPath id="clip0">
      <rect width="25" height="17" fill="white"/>
    </clipPath>
    <style>
      .cls-1{fill:#3A3A3A;}
    </style>
  </defs>
  <path class="cls-1" d="M26.8968 1.5644C26.0369 1.21264 25.1281 1.03613 24.2129 1.04317C21.2533 1.04317 19.1632 2.71692 19.1484 5.11953C19.1299 6.88464 20.6337 7.87934 21.7713 8.4691C22.9384 9.07546 23.3287 9.45756 23.325 9.99955C23.3176 10.824 22.3928 11.1977 21.5326 11.1977C20.3506 11.1977 19.7051 11.0129 18.7118 10.5498L18.3437 10.3567L17.9238 13.1228C18.6433 13.4591 19.94 13.7478 21.2792 13.7727C24.4256 13.7727 26.4825 12.1094 26.5066 9.55308C26.5325 8.14306 25.7186 7.07778 24.0057 6.19729C22.9643 5.62623 22.3188 5.24413 22.3188 4.66476C22.3188 4.15184 22.8718 3.60363 24.0279 3.60363C24.7973 3.58271 25.5619 3.74478 26.2716 4.07917L26.5491 4.21829L26.9689 1.54571L26.8968 1.5644ZM34.5769 1.26744H32.2647C31.5452 1.26744 31.0032 1.48964 30.6888 2.29121L26.242 13.6004H29.3884L30.0174 11.746L33.8573 11.7501C33.948 12.1841 34.2254 13.6004 34.2254 13.6004H37L34.5769 1.26744ZM14.8921 1.16361H17.8905L16.015 13.5028H13.0202L14.8921 1.15946V1.16361ZM7.2805 7.96447L7.59127 9.67768L10.5212 1.26744H13.6972L8.97856 13.5837H5.80997L3.22037 3.15508C3.17842 2.98311 3.07993 2.83543 2.94476 2.74184C2.01139 2.20053 1.02243 1.78977 0 1.51871L0.0406938 1.25914H4.86662C5.52142 1.2882 6.04859 1.51871 6.22431 2.30366L7.27865 7.97071V7.96447H7.2805ZM30.8774 9.22289L32.0723 5.77159C32.0575 5.80897 32.3184 5.05932 32.4701 4.59624L32.6753 5.66152L33.3689 9.22082H30.8755V9.22289H30.8774Z" />
</svg>
