<svg width="25" height="17" viewBox="0 0 25 17" fill="none" xmlns="http://www.w3.org/2000/svg">
<g clip-path="url(#clip0)">
<path d="M11.7714 15.3016C11.8312 15.3536 11.8961 15.4058 11.9596 15.4567C10.6962 16.3119 9.2132 16.7673 7.69679 16.7658C6.68601 16.7666 5.68499 16.5643 4.75096 16.1703C3.81694 15.7763 2.96824 15.1984 2.25339 14.4698C1.53855 13.741 0.971588 12.8758 0.584931 11.9235C0.198275 10.9711 -0.000490885 9.95042 9.10385e-07 8.9197C-0.000130581 7.50011 0.37731 6.10706 1.09213 4.88889C1.80695 3.67074 2.83238 2.67307 4.05921 2.00216C5.28606 1.33125 6.66837 1.01221 8.05896 1.07901C9.44954 1.14581 10.7963 1.59595 11.9559 2.3815C11.8936 2.43615 11.8312 2.48572 11.7839 2.54165C10.8854 3.33275 10.1645 4.31189 9.67027 5.41245C9.17602 6.51302 8.91998 7.70922 8.91955 8.9197C8.91955 11.3664 9.95784 13.6925 11.7714 15.3016ZM17.2071 1.07233C15.6921 1.06932 14.2102 1.52495 12.9492 2.3815C13.0104 2.43615 13.0728 2.48572 13.12 2.54165C14.9424 4.14696 15.9856 6.47423 15.9856 8.9197C15.9856 11.3652 14.9449 13.6899 13.1337 15.3016C13.0728 15.3536 13.0079 15.4058 12.9455 15.4567C14.2079 16.3122 15.6903 16.7676 17.2059 16.7658C18.2246 16.7792 19.2359 16.586 20.1809 16.1976C21.1259 15.8094 21.9857 15.2336 22.7109 14.5036C23.4359 13.7738 24.0116 12.9043 24.4046 11.9458C24.7975 10.9872 24.9999 9.95865 25 8.91971C25.0001 7.88077 24.7979 6.85216 24.405 5.89355C24.0123 4.93494 23.4366 4.0654 22.7118 3.33539C21.9867 2.60539 21.1269 2.02943 20.182 1.64095C19.2371 1.25247 18.2259 1.05919 17.2071 1.07233ZM12.452 2.75518C11.5356 3.48788 10.7949 4.42379 10.2861 5.4919C9.77726 6.55999 9.51369 7.73225 9.51535 8.9197C9.51294 10.1078 9.77616 11.2809 10.285 12.3497C10.7939 13.4186 11.5349 14.3551 12.452 15.088C13.3687 14.3547 14.1097 13.4183 14.6187 12.3495C15.1277 11.2807 15.3915 10.1078 15.3899 8.9197C15.3915 7.7321 15.1279 6.55973 14.6187 5.49158C14.1097 4.42344 13.3687 3.48762 12.452 2.75518Z" fill="#3A3A3A"/>
</g>
<defs>
<clipPath id="clip0">
<rect width="25" height="17" fill="white"/>
</clipPath>
</defs>
</svg>
