<svg width="28" height="20" viewBox="0 0 28 20" fill="none" xmlns="http://www.w3.org/2000/svg">
  <defs>
    <clipPath id="clip0">
      <rect width="25" height="17" fill="white"/>
    </clipPath>
    <style>
      .cls-1{fill:#3A3A3A;}
    </style>
  </defs>
  <path class="cls-1" d="M9.05625 10.0982C9.05625 10.6429 8.58473 11.058 7.9868 11.058C7.53958 11.058 7.20903 10.8259 7.20903 10.3884C7.20903 9.84375 7.67083 9.40625 8.26388 9.40625C8.71597 9.40625 9.05625 9.66071 9.05625 10.0982ZM3.91319 7.93304H3.68473C3.61181 7.93304 3.53888 7.97767 3.52917 8.05358L3.32014 9.24554L3.71875 9.23214C4.25347 9.23214 4.66666 9.16518 4.76388 8.59821C4.87569 8 4.46251 7.93304 3.91319 7.93304ZM17.7188 7.93304H17.5C17.4125 7.93304 17.3542 7.97767 17.3444 8.05358L17.1403 9.24554L17.5292 9.23214C18.1612 9.23214 18.5986 9.09821 18.5986 8.42857C18.5937 7.95536 18.1319 7.93304 17.7188 7.93304ZM28 2.14286V17.8571C28 19.0401 26.9549 20 25.6666 20H2.33334C1.04514 20 0 19.0401 0 17.8571V2.14286C0 0.959821 1.04514 0 2.33334 0H25.6666C26.9549 0 28 0.959821 28 2.14286ZM6.2368 8.1875C6.2368 7.25 5.44931 6.9375 4.55 6.9375H2.60556C2.48403 6.9375 2.36251 7.02679 2.35278 7.14733L1.55556 11.7054C1.54097 11.7946 1.61388 11.8839 1.71112 11.8839H2.63473C2.76597 11.8839 2.88751 11.7545 2.90208 11.6295L3.12083 10.442C3.16944 10.1205 3.76249 10.2321 3.99583 10.2321C5.38612 10.2321 6.2368 9.47321 6.2368 8.1875ZM10.3299 8.58036H9.40625C9.22153 8.58036 9.2118 8.82589 9.20208 8.94642C8.92014 8.56696 8.51181 8.5 8.05 8.5C6.85903 8.5 5.95 9.45983 5.95 10.5179C5.95 11.3884 6.54305 11.9554 7.49097 11.9554C7.92847 11.9554 8.47292 11.7366 8.77917 11.4241C8.75486 11.4911 8.73056 11.6339 8.73056 11.7009C8.73056 11.8036 8.77917 11.8795 8.88612 11.8795H9.72222C9.85347 11.8795 9.96527 11.75 9.98958 11.625L10.4854 8.75446C10.5 8.66964 10.4271 8.58036 10.3299 8.58036ZM12.2986 12.9509L15.3951 8.81696C15.4195 8.79464 15.4195 8.77232 15.4195 8.74107C15.4195 8.66517 15.3466 8.58482 15.2639 8.58482H14.3305C14.2479 8.58482 14.1605 8.62946 14.1118 8.69642L12.8236 10.4375L12.2888 8.76339C12.25 8.66517 12.1431 8.58482 12.0215 8.58482H11.1125C11.0299 8.58482 10.9569 8.66517 10.9569 8.74107C10.9569 8.79464 11.9049 11.2768 11.9875 11.5134C11.8562 11.683 10.991 12.7901 10.991 12.9241C10.991 13.0045 11.0639 13.067 11.1465 13.067H12.0799C12.1674 13.0625 12.25 13.0179 12.2986 12.9509ZM20.0424 8.1875C20.0424 7.25 19.2549 6.9375 18.3556 6.9375H16.4257C16.2944 6.9375 16.1729 7.02679 16.1583 7.14733L15.3708 11.7009C15.3612 11.7902 15.4341 11.8795 15.5264 11.8795H16.5229C16.6202 11.8795 16.6931 11.8125 16.7173 11.7366L16.9361 10.442C16.9847 10.1205 17.5778 10.2321 17.8112 10.2321C19.1917 10.2321 20.0424 9.47321 20.0424 8.1875ZM24.1354 8.58036H23.2118C23.0271 8.58036 23.0173 8.82589 23.0027 8.94642C22.7354 8.56696 22.3222 8.5 21.8507 8.5C20.6597 8.5 19.7507 9.45983 19.7507 10.5179C19.7507 11.3884 20.3437 11.9554 21.2917 11.9554C21.7437 11.9554 22.2882 11.7366 22.5798 11.4241C22.5653 11.4911 22.5312 11.6339 22.5312 11.7009C22.5312 11.8036 22.5798 11.8795 22.6868 11.8795H23.5278C23.659 11.8795 23.7708 11.75 23.7951 11.625L24.291 8.75446C24.3056 8.66964 24.2327 8.58036 24.1354 8.58036ZM26.4444 7.09375C26.4444 7.00446 26.3715 6.9375 26.2888 6.9375H25.3895C25.3166 6.9375 25.2437 6.99108 25.2341 7.05804L24.4466 11.7009L24.4319 11.7232C24.4319 11.8036 24.5049 11.8795 24.6021 11.8795H25.4042C25.5257 11.8795 25.6473 11.75 25.6569 11.625L26.4444 7.10714V7.09375ZM22.0695 9.40625C21.4764 9.40625 21.0146 9.83929 21.0146 10.3884C21.0146 10.8214 21.3549 11.058 21.8021 11.058C22.3854 11.058 22.8569 10.6473 22.8569 10.0982C22.8618 9.66071 22.5215 9.40625 22.0695 9.40625Z" />
</svg>
