<svg width="110" height="110" viewBox="0 0 110 110" fill="none" xmlns="http://www.w3.org/2000/svg">
<path fill-rule="evenodd" clip-rule="evenodd" d="M54.9 108.8C84.6682 108.8 108.8 84.6682 108.8 54.9C108.8 25.1319 84.6682 1 54.9 1C25.1319 1 1 25.1319 1 54.9C1 84.6682 25.1319 108.8 54.9 108.8ZM20.5119 58.0339C20.5308 57.8591 20.6467 57.7365 20.7928 57.7365C20.9335 57.7365 21.0502 57.859 21.072 58.0331L21.6787 62.2546L21.072 66.4042C21.0494 66.5783 20.9342 66.6993 20.7928 66.6993C20.6466 66.6993 20.5308 66.5775 20.5119 66.4027L20 62.2547L20.5119 58.0339ZM23.3801 55.124C23.5277 55.124 23.6474 55.2491 23.6715 55.4304L24.4536 62.2547L23.6707 68.9294C23.6466 69.11 23.5269 69.2358 23.3801 69.2358C23.2311 69.2358 23.1084 69.1067 23.0888 68.9277L22.4007 62.2547C22.4007 62.2547 23.0888 55.432 23.0888 55.4304C23.1091 55.2531 23.2318 55.124 23.3801 55.124ZM33.9857 49.7053C33.9992 49.3866 34.2326 49.1357 34.5149 49.1357C34.7957 49.1357 35.0283 49.3866 35.0449 49.7053L35.6645 62.2603L35.0449 70.3749V70.3725C35.0284 70.6903 34.7957 70.9412 34.5149 70.9412C34.2326 70.9412 34 70.6911 33.9857 70.3741L33.4377 62.2603L33.9857 49.7053ZM28.4916 53.9382C28.509 53.6874 28.6859 53.4994 28.9027 53.4994C29.1172 53.4994 29.2941 53.6874 29.313 53.9365L30.0146 62.257L29.313 70.3054C29.2941 70.5546 29.1172 70.7426 28.9027 70.7426C28.6859 70.7426 28.5082 70.5546 28.4916 70.3054L27.8743 62.257L28.4916 53.9382ZM40.8671 70.2416C40.8528 70.6339 40.5683 70.9404 40.2182 70.9404C39.8659 70.9404 39.5806 70.6331 39.5693 70.2441L39.0928 62.2636L39.5693 45.5499C39.5807 45.1576 39.8659 44.8503 40.219 44.8503C40.569 44.8503 40.8536 45.1568 40.8679 45.549L41.4047 62.2644L40.8671 70.2416ZM52.7826 70.0178C52.7736 70.5474 52.3761 70.978 51.8943 70.978C51.4125 70.978 51.0135 70.5473 51.0059 70.0227C51.0059 70.0227 50.6709 62.2751 50.6709 62.2628L51.0059 42.9652C51.0135 42.4349 51.4117 42.0042 51.8942 42.0042C52.376 42.0042 52.7743 42.4356 52.7825 42.9643L53.1575 62.2693L52.7826 70.0178ZM46.7804 70.1167C46.7691 70.5825 46.4312 70.9478 46.0118 70.9478C45.5895 70.9478 45.2515 70.5825 45.2425 70.1216L44.836 62.2669L45.2417 45.4298C45.2507 44.9641 45.5887 44.5996 46.011 44.5996C46.4304 44.5996 46.7683 44.964 46.7797 45.4298L47.2366 62.2661L46.7804 70.1224V70.1167ZM32.1677 70.3725C32.1489 70.6576 31.9471 70.8742 31.6979 70.8742C31.445 70.8742 31.244 70.6576 31.2275 70.3717L30.6455 62.2571L31.2275 54.5405C31.2432 54.2536 31.445 54.0371 31.6979 54.0371C31.9479 54.0371 32.1497 54.2521 32.1677 54.5372L32.8287 62.2571L32.1677 70.3725ZM26.4809 70.0578C26.4599 70.2736 26.3123 70.4297 26.1302 70.4297C25.9449 70.4297 25.7974 70.2727 25.7793 70.0562L25.1259 62.2554L25.7793 54.1589C25.7981 53.9431 25.9456 53.7862 26.1301 53.7862C26.3122 53.7862 26.4598 53.9424 26.4816 54.1589L27.2232 62.2554L26.4809 70.0578ZM48.1122 46.046C48.1212 45.5426 48.4864 45.1495 48.9418 45.1495C49.3964 45.1495 49.7593 45.5426 49.7698 46.0443L50.1854 62.2686L49.7698 70.0742V70.0677C49.7594 70.571 49.3965 70.9633 48.9418 70.9633C48.4856 70.9633 48.1212 70.5702 48.1122 70.0733L47.7418 62.2677L48.1122 46.046ZM37.9455 70.3226C37.9304 70.6781 37.6707 70.9568 37.356 70.9568C37.0383 70.9568 36.7793 70.6781 36.7666 70.3259L36.2539 62.2627L36.7658 46.8361C36.7794 46.4806 37.0383 46.202 37.356 46.202C37.6707 46.202 37.9296 46.4798 37.9455 46.8361L38.5236 62.2627L37.9455 70.3226ZM43.8121 70.1918V70.195C43.7982 70.6212 43.4885 70.9558 43.1037 70.9558C42.7175 70.9558 42.4058 70.62 42.3953 70.1951L41.9534 62.2644L42.3946 44.9869C42.405 44.557 42.7167 44.2212 43.1037 44.2212C43.4884 44.2212 43.8 44.5579 43.8121 44.9869L44.3089 62.2653L43.8121 70.1918ZM43.8121 70.195V70.196L43.8122 70.1927C43.8122 70.1934 43.8121 70.1942 43.8121 70.195ZM78.0603 53.0311C79.0857 52.5645 80.2111 52.3055 81.3907 52.3055C86.1455 52.3055 89.9999 56.491 90 61.6532C90 66.8152 86.1448 71 81.3901 71C81.2365 71 57.5457 70.9869 57.5238 70.9845C57.0096 70.9281 56.6008 70.4516 56.594 69.8796V40.2162C56.6001 39.6711 56.7732 39.39 57.4229 39.1171C59.0948 38.4151 60.9882 38 62.9304 38C70.868 38 77.3752 44.6077 78.0603 53.0311ZM53.8847 41.2172C53.8922 40.651 54.3168 40.1901 54.834 40.1901C55.3496 40.1901 55.7742 40.651 55.7817 41.2156L56.204 62.2718L55.7817 69.914V69.9051C55.7742 70.4714 55.3496 70.9314 54.834 70.9314C54.3168 70.9314 53.8922 70.4714 53.8854 69.9132L53.4962 62.2718L53.8847 41.2172Z" fill="#FFFFFF"/>
</svg>
