<svg width="108" height="108" viewBox="0 0 108 108" fill="none" xmlns="http://www.w3.org/2000/svg">
<path fill-rule="evenodd" clip-rule="evenodd" d="M54 0C24.1766 0 0 24.1766 0 54C0 83.8234 24.1766 108 54 108C83.8234 108 108 83.8234 108 54C108 24.1766 83.8234 0 54 0ZM76.5044 35.436C78.9828 36.1161 80.9347 38.12 81.5971 40.6647C82.8008 45.2768 82.8008 54.9 82.8008 54.9C82.8008 54.9 82.8008 64.5228 81.5971 69.1353C80.9347 71.68 78.9828 73.6839 76.5044 74.3643C72.0129 75.6 54.0008 75.6 54.0008 75.6C54.0008 75.6 35.9887 75.6 31.4969 74.3643C29.0184 73.6839 27.0666 71.68 26.4042 69.1353C25.2008 64.5228 25.2008 54.9 25.2008 54.9C25.2008 54.9 25.2008 45.2768 26.4042 40.6647C27.0666 38.12 29.0184 36.1161 31.4969 35.436C35.9887 34.2 54.0008 34.2 54.0008 34.2C54.0008 34.2 72.0129 34.2 76.5044 35.436Z" fill="#333333"/>
<path fill-rule="evenodd" clip-rule="evenodd" d="M48.6008 64.8V46.8L63.0008 55.8003L48.6008 64.8Z" fill="#333333"/>
</svg>
