<svg width="108" height="106" viewBox="0 0 108 106" fill="none" xmlns="http://www.w3.org/2000/svg">
<path fill-rule="evenodd" clip-rule="evenodd" d="M54.0983 0.198242C24.334 0.198242 0.198242 24.332 0.198242 54.1048C0.198242 77.9225 15.6422 98.1293 37.0584 105.257C39.7521 105.756 40.7411 104.088 40.7411 102.664C40.7411 101.379 40.6911 97.1322 40.6679 92.6277C25.6729 95.8887 22.5087 86.2673 22.5087 86.2673C20.0569 80.0364 16.5241 78.3796 16.5241 78.3796C11.6337 75.0338 16.8927 75.1025 16.8927 75.1025C22.3052 75.4819 25.1552 80.6577 25.1552 80.6577C29.9625 88.899 37.7644 86.5164 40.8402 85.139C41.3239 81.6557 42.7208 79.2758 44.2622 77.9306C32.2903 76.5674 19.7052 71.9451 19.7052 51.2893C19.7052 45.4038 21.8107 40.5949 25.2587 36.8197C24.6991 35.4611 22.8541 29.9791 25.7809 22.5538C25.7809 22.5538 30.307 21.1049 40.6072 28.0795C44.9067 26.8851 49.5177 26.2861 54.0983 26.2655C58.6789 26.2861 63.2934 26.8851 67.601 28.0795C77.8886 21.1049 82.4086 22.5538 82.4086 22.5538C85.3424 29.9791 83.4966 35.4611 82.937 36.8197C86.393 40.5949 88.4842 45.4038 88.4842 51.2893C88.4842 71.9942 75.875 76.5532 63.8727 77.8877C65.806 79.5606 67.5287 82.8412 67.5287 87.8706C67.5287 95.0826 67.4662 100.888 67.4662 102.664C67.4662 104.099 68.4364 105.78 71.1685 105.25C92.5731 98.1142 107.997 77.9145 107.997 54.1048C107.997 24.332 83.8652 0.198242 54.0983 0.198242Z" fill="#FFFFFF"/>
<path fill-rule="evenodd" clip-rule="evenodd" d="M20.6129 77.5968C20.4942 77.8655 20.0729 77.9449 19.6891 77.761C19.2982 77.5852 19.0786 77.2201 19.2054 76.9514C19.3214 76.6755 19.7436 76.5997 20.1336 76.7827C20.5255 76.9594 20.7486 77.3281 20.6129 77.5968Z" fill="#FFFFFF"/>
<path fill-rule="evenodd" clip-rule="evenodd" d="M22.796 80.0321C22.539 80.2705 22.0364 80.1598 21.6955 79.783C21.3429 79.4072 21.2769 78.9046 21.5375 78.6627C21.8026 78.4244 22.2899 78.536 22.6434 78.9118C22.996 79.2921 23.0647 79.7911 22.796 80.0321Z" fill="#FFFFFF"/>
<path fill-rule="evenodd" clip-rule="evenodd" d="M24.9213 83.1367C24.5911 83.3661 24.0511 83.151 23.7173 82.6716C23.387 82.1922 23.387 81.6173 23.7244 81.387C24.0591 81.1567 24.5911 81.3638 24.9294 81.8396C25.2587 82.3261 25.2587 82.9019 24.9213 83.1367Z" fill="#FFFFFF"/>
<path fill-rule="evenodd" clip-rule="evenodd" d="M27.8329 86.1363C27.5375 86.4621 26.9082 86.3746 26.4477 85.93C25.9764 85.4953 25.8452 84.8785 26.1415 84.5526C26.4405 84.2259 27.0734 84.3179 27.5375 84.7588C28.0052 85.1927 28.148 85.814 27.8329 86.1363Z" fill="#FFFFFF"/>
<path fill-rule="evenodd" clip-rule="evenodd" d="M31.8491 87.8776C31.7188 88.2998 31.1127 88.4918 30.5022 88.3123C29.8926 88.1276 29.4936 87.633 29.6168 87.2063C29.7436 86.7814 30.3523 86.5814 30.9673 86.7734C31.576 86.9573 31.9759 87.4482 31.8491 87.8776Z" fill="#FFFFFF"/>
<path fill-rule="evenodd" clip-rule="evenodd" d="M36.2605 88.2011C36.2757 88.6456 35.758 89.0143 35.1172 89.0215C34.4727 89.0366 33.9515 88.6769 33.9443 88.2395C33.9443 87.7904 34.4504 87.4253 35.0948 87.4146C35.7357 87.4021 36.2605 87.7592 36.2605 88.2011Z" fill="#FFFFFF"/>
<path fill-rule="evenodd" clip-rule="evenodd" d="M40.3652 87.502C40.442 87.9358 39.9966 88.3813 39.3602 88.4991C38.7345 88.6143 38.1552 88.3465 38.0758 87.9162C37.9981 87.4716 38.4516 87.0262 39.0764 86.911C39.7137 86.8003 40.284 87.061 40.3652 87.502Z" fill="#FFFFFF"/>
</svg>
