<svg width="109" height="108" viewBox="0 0 109 108" fill="none" xmlns="http://www.w3.org/2000/svg">
<path fill-rule="evenodd" clip-rule="evenodd" d="M54.6008 0C24.7775 0 0.60083 24.1766 0.60083 54C0.60083 83.8234 24.7775 108 54.6008 108C84.4242 108 108.601 83.8234 108.601 54C108.601 24.1766 84.4242 0 54.6008 0ZM42.7282 25.374C45.7996 25.2342 46.7814 25.2 54.599 25.2C62.4189 25.2 63.3972 25.2342 66.4686 25.374C69.5346 25.5144 71.6287 25.9998 73.4647 26.712C75.3607 27.447 76.9627 28.431 78.5647 30.0331C80.1667 31.6339 81.1507 33.2407 81.8888 35.1349C82.5968 36.9661 83.0828 39.0589 83.2268 42.125C83.3648 45.197 83.4008 46.1786 83.4008 54.0003C83.4008 61.822 83.3648 62.8012 83.2268 65.8732C83.0828 68.9381 82.5968 71.0315 81.8888 72.8633C81.1507 74.7569 80.1667 76.3637 78.5647 77.9645C76.9645 79.5666 75.3601 80.553 73.4665 81.2886C71.6341 82.0008 69.5388 82.4862 66.4728 82.6266C63.4008 82.7664 62.4222 82.8006 54.5999 82.8006C46.7788 82.8006 45.7978 82.7664 42.7258 82.6266C39.6603 82.4862 37.5669 82.0008 35.7345 81.2886C33.8415 80.553 32.2346 79.5666 30.6344 77.9645C29.033 76.3637 28.049 74.7569 27.3128 72.8627C26.6012 71.0315 26.1158 68.9387 25.9748 65.8726C25.8356 62.8006 25.8008 61.822 25.8008 54.0003C25.8008 46.1786 25.8368 45.1964 25.9742 42.1244C26.1122 39.0595 26.5982 36.9661 27.3122 35.1343C28.0502 33.2407 29.0342 31.6339 30.6362 30.0331C32.237 28.4316 33.8439 27.4476 35.7381 26.712C37.5693 25.9998 39.6621 25.5144 42.7282 25.374ZM54.599 25.2C54.6005 25.2 54.602 25.2 54.6035 25.2H54.5945C54.596 25.2 54.5975 25.2 54.599 25.2Z" fill="#333333"/>
<path fill-rule="evenodd" clip-rule="evenodd" d="M52.02 30.3901C52.5217 30.3893 53.0614 30.3896 53.6438 30.3899L54.6037 30.3901C62.2933 30.3901 63.2047 30.4177 66.2414 30.5557C69.0494 30.6841 70.5734 31.1533 71.5886 31.5475C72.9326 32.0696 73.8909 32.6936 74.8983 33.7016C75.9063 34.7096 76.5303 35.6696 77.0535 37.0136C77.4477 38.0276 77.9175 39.5516 78.0453 42.3597C78.1833 45.3957 78.2133 46.3077 78.2133 53.9938C78.2133 61.6799 78.1833 62.5919 78.0453 65.6279C77.9169 68.4359 77.4477 69.9599 77.0535 70.974C76.5315 72.318 75.9063 73.275 74.8983 74.2824C73.8903 75.2904 72.9332 75.9144 71.5886 76.4364C70.5746 76.8324 69.0494 77.3004 66.2414 77.4288C63.2053 77.5668 62.2933 77.5968 54.6037 77.5968C46.9134 77.5968 46.002 77.5668 42.9659 77.4288C40.1579 77.2992 38.6339 76.83 37.6181 76.4358C36.2741 75.9138 35.3141 75.2898 34.306 74.2818C33.298 73.2738 32.674 72.3162 32.1508 70.9716C31.7566 69.9575 31.2868 68.4335 31.159 65.6255C31.021 62.5895 30.9934 61.6775 30.9934 53.9866C30.9934 46.2957 31.021 45.3885 31.159 42.3525C31.2874 39.5444 31.7566 38.0204 32.1508 37.0052C32.6728 35.6612 33.298 34.7012 34.306 33.6932C35.3141 32.6852 36.2741 32.0612 37.6181 31.5379C38.6333 31.1419 40.1579 30.6739 42.9659 30.5449C45.6228 30.4249 46.6524 30.3889 52.02 30.3829V30.3901ZM69.977 35.1721C68.069 35.1721 66.5209 36.7183 66.5209 38.6269C66.5209 40.5349 68.069 42.0829 69.977 42.0829C71.885 42.0829 73.433 40.5349 73.433 38.6269C73.433 36.7189 71.885 35.1709 69.977 35.1709V35.1721ZM39.8136 54.0005C39.8136 45.8326 46.4359 39.2103 54.6038 39.2103H54.6032C62.7711 39.2103 69.3915 45.8326 69.3915 54.0005C69.3915 62.1684 62.7717 68.7876 54.6038 68.7876C46.4359 68.7876 39.8136 62.1684 39.8136 54.0005Z" fill="#333333"/>
<path fill-rule="evenodd" clip-rule="evenodd" d="M54.6038 44.4001C59.9054 44.4001 64.2039 48.698 64.2039 54.0002C64.2039 59.3019 59.9054 63.6003 54.6038 63.6003C49.3015 63.6003 45.0037 59.3019 45.0037 54.0002C45.0037 48.698 49.3015 44.4001 54.6038 44.4001V44.4001Z" fill="#333333"/>
</svg>
