<svg xmlns="http://www.w3.org/2000/svg" viewBox="0 0 1070.23 306.34"><defs><style>.cls-1{fill:#0078ad;}.cls-2{fill:#c0d62e;}.cls-3{fill:#4fa1c6;}</style></defs><title>podviking-typeface-large</title><g id="Layer_2" data-name="Layer 2"><g id="Layer_6" data-name="Layer 6"><path class="cls-1" d="M579,242.79c0-18,.11-36-.08-54,0-4,1.12-5.42,5.09-5.18a108.43,108.43,0,0,0,13.49,0c4-.25,5.15,1.46,5.11,5.24-.16,12.66.11,25.32-.16,38-.08,4.06,1.23,5.07,5.08,4.93,7.82-.28,15.66-.23,23.48,0,3.24.09,4.28-.81,4.23-4.16-.19-12.82,0-25.65-.15-38.48-.07-4.08,1.18-5.76,5.39-5.49a100.39,100.39,0,0,0,13,0c4.1-.26,5.51,1.15,5.46,5.37-.21,17-.08,34-.08,51,0,19-.11,38,.08,57,0,4.28-1.15,6.14-5.64,5.82a102.37,102.37,0,0,0-13,0c-4,.22-5.23-1.41-5.19-5.27.16-14.16-.06-28.32.15-42.48,0-3.56-1-4.5-4.47-4.39-7.82.26-15.66.34-23.48,0-4.16-.19-4.88,1.38-4.83,5.1.2,13.65-.06,27.32.16,41,.07,4.42-1,6.52-5.88,6.11a98.63,98.63,0,0,0-13,0c-3.75.18-4.87-1.34-4.84-5C579.08,279.43,579,261.11,579,242.79Z"/><path class="cls-1" d="M1019.16,215.81c7.11-5.72,14.09-9.5,22.46-10.54,16.23-2,27.68,6.33,28.18,22.58.73,23.8.27,47.64.39,71.46,0,2.67-1.15,3.46-3.63,3.42-5.49-.09-11-.18-16.49,0-3.44.13-4.14-1.39-4.12-4.49.11-18.33.06-36.65,0-55a39.27,39.27,0,0,0-.8-9.42c-1.63-6.55-5.32-9.11-12-8.25-5,.64-8.91,3.47-12.66,6.58-1.85,1.54-1.33,3.64-1.33,5.57,0,20-.12,40,.07,60,0,4-1.2,5.27-5.13,5-5-.31-10-.17-15,0-2.88.07-4.19-.78-4.18-4q.12-55.47,0-110.95c0-3,1-4.24,4-4.16,5.33.14,10.67.18,16,0,3.35-.12,4.29,1.23,4.24,4.42C1019.06,197,1019.16,205.91,1019.16,215.81Z"/><path class="cls-2" d="M83,256.48c-.09-11.83,1.67-22.06,6.85-31.49,7.8-14.17,20.31-20.31,36-19.86,15.82.44,28.06,7.84,34.23,22.56,8.9,21.25,8.89,42.64-4,62.5-8.45,13-21.84,16.89-36.68,15.42-14.61-1.44-25-9.32-31.12-22.63A60.06,60.06,0,0,1,83,256.48Zm57-2c-.37-6-.25-13.22-2.69-20.06-2.5-7-6.62-10-13.27-9.88-6.34.12-11,3.59-12.78,10.55a83,83,0,0,0-.26,39.93c1.86,7.8,7,11.87,13.51,11.68,6.8-.2,11.52-4.23,13.47-11.87C139.52,268.53,139.8,262.05,139.93,254.48Z"/><path class="cls-1" d="M727.22,262c-7.83,0-15.66.1-23.48,0-2.85-.06-3.63.65-3.32,3.68,1.69,16.37,12.23,23.14,30.13,18.86a58.29,58.29,0,0,0,11.21-4.08c3.64-1.71,5.57-.81,6.75,2.87.71,2.21,1.72,4.32,2.61,6.46,2.4,5.77,2.1,7.21-3.43,9.71-13.39,6-27.39,8.23-41.85,4.95-11.78-2.67-20.62-9.58-25-20.92-7.44-19.35-7.42-38.85,2.09-57.52,12.6-24.72,41.91-24.82,56.11-14.81,10.33,7.29,13.84,18.35,15.69,30.08.75,4.74.63,9.62,1.12,14.41s-1.26,6.65-6.18,6.44C742.21,261.8,734.71,262,727.22,262Zm-12-18c4,0,8,0,12,0,1,0,2.67.56,2.65-1.29,0-5.71-.34-11.5-4.46-16-3.63-3.92-8.37-4.45-13.37-3-7.61,2.21-9.62,8.45-11,15.19-.76,3.65-.21,5.66,4.23,5.16A92.41,92.41,0,0,1,715.18,244Z"/><path class="cls-1" d="M822.83,295c-8.7,9.24-19,12.56-31.05,10.2-12.8-2.52-20.92-11.93-21.77-25-1.33-20.62,10-32.88,32.63-35.19,4.47-.45,9-.61,13.45-.93,1.38-.1,3.23.5,3.32-1.87.4-11.56-.43-18.18-14.81-17.63-6.58.26-12.73,2.4-18.78,4.77-3.1,1.22-5,.81-5.91-2.75a69.73,69.73,0,0,0-3.13-9.45c-1.34-3.26-.12-5.22,2.78-6.3,15.3-5.69,30.93-8.26,46.83-3,11.07,3.69,16,12.68,16.15,27.59.13,14.15.19,28.3.27,42.46a36.86,36.86,0,0,0,3.64,15.93c1.42,2.94,1.21,4.9-2.27,6.11a107.86,107.86,0,0,0-12,4.91c-3.42,1.66-5.26.55-6.49-2.66C824.81,299.88,823.88,297.61,822.83,295Zm-3.39-24c0-2.65,0-5.31,0-8,0-1.63-.21-3.1-2.28-3.08-6.68.07-13.36.4-19,4.44-5.25,3.73-6.76,11.22-3.74,17,2.86,5.44,9.1,7.78,15.36,5.77C817.9,284.49,819.45,281.9,819.44,271Z"/><path class="cls-2" d="M233.38,294.91c-8.15,8.76-17.9,12.25-29.18,10.67-20.2-2.83-25.38-19.5-23.74-33.37,1.71-14.54,10.78-23.16,26.66-26.27A87.24,87.24,0,0,1,226,244.1c3.4.07,4.45-1.13,4.06-4.29-.28-2.31-.22-4.66-.57-6.95-.74-5-4-7.44-8.8-8.06-8-1-15.48,1.22-22.88,3.93-6,2.18-6,2.09-8-4-.51-1.58-1.06-3.15-1.58-4.73-2.35-7.09-2-8.27,5-10.56,12.51-4.09,25.35-5.74,38.39-3.29,13.71,2.57,21.1,12,21.35,27.25.21,12.82.11,25.66,0,38.49,0,7.73.66,15.31,4.13,22.35,1.49,3,.56,4.55-2.43,5.63a81.59,81.59,0,0,0-11.05,4.58c-4.19,2.25-6.49,1.06-7.89-3.14C235.12,299.41,234.36,297.56,233.38,294.91ZM230,270.77c0-2.66,0-5.32,0-8,0-1.4-.07-2.8-1.95-2.8-7.36,0-14.74.23-20.68,5.42-4.42,3.85-5.27,11.22-2.23,16.48,2.86,5,8.77,7.09,14.7,5.3C228.25,284.65,230,281.82,230,270.77Z"/><path class="cls-2" d="M477.4,295.23c-5.15,4.43-10.31,8.43-17.11,9.87-16.09,3.41-30.06-3.67-34.48-17.82-5.39-17.25,1.47-32.76,17.31-39,8.34-3.28,17.14-4.13,26-4.15,4.15,0,4.91-1.43,4.86-5.16-.17-11.49-3.7-14.92-15.12-14.4-6.27.28-12.11,2.17-17.8,4.47-4.17,1.68-6.17.63-7.09-3.64a32.4,32.4,0,0,0-2.34-7.09c-2-4.14-.66-6.67,3.43-8.1,13.74-4.81,27.78-7,42.13-3.6,12.74,3.05,19.22,11.4,19.64,25.41.41,13.64.22,27.3.19,41,0,7.23.68,14.28,3.9,20.88,1.48,3,.9,4.91-2.48,6.08a104.87,104.87,0,0,0-11.51,4.77c-3.5,1.71-5.63.87-6.91-2.71C479.21,299.85,478.35,297.71,477.4,295.23Zm-3.55-23.91c0-2.83,0-5.65,0-8.47,0-1.75-.47-3-2.44-2.93-6.51.08-13,.51-18.64,4.2-5.29,3.45-7,10.84-4.18,16.86,2.59,5.49,8.89,8.1,15.13,6.24C472,284.76,473.86,281.9,473.85,271.32Z"/><path class="cls-1" d="M929.44,252.83c0-7.66-.07-15.32,0-23,0-2.58-.81-3.76-3.43-3.43a2.09,2.09,0,0,1-.5,0c-3.9-.46-9.38,1.92-11.35-1.28-2.38-3.85-.61-9.4-.71-14.21a2.27,2.27,0,0,1,2.42-2.55l2-.06c11.53-.37,11.53-.37,11.53-11.78,0-12.83,0-12.83,12.87-12.83,11.68,0,11.6,0,11.72,11.48.05,4.27-1.9,10,.91,12.42,2.4,2.1,7.94.68,12.09.69,12.47,0,12.28,0,10,12.14-.88,4.64-2.76,6.58-7.6,6.06-3.95-.42-8,0-12-.12-2.51-.1-3.49.6-3.47,3.31.12,15.49,0,31,.11,46.47.06,6.11,3,8.43,9.05,7.38a57.63,57.63,0,0,0,9.54-2.83c2.48-.88,4.09-.83,4.75,2.21,1,4.71,2.21,9.38,3.46,14,.7,2.58-.78,3.86-2.72,4.58-11.29,4.2-22.87,6.27-34.64,2.55-10.22-3.22-12.55-12-13.47-21.31C929,272.82,929.54,262.82,929.44,252.83Z"/><path class="cls-2" d="M364.86,255.87c0-8.17-.23-16.34.09-24.49.16-4.1-1.31-5-5.12-5-3.54.05-8.38,2-10.41-1.15-2.62-4-1-9.38-.86-14.17.07-2.4,1.87-2.86,3.89-2.84,3,0,6-.11,9,0,2.62.12,3.5-1,3.45-3.52-.13-5.66.08-11.33-.09-17-.08-3.07,1.12-4.14,4.11-4.06,5.33.14,10.67.13,16,0,3-.06,4.22,1,4.13,4.1-.16,5.49.11,11-.1,16.49-.11,3,.8,4.13,3.91,4,5.66-.22,11.33,0,17-.07,3.61,0,4.7,1.58,3.82,5-4,15.73.05,13-16.26,13.23-8.41.12-8.41,0-8.41,8.41,0,12.83-.11,25.66.08,38.49.14,9.81,2.94,11.82,12.41,9.49.64-.16,1.28-.36,1.91-.56,8.39-2.67,8.4-2.67,10.44,5.71.39,1.62.74,3.25,1.13,4.87,1.75,7.4,1.47,8.1-5.8,10.21-8.87,2.57-17.92,3.87-27.1,2-10.84-2.23-16.46-9.81-17-23.23-.34-8.65-.06-17.32-.06-26Z"/><path class="cls-2" d="M307,305.8a76,76,0,0,1-30.77-7.46c-4-2-5.95-4.48-3.41-9.07,1.91-3.45,1.78-9,5-10.43,3-1.36,6.79,2.54,10.38,3.76,6.76,2.31,13.43,4.93,20.84,3.48,4-.79,6.65-3,7.54-7s-1.12-7.07-4.35-9.32-7.19-3.41-10.9-4.85c-2.79-1.08-5.66-2-8.4-3.16-13.59-5.93-19.81-15.42-18.53-28.15,1.42-14.22,10.89-24.79,24.87-27.59,11.86-2.38,23.14.08,34.16,4.36,3.86,1.5,5.58,3.9,3.07,8.06-1.95,3.25-1.86,8.23-5.08,10s-6.74-1.73-10.28-2.46c-5.42-1.11-10.85-1.9-16.35-1.08-4,.6-7.3,2.43-8,7s1.45,7.42,5.32,9.12,8,3.17,12.05,4.75c2.62,1,5.3,2,7.84,3.2,14.08,6.86,20.12,18.26,17.27,32.4-2.93,14.52-13.49,23.52-28.76,24.49C309.36,305.86,308.19,305.8,307,305.8Z"/><path class="cls-2" d="M.31,244.74c.31-11.91,1.53-24.37,6.38-36.33C17.25,182.39,47,177,68.38,191.89c4,2.81,4.24,5.5,1.47,9.51-6.16,8.88-6,9-15.24,3.63-11.14-6.47-22.56-2.19-26.79,10.12-4,11.78-2.9,24-2.89,36.13A72.16,72.16,0,0,0,27.74,272c4.06,13.62,14.58,18.51,27.55,12.77,10-4.44,10-4.44,15.14,5,2.88,5.31,2.52,6.54-2.91,9.87C41.66,315.49,9.93,302,3.08,272.25,1.05,263.45.4,254.52.31,244.74Z"/><path class="cls-1" d="M63.13,124.08C68.74,92.72,77.24,62,84.05,30.93c1.78-8.11,4-16.13,5.6-24.28C90.55,2,92.81-.07,97.48,0c7.21.11,14.42,0,21.63.06,4.48,0,6.39,1.47,4.91,6.67Q102.41,83,81.24,159.42c-1.08,3.86-3.18,5.6-7.16,5.05a13.11,13.11,0,0,0-1.66,0c-9.4-.17-20.7,2.81-27.69-1.39-7.2-4.32-6.32-16.87-8.8-25.84C24.17,94.82,12.72,52.33,1.19,9.86-1.19,1.08-.59.33,8.39,0c1.66-.06,3.33,0,5,0,22.13,0,22.06,0,26.41,21.3,6.37,31.2,12.87,62.37,19.28,93.56.5,2.44.7,4.93,1,7.4a6.68,6.68,0,0,0,2.3,7.21C63.79,127.78,63.28,125.9,63.13,124.08Z"/><path class="cls-1" d="M696.21,151.64c-11.37,9.47-23.62,14.08-37.4,14.19-19,.14-31.36-10.38-32.61-29.32-2.05-30.74-.42-61.56-.82-92.34-.06-4.27,2.43-5.77,6.08-6.45,6.27-1.16,12.64-2,18.73-3.77s7.65.25,7.59,6.23c-.24,23.57-.1,47.16-.09,70.74,0,2.77,0,5.55.13,8.32.3,7.23,0,15.09,8.17,18.47,9.19,3.8,17.26-.53,25-5,3.47-2,2.1-5.45,2.11-8.3.1-25.8.2-51.6,0-77.4-.05-5.7,1.47-8.79,7.5-9.55a108.49,108.49,0,0,0,17.9-3.58c6.07-1.83,7.14.5,7.08,5.91-.19,20.25-.33,40.5,0,60.75.29,17.39-1.5,35,4.14,52,1.25,3.76-.23,5.68-3.83,6.76a118.66,118.66,0,0,0-14.12,4.84c-7.38,3.27-11.54.87-13.49-6.6C697.89,156,697.22,154.46,696.21,151.64Z"/><path class="cls-1" d="M867,234.43c0-15.15.14-30.31-.09-45.46-.07-4.25,1.35-5.61,5.43-5.33s8.33.06,12.49.07c6.69,0,6.71,0,6.72,6.54q0,38.46,0,76.92c0,2.84-.06,5.67,0,8.5.21,7.57,2.37,9.29,9.61,7.1,3.15-.95,4.52-.52,5.11,2.9a99.08,99.08,0,0,0,3.09,12.58c.78,2.54-.1,3.87-2.26,4.65-9.16,3.3-18.46,4.54-27.78.89-7.13-2.8-10-9-11.19-16a80.92,80.92,0,0,1-1.09-12.91C866.92,261.4,867,247.92,867,234.43Z"/><path class="cls-2" d="M520.14,233.36c0-14.82.1-29.63-.06-44.45,0-3.81,1-5.5,5.09-5.25a94.62,94.62,0,0,0,13.47,0c4.8-.39,6.35,1.29,6.31,6.15-.2,25.63-.09,51.26-.09,76.9,0,3.33-.08,6.66,0,10,.21,6.25,2.77,8.38,8.6,6.31,4.2-1.48,5.66-.14,6.39,3.74a103.82,103.82,0,0,0,2.69,11.14c.9,2.91-.11,4.34-2.77,5.28-7.36,2.61-14.9,3.65-22.56,2.09-9.72-2-14.86-8.48-16.22-19.5-1.57-12.61-.6-25.27-.85-37.9C520.06,243,520.14,238.18,520.14,233.36Z"/><path class="cls-1" d="M598.22,99.36A83.94,83.94,0,0,1,594,128.83c-7.69,23.1-25.29,36.43-48.76,37-24,.61-42.59-11.74-50.83-35.1-7.73-21.91-7.6-44.19,1.12-65.82,8.43-20.92,24.8-31.33,47.15-32,22.18-.67,39.9,10.71,48.85,30.81A80.61,80.61,0,0,1,598.22,99.36Zm-34.13-5.93c-.68-6.35-.72-12.71-2.46-18.92-3-10.77-8.37-15.77-17.44-15.94s-15.31,4.55-17.94,15.21a105.41,105.41,0,0,0,.09,51.75c2.5,9.86,9.06,15,17.5,15s14.71-5.16,17.49-15C564.3,115,564.14,104.2,564.09,93.43Z"/><path class="cls-1" d="M933.56,107.82c-9.71,0-19.44.4-29.12-.14-6.47-.36-7.32,2.34-6.73,7.81,1.61,14.79,11.45,23.68,27,23.66a57.51,57.51,0,0,0,26.36-6.66c5.3-2.72,7.77-1.15,10,4.07,7.41,17.16,6.69,19.1-11.5,24.64-13.4,4.07-27,6-41,3.46-20.26-3.59-33.67-14.94-39.42-34.64-6.93-23.69-6.47-47.14,5-69.48A50.61,50.61,0,0,1,925.12,33c22.54,2.49,35.57,14.13,41.88,37.65,2.67,10,3.27,20.19,3.41,30.47.07,4.83-1.76,6.95-6.9,6.79C953.53,107.6,943.54,107.82,933.56,107.82Zm-17.22-23.6c5.24,0,10.49,0,15.74,0,1.86,0,3.51.25,4.15-2.62,3.29-14.71-9.73-28-23.81-24C904.28,59.94,900.9,66.38,899,74c-2.6,10.25-2.65,10.24,7.43,10.26Z"/><path class="cls-1" d="M284.25,49.65c9.62-8.82,19.63-14.76,31.94-16.44,21.85-3,38.07,9.85,38.42,31.89.49,30.23,0,60.48.26,90.71,0,4.67-2,5.85-5.79,5.9-6.65.07-13.31-.06-20,.06-5,.1-6.45-2.14-6.39-7.08.26-21.08.11-42.17.11-63.25,0-3.33.23-6.68-.05-10-.66-7.85.59-17-8.88-20.61s-17,1.67-24.39,6.87c-3.37,2.38-2.78,5.75-2.78,9,0,25.52-.25,51.05.15,76.56.1,6.63-2,8.49-8.36,8.6-23.72.39-23.47.58-23.79-23.06-.37-26.87,1.54-53.79-1.32-80.63a11.73,11.73,0,0,1-.22-2.48c.61-5.1-6.58-11.12-1.51-14.4C258.41,37,267,35.4,275,33.15c2.79-.79,4.33,2,5.21,4.43C281.52,41.2,282.66,44.89,284.25,49.65Z"/><path class="cls-1" d="M195.21,152.13c-11.51,11.37-25.1,16.09-41,12.62-15.79-3.43-25.4-13.63-27.71-29.27-2.88-19.42,3.3-34.55,17.45-42.44,12.77-7.12,26.85-8.57,41.06-8.65,5.31,0,6.41-1.75,6.37-6.69-.12-14.87-5.49-20-20.43-19-8.45.53-16.29,3.25-24,6.25-4.46,1.73-6.42.47-8-3.85-7.11-18.83-6-21.17,13.84-25.19,12.55-2.54,25.11-4.12,38-2,19.73,3.27,30.46,15,30.75,35.1.25,16.93.05,33.87.06,50.81,0,10.32.73,20.57,5.32,30,2.08,4.28,1.23,6.73-3.37,8.07a61.61,61.61,0,0,0-6.12,2.59C202.37,166.68,202.37,166.67,195.21,152.13Zm-4-31.93c0-3.59,0-7.18,0-10.77,0-2.25-.69-3.7-3.21-3.78-8.65-.27-17.2,0-24.63,5.25a17.54,17.54,0,0,0-5.25,22.19c3.63,7.21,11.24,10.31,19.6,8C188.45,138.08,191.22,133.78,191.21,120.2Z"/><path class="cls-1" d="M802.09,132.07c6.12-31.7,16.52-59.76,24.3-88.56,1.89-7,5-9.89,12.24-7.84,3.16.89,6.58.85,9.86,1.36,10.62,1.64,10.68,1.68,7.23,11.46-12.71,36-25.56,71.94-38.06,108-1.95,5.64-4.66,7.65-10.71,7.57-20.2-.25-20.22,0-26.72-18.82-11.28-32.68-22.34-65.44-33.94-98-2.7-7.58-.92-10.07,6.76-10a52.58,52.58,0,0,0,13.18-1.49c8.66-2.22,12.09,1.06,14.17,9.59C787.27,73.49,796.12,101.18,802.09,132.07Z"/><path class="cls-1" d="M416.41,101.23a80.39,80.39,0,0,0,1.77,18.39c3.67,18.76,20.67,26.37,37.26,16.76,10-5.82,10-5.82,14.05,4.49,5.55,14.23,4.43,16.6-10,21.33-27,8.84-54.38,1.4-67-18.44-9.36-14.69-10.82-31.23-10.09-48,.53-12.52,3.18-24.67,9.35-35.85,16.3-29.57,54.65-33.45,80-18.18,4.83,2.92,6.31,6.79,2.78,11.79-.63.89-1.08,1.92-1.63,2.88C466,68.54,466,68.54,454.17,62.19c-15.84-8.51-30.05-2.62-35,14.57C416.94,84.55,416.29,92.54,416.41,101.23Z"/><path class="cls-1" d="M1025.56,51.44c7.3-8.27,13.9-15.88,24.47-17.71a35.27,35.27,0,0,1,8.23-.78c12,.8,13.89,3.81,9.76,14.92-.68,1.82-1.42,3.62-1.94,5.48-2.13,7.56-4,13.25-14.86,9.58-9.6-3.26-21.48,8.11-21.49,18.36,0,24.14-.23,48.28.15,72.41.1,6.33-2.11,8-8,8.17-24.37.69-24.14.83-24.43-23.35s1.24-48.25-1-72.34a62.84,62.84,0,0,0-4.59-17.61c-1.54-3.83-.72-6.24,3.39-7.67a82.56,82.56,0,0,0,13.81-5.66c6.72-3.8,10.19-1.34,12.39,5.12C1022.66,43.74,1024,47.07,1025.56,51.44Z"/><path class="cls-3" d="M63.13,124.08c.15,1.82.66,3.7-.72,5.41a6.68,6.68,0,0,1-2.3-7.21Z"/></g></g></svg>