<svg xmlns="http://www.w3.org/2000/svg" viewBox="0 0 841.24 1028.24"><defs><style>.cls-1{fill:#fff;}.cls-2{fill:#2c4352;}.cls-3,.cls-5,.cls-7{fill:none;stroke-miterlimit:10;stroke-width:18px;}.cls-3{stroke:#2c4352;}.cls-4{fill:#3959a4;}.cls-5{stroke:#3959a4;}.cls-6{fill:#456ef5;}.cls-7{stroke:#456ef5;}.cls-8{fill:#544542;}.cls-9{fill:#544b42;}.cls-10{fill:#545342;}.cls-11{fill:#55594d;}.cls-12{fill:#566142;}.cls-13{fill:#546745;}.cls-14{fill:#4c6942;}.cls-15{fill:#3f6942;}.cls-16{fill:#2c6942;}.cls-17{fill:#7c4731;}.cls-18{fill:#7c5431;}.cls-19{fill:#7c6331;}.cls-20{fill:#7f6f49;}.cls-21{fill:#808031;}.cls-22{fill:#7c8b38;}.cls-23{fill:#6c8e31;}.cls-24{fill:#518e31;}.cls-25{fill:#2c8e31;}.cls-26{fill:#a44821;}.cls-27{fill:#a45c21;}.cls-28{fill:#a47221;}.cls-29{fill:#a88444;}.cls-30{fill:#ab9e21;}.cls-31{fill:#a4ae2c;}.cls-32{fill:#8cb421;}.cls-33{fill:#64b421;}.cls-34{fill:#2cb421;}.cls-35{fill:#cc4a10;}.cls-36{fill:#cc6510;}.cls-37{fill:#cc8210;}.cls-38{fill:#d29a40;}.cls-39{fill:#d5bd10;}.cls-40{fill:#ccd21f;}.cls-41{fill:#acd910;}.cls-42{fill:#76d910;}.cls-43{fill:#2cd910;}.cls-44{fill:#f44c00;}.cls-45{fill:#f46d00;}.cls-46{fill:#f49200;}.cls-47{fill:#fbb03b;}.cls-48{fill:#ffdb00;}.cls-49{fill:#f4f612;}.cls-50{fill:#cf0;}.cls-51{fill:#a2ff20;}.cls-52{fill:#0f6;}</style></defs><title>pod_viking_logo</title><g id="Layer_2" data-name="Layer 2"><g id="LOGO"><path class="cls-1" d="M631.24,547.43q-110.41-12.06-221-22.4-114.83,15.6-230,28.37,4-68.5,8-137,104.17-16.32,208-34.61,110.53,3.18,221,8Q624.27,468.61,631.24,547.43Z"/><path class="cls-2" d="M411,680.31c-3.28,1-6.69,1.61-9.74,3-23.65,10.64-47.28,21.26-71.35,31-9.27,3.64-15,7.92-11.77,18.76a8.83,8.83,0,0,1,.06,1.93c.72,16,2.79,31.82,3.47,47.8a14.18,14.18,0,0,0,6.39,11.51q42.42,30.07,84.09,61.19c3.64,2.73,7.1,3.34,10.76,1.53q42.4-21.08,84.18-43.34c3.65-2,5-5,4.56-9.56-1-9.57-1.62-19.18-2.31-28.78-1.21-17.57-5.21-34.64-6.46-52.2-.63-8.09-1.65-9.17-9.23-12.07q-30.82-11.75-61.76-23.19C425.05,685.3,418.18,682.87,411,680.31Zm-196.46-282,1.07,1.11c2.19-.76,4.43-1.39,6.54-2.31,37.58-15.92,76.15-27.7,115.89-36.87a716.06,716.06,0,0,1,117-15.45c28.23-.58,55.13,1.31,82.7,7.63,7.24,1.87,14.36,4.17,21.54,6.3.24-.43.48-.86.73-1.29-2.28-1.63-4.35-3.81-6.88-4.78-8.42-3.23-16.79-6.84-25.56-8.72-30.52-5.85-60.61-8-91.66-8-45.82,1.14-90.64,7.23-135.43,16.76-4.22.93-8.45,1.72-12.68,2.58-1.27-11.25,1.95-16.15,12.78-19.09,29.62-7.87,59.21-14.53,89.56-18.94,49.53-5.83,97.86-4.87,146.84,4.82,3,.65,6.06.94,9.09,1.4.13-.46.25-.93.37-1.39a37.54,37.54,0,0,0-4.62-2.4c-6.46-2.32-12.82-5-19.48-6.6-36.59-7.93-73-9.18-110.34-7.23a839.5,839.5,0,0,0-108.63,15.7,65.46,65.46,0,0,1-6.7.6c6.29-12.72,12.16-25.71,19.17-38a346.54,346.54,0,0,1,23-35.17c8.58-11.36,18.14-21.92,27.32-32.8C302.59,265.55,253.44,328.18,214.55,398.35ZM12.24,751.16c-9.61-1.42,12-20.25,10-27.38-.22-.82,5.91-21,5.89-21.9-.09-4.36-4.74-5,13.11-17.68,8-6,18.41-10.47,27.88-13.34,18.09-6.35,36-13.14,53.83-20.14,7.35-2.9,11.24-8.9,16.5-15.26-24.73-.07-50-4.77-67.89-23.23,21.69-1.85,37.12-15.11,48.66-32.63-6.89-1.14-12.87-2.13-19.31-3.18.31-2.48.52-4.61.85-6.73q3.19-20.24,6.4-40.49Q112,504,115.91,478.86c2.7-17.34,5.47-34.7,8-52,.54-3.72,1.52-5.19,6.13-4.54,9.14,1.28,18.5,2.31,27.35-2.17a15.53,15.53,0,0,0,6.46-5.73c7-13.74,13.49-27.61,21.05-41,45.25-74.64,105.48-139.2,169-198.32a61,61,0,0,1,12.68-9.24c27.72-14.74,60.93-19.75,88.45.75,37.09,26.53,71.83,55.24,103.62,88C597.2,296,628.13,340.9,648.09,394.2c1.72,4.89,4.9,7.17,9.48,6.88q11.46-.72,22.9-2.1c4.11-.49,8.18-1.58,13-2.54Q706,495,718.38,593.49c-8.08,1.18-15.54,2.26-23.45,3.39,1.83,8.79,2.82,16.86,7.66,24.15,4.84,8.19,15.1,15.86,24.45,17.88,5.55,1.47,11.09,3.06,16.63,4.65,1.44.41,2.86,1,5.34,1.81-23.69,11.38-44.65,14.83-70.61,11.4,4.4,8.73,8.53,15.73,15.05,20.23q23.58,16.2,47.26,32.28c14.46,9.55,28.9,18.83,42.65,29.39,19.51,16,26.74,15.86,9.12,37.17-6,7.24-13.5,11.11-23.76,11.32,1.44-2.34,2.06-3.6,2.88-4.63q3.95-5,8.18-9.82c-6.37,3.61-13.73,3.86-20.08-.22-7.3-5.14-12.55-2.16-13.52,7.22a38.88,38.88,0,0,0,.05,6.82c3.14,49.53,41.18,53.91,73,82.35-.11,1.1-.13,1.31-.25,2.42A35.82,35.82,0,0,1,793.22,870c-12.57-5.66-24.59-12.42-36.72-19-4.12-2.18-8-5-12.61-7.86-2.91,17-1.71,35.86,7.81,50.82,9.09,14.71,18.63,29.1,28.06,43.59,1,1.5,1.86,3.06,3.22,5.32-8.75-.11-19.19-4-26.2-9.19-12.56-8.67-22-20.45-31.48-32.17-1.36-1.68-2.81-3.28-4.55-5.3-2,9.21-3.47,17.62-5.5,25.79-11.26,46.23-44.71,71.61-92.44,62-8.32-1.64-16.44-4.54-24.47-11.82,3-.83,5-1.44,7.13-2,6.61-1.82,13.34-3.35,19.81-5.56,14.62-5.17,26.85-16.86,29.74-32.6,1.61-7,.27-14.06-4.52-20.65-6.74-9.28-19.52-14.93-30.68-11.73A64.56,64.56,0,0,0,588,920.34c-18,21.84-12.91,47.21-1,70.28,6.23,10.17,14.52,18.87,23.54,26.6,4,3.45,7.89,7,12.37,11-19.14-1.17-40.41-12.56-55.94-23-28-19.15-48.44-48-55.81-81.29l-1.33-.37q-20.42,40.2-41.34,80.13c-9.88-7.93-19.61-15.66-30-22.92-10.81-4.88-21-8.71-33.12-5.43-9.72,1.75-21.08,7.71-27.73,15.07l-5.41-1.87a52.67,52.67,0,0,0-2.31-6.29q-19.5-38.16-39.5-76.06a35.23,35.23,0,0,0-2.38-3.33c-10.42,18.13-23.28,38.57-43.87,46.36-22.39,9.2-44.57,9.53-68,5.26a8,8,0,0,1,3.45-2.61c7.16-3.61,14.63-6.89,21.4-11.08,16.62-10.8,17.1-26.78,12.89-44.15-7.7-22-23.9-39.33-44-50.75a39,39,0,0,0-9.89-4.39c-16.32-4.37-31.84,9.52-23.85,26.1,6.27,17.49,22.38,29.91,38.63,37.51,3.32,1.58,6.68,3.09,10,4.64-.07.71-.05.58-.13,1.28-7.7-.5-15.37-.67-23.1-1.59-15.18-1.74-28.91-6.06-42.85-12.13-24-11.42-40.4-33-48.6-57.82-1.27-3.88-2.5-7.76-3.92-12.14-2.38,1.12-4.13,2-5.89,2.74-7.54,3.42-14.88,7.11-22.69,10-11.15,4.54-22.08,1.73-33.06-1.24,1-.92,1.6-1.58,2.31-2.18,5.07-4.27,10.5-8.3,15.16-13,9-8.8,16.17-19.66,18.75-32.12,1.39-6.94,1.4-14-3.25-21.45-3.61,1.35-6.77,2.5-9.91,3.68-16.58,5-30.53,6.09-47.74,4.15C12.34,776.63,5.47,773.72,0,767.64c7-2.12,16.82.35,23.24-1.78C33.36,762.4,49.88,761.41,56.5,752c.8-1.14,1.43-2.63,2.06-3.74,4.82-8.61,26.19-18.21,22.37-31.35-3.58-8-9.05-10.33-17.3-7.39-11,3.92-8.27,1.76-5.39,11.91l.06.21c1.25,4.41-1.27,8.59-6,9.91Q32.34,741.5,12.24,751.16Zm416.9-370-.09-1.59c-24.86,3.76-49.76,7.11-74.48,11.72-28.78,5.89-57.34,12.58-85.83,19.74-17.88,4.48-36.24,13.05-48.57,27.19-20.72,25.35-28.93,53.36-21,85.76,2.73,11.7,13.08,18.64,24.6,19.77,8.2,1,16.75,1.73,24.86.74,29.16-3.67,58.2-8,87.25-12.39,19.88-3.12,39.68-6.55,59.67-8.93,42.65-3.17,83.72,3.81,125.56,11.32,20,3.9,39.35,8.24,59.71,9.26,20.08.2,35.27-12.22,40.74-30.63,5.89-19.81,5.39-38.16,1.17-58.8-5.49-22.44-19.61-41.39-42.47-47.93-9.05-2.59-18.16-5.4-27-8.36C512.86,384.49,472,378.51,429.14,381.14ZM382.31,609.07l-1.31.39c-4.72-5.17-9.52-10.24-14.14-15.44-6.3-7.1-6.55-7.13-15.26-3.76-30.32,11.65-60.79,22.87-91.34,33.89-3.63,1.3-5,.2-6.53-2.66-3.84-7.21-8.2-14.18-11.76-21.42a20.26,20.26,0,0,0-17.23-11.16c-4.62-.21-6.37.9-7.73,4.47a110,110,0,0,0-6.63,39.88c.22,25.36,16.77,46.23,39.37,56.47,7.76,3.55,14.47,3.58,21.79.16q54.65-25.67,108.57-52.78a24.35,24.35,0,0,1,9.76-2.9c14.61-.42,29.23-.44,43.85-.65,9.06-.15,17.53.86,25.95,6.12,30.43,19,60.91,37.94,91,57.48,6,4,11.76,4.77,18.07,2.18,23.32-9.42,38.35-29.65,43.51-53.94,2.39-17.43,1-31.07-4.45-47.79-1.23-3.09-2.46-6.8-6.67-6.12-7.86,1.29-14.87,2.42-17.27,14-2.24,10.81-4.63,11.54-14.54,8.77q-46.41-12.91-93-25.19c-5.27-1.39-9.39,0-12.8,4.24-3.24,4-6.75,7.77-10.22,11.53a15.9,15.9,0,0,1-3,1.94c-.43-1.89-.77-3.18-1-4.48q-5.81-32.76-11.64-65.52c-.52-2.9-1.27-5-5-4.7-12.12.78-24.24,1.45-36.37,2.14-5.56.34-7.38,2.13-7.87,7.55-.63,7.06-1.05,14.14-1.7,21.18Q384.54,586,382.31,609.07Z"/><path class="cls-2" d="M443.24,34.36c6.24-.67,12.49-1.15,18.73-2,36.36-5,72.78-8.36,109.61-8.35,17.2.5,33,2,49.6,6.6,22.1,7.79,38.32,25.65,51.15,44.55,22.27,34,37.22,70.91,50.06,109.36a1016.23,1016.23,0,0,1,34.1,144.27c1.06,6.75,3.45,12.47,11.34,9.45,3.08-1.18,3.68.82,4,3.67q5,40.8,10.07,81.6a27.45,27.45,0,0,1,.3,2.86c.19,9.05,1.83,15.26,11.86,15.93,8.27.55,13.68,8.25,15.23,18.08,1.65,10.08,2.91,20.34,3.67,30.52a25.43,25.43,0,0,1-15.18,24.8c-1.22.53-2.52.91-4.18,1.51.38,3.76.8,7.54,1.13,11.32,1.39,12-3.9,21.79-17,21.24-1.33,0-3.29,2-4,3.61-7.2,17.78-21.92,33.18-41.25,37.19a21.39,21.39,0,0,1-3.1.2c-1-7.56-2.06-15-3-22.35q-8.24-65.53-16.51-131-2.38-18.54-4.71-37.07c-.82-6.81-.58-6.93,5.38-7.35a51.19,51.19,0,0,1,35.62,10.9,36.23,36.23,0,0,0,3.71,2.11q-2.1-17.46-4.22-34.93c-.39-3.17-.93-6.32-1.17-9.51-.43-5.69-1.68-9.86-7.1-12.42-2.93-1.38-5.1-7-5.79-11.18-13.29-78-32.15-154.84-69.45-225.15a316.48,316.48,0,0,0-26.79-37.28c-14.75-17.83-37.81-22.6-59.81-23.38C532.07,50.8,489.2,54.48,446.18,61c-26.4,4.28-52.88,8.82-78.89,14.37C322.8,84.88,278.65,97.31,236.73,115c-9.14,3.84-18.14,8.57-27,13.11-17.6,9-32,23.6-43.62,39.5-19.44,27.17-34.25,55.89-46.62,86.88A637.89,637.89,0,0,0,87.42,375.7c-.21,1.28.29,2.74-.29,3.87-1.61,3.13-2.84,7.58-5.65,8.86-5.42,2.45-6.47,5.69-7.06,10-1.36,9.74-3,19.48-4.52,29.19-.22,1.34-.22,2.71-.38,5,13-8.54,28.71-14.3,44.52-12.87q-11.82,76.53-23.9,153c-12.52-1.93-24.74-6.9-33.9-15.79-4.05-3.93-7.15-8.63-10.29-13.14-1.49-2.14-2.75-3.45-6-3.49-11.12-.13-16.67-5.78-15.16-15,.07-.42.17-.83.25-1.24,1.26-6.73,1.26-6.75-6.27-9.41-8.38-3-13.69-10.26-12.7-18.09.79-6.35,1.84-12.7,3.07-19,1.82-9.26,9-15.16,20.2-16.15,4.51-.4,6.13-1.66,6.73-5.55,3.47-22.67,7.24-45.36,10.82-68.05.44-2.85,1.25-4.05,4.92-3.84,6.58.37,8.6-1.24,9.81-7,4.48-21.94,8.51-44.22,14-65.66a502.11,502.11,0,0,1,49.36-123.13,326.48,326.48,0,0,1,42.16-55.92c15.3-15.75,35.42-26.64,55.22-35.6C256.62,81.47,292,69.61,328.11,60c10.23-2.74,20.62-5.25,30.9-7.93a17.37,17.37,0,0,0,3.23-1.61Z"/><path class="cls-3" d="M626.24,547c0,7.8-4.32,13.54-8.92,11.83A534.38,534.38,0,0,0,526.27,534c-39-7-79.08-11.22-119-13.39-32.39.53-64.39,4.73-96.4,8.63a726.36,726.36,0,0,0-117.32,24.22c-2.71.8-5.28-2.07-5.28-5.91V455c-.05-11.69,5.41-25.09,16.8-29.19,29-10.45,60.78-18.3,91.51-24.49a642.69,642.69,0,0,1,110.69-12.92,769.67,769.67,0,0,1,82.13,1.17c39.33,2.85,81,8.11,117.18,19.08,14,4.26,20.19,24.43,19.69,38.47Z"/><path class="cls-3" d="M221.57,418.5V547.23"/><path class="cls-3" d="M258.7,412.74V543.62"/><path class="cls-3" d="M295.84,406.85v133"/><path class="cls-3" d="M333,400.82V536"/><path class="cls-3" d="M370.11,394.66V532"/><path class="cls-3" d="M407.24,388.37V527.86"/><path class="cls-3" d="M444.14,392.25V533.88"/><path class="cls-3" d="M481,396.32V540.08"/><path class="cls-3" d="M517.93,400.56v145.9"/><path class="cls-3" d="M554.83,405V553"/><path class="cls-3" d="M591.73,409.57V559.75"/><path class="cls-1" d="M642.24,535.43q-110.41-12.06-221-22.4-114.83,15.6-230,28.37,4-68.5,8-137,104.17-16.32,208-34.61,110.53,3.18,221,8Q635.27,456.61,642.24,535.43Z"/><path class="cls-4" d="M422,668.31c-3.28,1-6.69,1.61-9.74,3-23.65,10.64-47.28,21.26-71.35,31-9.27,3.64-15,7.92-11.77,18.76a8.83,8.83,0,0,1,.06,1.93c.72,16,2.79,31.82,3.47,47.8a14.18,14.18,0,0,0,6.39,11.51q42.42,30.07,84.09,61.19c3.64,2.73,7.1,3.34,10.76,1.53q42.4-21.08,84.18-43.34c3.65-2,5-5,4.56-9.56-1-9.57-1.62-19.18-2.31-28.78-1.21-17.57-5.21-34.64-6.46-52.2-.63-8.09-1.65-9.17-9.23-12.07q-30.82-11.75-61.76-23.19C436.05,673.3,429.18,670.87,422,668.31Zm-196.46-282,1.07,1.11c2.19-.76,4.43-1.39,6.54-2.31,37.58-15.92,76.15-27.7,115.89-36.87a716.06,716.06,0,0,1,117-15.45c28.23-.58,55.13,1.31,82.7,7.63,7.24,1.87,14.36,4.17,21.54,6.3.24-.43.48-.86.73-1.29-2.28-1.63-4.35-3.81-6.88-4.78-8.42-3.23-16.79-6.84-25.56-8.72-30.52-5.85-60.61-8-91.66-8-45.82,1.14-90.64,7.23-135.43,16.76-4.22.93-8.45,1.72-12.68,2.58-1.27-11.25,1.95-16.15,12.78-19.09,29.62-7.87,59.21-14.53,89.56-18.94,49.53-5.83,97.86-4.87,146.84,4.82,3,.65,6.06.94,9.09,1.4.13-.46.25-.93.37-1.39a37.54,37.54,0,0,0-4.62-2.4c-6.46-2.32-12.82-5-19.48-6.6-36.59-7.93-73-9.18-110.34-7.23a839.5,839.5,0,0,0-108.63,15.7,65.46,65.46,0,0,1-6.7.6c6.29-12.72,12.16-25.71,19.17-38a346.54,346.54,0,0,1,23-35.17c8.58-11.36,18.14-21.92,27.32-32.8C313.59,253.55,264.44,316.18,225.55,386.35ZM23.24,739.16c-9.61-1.42,12-20.25,10-27.38-.22-.82,5.91-21,5.89-21.9-.09-4.36-4.74-5,13.11-17.68,8-6,18.41-10.47,27.88-13.34,18.09-6.35,36-13.14,53.83-20.14,7.35-2.9,11.24-8.9,16.5-15.26-24.73-.07-50-4.77-67.89-23.23,21.69-1.85,37.12-15.11,48.66-32.63-6.89-1.14-12.87-2.13-19.31-3.18.31-2.48.52-4.61.85-6.73q3.19-20.24,6.4-40.49Q123,492,126.91,466.86c2.7-17.34,5.47-34.7,8-52,.54-3.72,1.52-5.19,6.13-4.54,9.14,1.28,18.5,2.31,27.35-2.17a15.53,15.53,0,0,0,6.46-5.73c7-13.74,13.49-27.61,21.05-41,45.25-74.64,105.48-139.2,169-198.32a61,61,0,0,1,12.68-9.24c27.72-14.74,60.93-19.75,88.45.75,37.09,26.53,71.83,55.24,103.62,88C608.2,284,639.13,328.9,659.09,382.2c1.72,4.89,4.9,7.17,9.48,6.88q11.46-.72,22.9-2.1c4.11-.49,8.18-1.58,13-2.54Q717,483,729.38,581.49c-8.08,1.18-15.54,2.26-23.45,3.39,1.83,8.79,2.82,16.86,7.66,24.15,4.84,8.19,15.1,15.86,24.45,17.88,5.55,1.47,11.09,3.06,16.63,4.65,1.44.41,2.86,1,5.34,1.81-23.69,11.38-44.65,14.83-70.61,11.4,4.4,8.73,8.53,15.73,15.05,20.23q23.58,16.2,47.26,32.28c14.46,9.55,28.9,18.83,42.65,29.39,19.51,16,26.74,15.86,9.12,37.17-6,7.24-13.5,11.11-23.76,11.32,1.44-2.34,2.06-3.6,2.88-4.63q3.95-5,8.18-9.82c-6.37,3.61-13.73,3.86-20.08-.22-7.3-5.14-12.55-2.16-13.52,7.22a38.88,38.88,0,0,0,.05,6.82c3.14,49.53,41.18,53.91,73,82.35-.11,1.1-.13,1.31-.25,2.42A35.82,35.82,0,0,1,804.22,858c-12.57-5.66-24.59-12.42-36.72-19-4.12-2.18-8-5-12.61-7.86-2.91,17-1.71,35.86,7.81,50.82,9.09,14.71,18.63,29.1,28.06,43.59,1,1.5,1.86,3.06,3.22,5.32-8.75-.11-19.19-4-26.2-9.19-12.56-8.67-22-20.45-31.48-32.17-1.36-1.68-2.81-3.28-4.55-5.3-2,9.21-3.47,17.62-5.5,25.79-11.26,46.23-44.71,71.61-92.44,62-8.32-1.64-16.44-4.54-24.47-11.82,3-.83,5-1.44,7.13-2,6.61-1.82,13.34-3.35,19.81-5.56,14.62-5.17,26.85-16.86,29.74-32.6,1.61-7,.27-14.06-4.52-20.65-6.74-9.28-19.52-14.93-30.68-11.73A64.56,64.56,0,0,0,599,908.34c-18,21.84-12.91,47.21-1,70.28,6.23,10.17,14.52,18.87,23.54,26.6,4,3.45,7.89,7,12.37,11-19.14-1.17-40.41-12.56-55.94-23-28-19.15-48.44-48-55.81-81.29l-1.33-.37q-20.41,40.2-41.34,80.13c-9.88-7.93-19.61-15.66-30-22.92-10.81-4.88-21-8.71-33.12-5.43-9.72,1.75-21.08,7.71-27.73,15.07l-5.41-1.87a52.67,52.67,0,0,0-2.31-6.29q-19.5-38.16-39.5-76.06a35.23,35.23,0,0,0-2.38-3.33c-10.42,18.13-23.28,38.57-43.87,46.36-22.39,9.2-44.57,9.53-68,5.26a8,8,0,0,1,3.45-2.61c7.16-3.61,14.63-6.89,21.4-11.08,16.62-10.8,17.1-26.78,12.89-44.15-7.7-22-23.9-39.33-44-50.75a39,39,0,0,0-9.89-4.39c-16.32-4.37-31.84,9.52-23.85,26.1,6.27,17.49,22.38,29.91,38.63,37.51,3.32,1.58,6.68,3.09,10,4.64-.07.71-.05.58-.13,1.28-7.7-.5-15.37-.67-23.1-1.59-15.18-1.74-28.91-6.06-42.85-12.13-24-11.42-40.4-33-48.6-57.82-1.27-3.88-2.5-7.76-3.92-12.14-2.38,1.12-4.13,2-5.89,2.74-7.54,3.42-14.88,7.11-22.69,10-11.15,4.54-22.08,1.73-33.06-1.24,1-.92,1.6-1.58,2.31-2.18,5.07-4.27,10.5-8.3,15.16-13,9-8.8,16.17-19.66,18.75-32.12,1.39-6.94,1.4-14-3.25-21.45-3.61,1.35-6.77,2.5-9.91,3.68-16.58,5-30.53,6.09-47.74,4.15-7.57-1.36-14.44-4.27-19.91-10.35,7-2.12,16.82.35,23.24-1.78C44.36,750.4,60.88,749.41,67.5,740c.8-1.14,1.43-2.63,2.06-3.74,4.82-8.61,26.19-18.21,22.37-31.35-3.58-8-9.05-10.33-17.3-7.39-11,3.92-8.27,1.76-5.39,11.91l.06.21c1.25,4.41-1.27,8.59-6,9.91Q43.34,729.5,23.24,739.16Zm416.9-370-.09-1.59c-24.86,3.76-49.76,7.11-74.48,11.72-28.78,5.89-57.34,12.58-85.83,19.74-17.88,4.48-36.24,13.05-48.57,27.19-20.72,25.35-28.93,53.36-21,85.76,2.73,11.7,13.08,18.64,24.6,19.77,8.2,1,16.75,1.73,24.86.74,29.16-3.67,58.2-8,87.25-12.39,19.88-3.12,39.68-6.55,59.67-8.93,42.65-3.17,83.72,3.81,125.56,11.32,20,3.9,39.35,8.24,59.71,9.26,20.08.2,35.27-12.22,40.74-30.63,5.89-19.81,5.39-38.16,1.17-58.8-5.49-22.44-19.61-41.39-42.47-47.93-9.05-2.59-18.16-5.4-27-8.36C523.86,372.49,483,366.51,440.14,369.14ZM393.31,597.07l-1.31.39c-4.72-5.17-9.52-10.24-14.14-15.44-6.3-7.1-6.55-7.13-15.26-3.76-30.32,11.65-60.79,22.87-91.34,33.89-3.63,1.3-5,.2-6.53-2.66-3.84-7.21-8.2-14.18-11.76-21.42a20.26,20.26,0,0,0-17.23-11.16c-4.62-.21-6.37.9-7.73,4.47a110,110,0,0,0-6.63,39.88c.22,25.36,16.77,46.23,39.37,56.47,7.76,3.55,14.47,3.58,21.79.16q54.65-25.67,108.57-52.78a24.35,24.35,0,0,1,9.76-2.9c14.61-.42,29.23-.44,43.85-.65,9.06-.15,17.53.86,25.95,6.12,30.43,19,60.91,37.94,91,57.48,6,4,11.76,4.77,18.07,2.18,23.32-9.42,38.35-29.65,43.51-53.94,2.39-17.43,1-31.07-4.45-47.79-1.23-3.09-2.46-6.8-6.67-6.12-7.86,1.29-14.87,2.42-17.27,14-2.24,10.81-4.63,11.54-14.54,8.77q-46.41-12.91-93-25.19c-5.27-1.39-9.39,0-12.8,4.24-3.24,4-6.75,7.77-10.22,11.53a15.9,15.9,0,0,1-3,1.94c-.43-1.89-.77-3.18-1-4.48q-5.81-32.76-11.64-65.52c-.52-2.9-1.27-5-5-4.7-12.12.78-24.24,1.45-36.37,2.14-5.56.34-7.38,2.13-7.87,7.55-.63,7.06-1.05,14.14-1.7,21.18Q395.54,574,393.31,597.07Z"/><path class="cls-4" d="M454.24,22.36c6.24-.67,12.49-1.15,18.73-2,36.36-5,72.78-8.36,109.61-8.35,17.2.5,33,2,49.6,6.6,22.1,7.79,38.32,25.65,51.15,44.55,22.27,34,37.22,70.91,50.06,109.36a1016.23,1016.23,0,0,1,34.1,144.27c1.06,6.75,3.45,12.47,11.34,9.45,3.08-1.18,3.68.82,4,3.67q5,40.8,10.07,81.6a27.45,27.45,0,0,1,.3,2.86c.19,9.05,1.83,15.26,11.86,15.93,8.27.55,13.68,8.25,15.23,18.08,1.65,10.08,2.91,20.34,3.67,30.52a25.43,25.43,0,0,1-15.18,24.8c-1.22.53-2.52.91-4.18,1.51.38,3.76.8,7.54,1.13,11.32,1.39,12-3.9,21.79-17,21.24-1.33,0-3.29,2-4,3.61-7.2,17.78-21.92,33.18-41.25,37.19a21.39,21.39,0,0,1-3.1.2c-1-7.56-2.06-15-3-22.35q-8.24-65.53-16.51-131-2.38-18.54-4.71-37.07c-.82-6.81-.58-6.93,5.38-7.35a51.19,51.19,0,0,1,35.62,10.9,36.23,36.23,0,0,0,3.71,2.11q-2.1-17.46-4.22-34.93c-.39-3.17-.93-6.32-1.17-9.51-.43-5.69-1.68-9.86-7.1-12.42-2.93-1.38-5.1-7-5.79-11.18-13.29-78-32.15-154.84-69.45-225.15a316.48,316.48,0,0,0-26.79-37.28c-14.75-17.83-37.81-22.6-59.81-23.38C543.07,38.8,500.2,42.48,457.18,49c-26.4,4.28-52.88,8.82-78.89,14.37C333.8,72.88,289.65,85.31,247.73,103c-9.14,3.84-18.14,8.57-27,13.11-17.6,9-32,23.6-43.62,39.5-19.44,27.17-34.25,55.89-46.62,86.88A637.89,637.89,0,0,0,98.42,363.7c-.21,1.28.29,2.74-.29,3.87-1.61,3.13-2.84,7.58-5.65,8.86-5.42,2.45-6.47,5.69-7.06,10-1.36,9.74-3,19.48-4.52,29.19-.22,1.34-.22,2.71-.38,5,13-8.54,28.71-14.3,44.52-12.87q-11.82,76.53-23.9,153c-12.52-1.93-24.74-6.9-33.9-15.79-4-3.93-7.15-8.63-10.29-13.14-1.49-2.14-2.75-3.45-6-3.49-11.12-.13-16.67-5.78-15.16-15,.07-.42.17-.83.25-1.24,1.26-6.73,1.26-6.75-6.27-9.41-8.38-3-13.69-10.26-12.7-18.09.79-6.35,1.84-12.7,3.07-19,1.82-9.26,9-15.16,20.2-16.15,4.51-.4,6.13-1.66,6.73-5.55,3.47-22.67,7.24-45.36,10.82-68.05.44-2.85,1.25-4.05,4.92-3.84,6.58.37,8.6-1.24,9.81-7,4.48-21.94,8.51-44.22,14-65.66a502.11,502.11,0,0,1,49.36-123.13,326.48,326.48,0,0,1,42.16-55.92c15.3-15.75,35.42-26.64,55.22-35.6C267.62,69.47,303,57.61,339.11,48c10.23-2.74,20.62-5.25,30.9-7.93a17.37,17.37,0,0,0,3.23-1.61Z"/><path class="cls-5" d="M637.24,535c0,7.8-4.32,13.54-8.92,11.83A534.38,534.38,0,0,0,537.27,522c-39-7-79.08-11.22-119-13.39-32.39.53-64.39,4.73-96.4,8.63a726.36,726.36,0,0,0-117.32,24.22c-2.71.8-5.28-2.07-5.28-5.91V443c-.05-11.69,5.41-25.09,16.8-29.19,29-10.45,60.78-18.3,91.51-24.49a642.69,642.69,0,0,1,110.69-12.92,769.67,769.67,0,0,1,82.13,1.17c39.33,2.85,81,8.11,117.18,19.08,14,4.26,20.19,24.43,19.69,38.47Z"/><path class="cls-5" d="M232.57,406.5V535.23"/><path class="cls-5" d="M269.7,400.74V531.62"/><path class="cls-5" d="M306.84,394.85v133"/><path class="cls-5" d="M344,388.82V524"/><path class="cls-5" d="M381.11,382.66V520"/><path class="cls-5" d="M418.24,376.37V515.86"/><path class="cls-5" d="M455.14,380.25V521.88"/><path class="cls-5" d="M492,384.32V528.08"/><path class="cls-5" d="M528.93,388.56v145.9"/><path class="cls-5" d="M565.83,393V541"/><path class="cls-5" d="M602.73,397.57V547.75"/><path class="cls-6" d="M433,656.31c-3.28,1-6.69,1.61-9.74,3-23.65,10.64-47.28,21.26-71.35,31-9.27,3.64-15,7.92-11.77,18.76a8.83,8.83,0,0,1,.06,1.93c.72,16,2.79,31.82,3.47,47.8a14.18,14.18,0,0,0,6.39,11.51q42.42,30.07,84.09,61.19c3.64,2.73,7.1,3.34,10.76,1.53q42.4-21.08,84.18-43.34c3.65-2,5-5,4.56-9.56-1-9.57-1.62-19.18-2.31-28.78-1.21-17.57-5.21-34.64-6.46-52.2-.63-8.09-1.65-9.17-9.23-12.07q-30.82-11.75-61.76-23.19C447.05,661.3,440.18,658.87,433,656.31Zm-196.46-282,1.07,1.11c2.19-.76,4.43-1.39,6.54-2.31,37.58-15.92,76.15-27.7,115.89-36.87a716.06,716.06,0,0,1,117-15.45c28.23-.58,55.13,1.31,82.7,7.63,7.24,1.87,14.36,4.17,21.54,6.3.24-.43.48-.86.73-1.29-2.28-1.63-4.35-3.81-6.88-4.78-8.42-3.23-16.79-6.84-25.56-8.72-30.52-5.85-60.61-8-91.66-8-45.82,1.14-90.64,7.23-135.43,16.76-4.22.93-8.45,1.72-12.68,2.58-1.27-11.25,1.95-16.15,12.78-19.09,29.62-7.87,59.21-14.53,89.56-18.94,49.53-5.83,97.86-4.87,146.84,4.82,3,.65,6.06.94,9.09,1.4.13-.46.25-.93.37-1.39a37.54,37.54,0,0,0-4.62-2.4c-6.46-2.32-12.82-5-19.48-6.6-36.59-7.93-73-9.18-110.34-7.23a839.5,839.5,0,0,0-108.63,15.7,65.46,65.46,0,0,1-6.7.6c6.29-12.72,12.16-25.71,19.17-38a346.54,346.54,0,0,1,23-35.17c8.58-11.36,18.14-21.92,27.32-32.8C324.59,241.55,275.44,304.18,236.55,374.35ZM34.24,727.16c-9.61-1.42,12-20.25,10-27.38-.22-.82,5.91-21,5.89-21.9-.09-4.36-4.74-5,13.11-17.68,8-6,18.41-10.47,27.88-13.34,18.09-6.35,36-13.14,53.83-20.14,7.35-2.9,11.24-8.9,16.5-15.26-24.73-.07-50-4.77-67.89-23.23,21.69-1.85,37.12-15.11,48.66-32.63-6.89-1.14-12.87-2.13-19.31-3.18.31-2.48.52-4.61.85-6.73q3.19-20.24,6.4-40.49Q134,480,137.91,454.86c2.7-17.34,5.47-34.7,8-52,.54-3.72,1.52-5.19,6.13-4.54,9.14,1.28,18.5,2.31,27.35-2.17a15.53,15.53,0,0,0,6.46-5.73c7-13.74,13.49-27.61,21.05-41,45.25-74.64,105.48-139.2,169-198.32a61,61,0,0,1,12.68-9.24c27.72-14.74,60.93-19.75,88.45.75,37.09,26.53,71.83,55.24,103.62,88C619.2,272,650.13,316.9,670.09,370.2c1.72,4.89,4.9,7.17,9.48,6.88q11.46-.72,22.9-2.1c4.11-.49,8.18-1.58,13-2.54Q728,471,740.38,569.49c-8.08,1.18-15.54,2.26-23.45,3.39,1.83,8.79,2.82,16.86,7.66,24.15,4.84,8.19,15.1,15.86,24.45,17.88,5.55,1.47,11.09,3.06,16.63,4.65,1.44.41,2.86,1,5.34,1.81-23.69,11.38-44.65,14.83-70.61,11.4,4.4,8.73,8.53,15.73,15.05,20.23q23.58,16.2,47.26,32.28c14.46,9.55,28.9,18.83,42.65,29.39,19.51,16,26.74,15.86,9.12,37.17-6,7.24-13.5,11.11-23.76,11.32,1.44-2.34,2.06-3.6,2.88-4.63q3.95-5,8.18-9.82c-6.37,3.61-13.73,3.86-20.08-.22-7.3-5.14-12.55-2.16-13.52,7.22a38.88,38.88,0,0,0,.05,6.82c3.14,49.53,41.18,53.91,73,82.35-.11,1.1-.13,1.31-.25,2.42A35.82,35.82,0,0,1,815.22,846c-12.57-5.66-24.59-12.42-36.72-19-4.12-2.18-8-5-12.61-7.86-2.91,17-1.71,35.86,7.81,50.82,9.09,14.71,18.63,29.1,28.06,43.59,1,1.5,1.86,3.06,3.22,5.32-8.75-.11-19.19-4-26.2-9.19-12.56-8.67-22-20.45-31.48-32.17-1.36-1.68-2.81-3.28-4.55-5.3-2,9.21-3.47,17.62-5.5,25.79-11.26,46.23-44.71,71.61-92.44,62-8.32-1.64-16.44-4.54-24.47-11.82,3-.83,5-1.44,7.13-2,6.61-1.82,13.34-3.35,19.81-5.56,14.62-5.17,26.85-16.86,29.74-32.6,1.61-7,.27-14.06-4.52-20.65-6.74-9.28-19.52-14.93-30.68-11.73A64.56,64.56,0,0,0,610,896.34c-18,21.84-12.91,47.21-1,70.28,6.23,10.17,14.52,18.87,23.54,26.6,4,3.45,7.89,7,12.37,11-19.14-1.17-40.41-12.56-55.94-23-28-19.15-48.44-48-55.81-81.29l-1.33-.37q-20.41,40.2-41.34,80.13c-9.88-7.93-19.61-15.66-30-22.92-10.81-4.88-21-8.71-33.12-5.43-9.72,1.75-21.08,7.71-27.73,15.07l-5.41-1.87a52.67,52.67,0,0,0-2.31-6.29q-19.5-38.16-39.5-76.06a35.23,35.23,0,0,0-2.38-3.33c-10.42,18.13-23.28,38.57-43.87,46.36-22.39,9.2-44.57,9.53-68,5.26a8,8,0,0,1,3.45-2.61c7.16-3.61,14.63-6.89,21.4-11.08,16.62-10.8,17.1-26.78,12.89-44.15-7.7-22-23.9-39.33-44-50.75a39,39,0,0,0-9.89-4.39c-16.32-4.37-31.84,9.52-23.85,26.1,6.27,17.49,22.38,29.91,38.63,37.51,3.32,1.58,6.68,3.09,10,4.64-.07.71-.05.58-.13,1.28-7.7-.5-15.37-.67-23.1-1.59-15.18-1.74-28.91-6.06-42.85-12.13-24-11.42-40.4-33-48.6-57.82-1.27-3.88-2.5-7.76-3.92-12.14-2.38,1.12-4.13,2-5.89,2.74-7.54,3.42-14.88,7.11-22.69,10-11.15,4.54-22.08,1.73-33.06-1.24,1-.92,1.6-1.58,2.31-2.18,5.07-4.27,10.5-8.3,15.16-13,9-8.8,16.17-19.66,18.75-32.12,1.39-6.94,1.4-14-3.25-21.45-3.61,1.35-6.77,2.5-9.91,3.68-16.58,5-30.53,6.09-47.74,4.15-7.57-1.36-14.44-4.27-19.91-10.35,7-2.12,16.82.35,23.24-1.78C55.36,738.4,71.88,737.41,78.5,728c.8-1.14,1.43-2.63,2.06-3.74,4.82-8.61,26.19-18.21,22.37-31.35-3.58-8-9.05-10.33-17.3-7.39-11,3.92-8.27,1.76-5.39,11.91l.06.21c1.25,4.41-1.27,8.59-6,9.91Q54.34,717.5,34.24,727.16Zm416.9-370-.09-1.59c-24.86,3.76-49.76,7.11-74.48,11.72-28.78,5.89-57.34,12.58-85.83,19.74-17.88,4.48-36.24,13.05-48.57,27.19-20.72,25.35-28.93,53.36-21,85.76,2.73,11.7,13.08,18.64,24.6,19.77,8.2,1,16.75,1.73,24.86.74,29.16-3.67,58.2-8,87.25-12.39,19.88-3.12,39.68-6.55,59.67-8.93,42.65-3.17,83.72,3.81,125.56,11.32,20,3.9,39.35,8.24,59.71,9.26,20.08.2,35.27-12.22,40.74-30.63,5.89-19.81,5.39-38.16,1.17-58.8-5.49-22.44-19.61-41.39-42.47-47.93-9.05-2.59-18.16-5.4-27-8.36C534.86,360.49,494,354.51,451.14,357.14ZM404.31,585.07l-1.31.39c-4.72-5.17-9.52-10.24-14.14-15.44-6.3-7.1-6.55-7.13-15.26-3.76-30.32,11.65-60.79,22.87-91.34,33.89-3.63,1.3-5,.2-6.53-2.66-3.84-7.21-8.2-14.18-11.76-21.42a20.26,20.26,0,0,0-17.23-11.16c-4.62-.21-6.37.9-7.73,4.47a110,110,0,0,0-6.63,39.88c.22,25.36,16.77,46.23,39.37,56.47,7.76,3.55,14.47,3.58,21.79.16q54.65-25.67,108.57-52.78a24.35,24.35,0,0,1,9.76-2.9c14.61-.42,29.23-.44,43.85-.65,9.06-.15,17.53.86,25.95,6.12,30.43,19,60.91,37.94,91,57.48,6,4,11.76,4.77,18.07,2.18,23.32-9.42,38.35-29.65,43.51-53.94,2.39-17.43,1-31.07-4.45-47.79-1.23-3.09-2.46-6.8-6.67-6.12-7.86,1.29-14.87,2.42-17.27,14-2.24,10.81-4.63,11.54-14.54,8.77q-46.41-12.91-93-25.19c-5.27-1.39-9.39,0-12.8,4.24-3.24,4-6.75,7.77-10.22,11.53a15.9,15.9,0,0,1-3,1.94c-.43-1.89-.77-3.18-1-4.48q-5.81-32.76-11.64-65.52c-.52-2.9-1.27-5-5-4.7-12.12.78-24.24,1.45-36.37,2.14-5.56.34-7.38,2.13-7.87,7.55-.63,7.06-1.05,14.14-1.7,21.18Q406.54,562,404.31,585.07Z"/><path class="cls-6" d="M465.24,10.36c6.24-.67,12.49-1.15,18.73-2C520.33,3.34,556.75,0,593.58,0c17.2.5,33,2,49.6,6.6,22.1,7.79,38.32,25.65,51.15,44.55,22.27,34,37.22,70.91,50.06,109.36a1016.23,1016.23,0,0,1,34.1,144.27c1.06,6.75,3.45,12.47,11.34,9.45,3.08-1.18,3.68.82,4,3.67q5,40.8,10.07,81.6a27.45,27.45,0,0,1,.3,2.86c.19,9.05,1.83,15.26,11.86,15.93,8.27.55,13.68,8.25,15.23,18.08,1.65,10.08,2.91,20.34,3.67,30.52a25.43,25.43,0,0,1-15.18,24.8c-1.22.53-2.52.91-4.18,1.51.38,3.76.8,7.54,1.13,11.32,1.39,12-3.9,21.79-17,21.24-1.33,0-3.29,2-4,3.61-7.2,17.78-21.92,33.18-41.25,37.19a21.39,21.39,0,0,1-3.1.2c-1-7.56-2.06-15-3-22.35q-8.24-65.53-16.51-131-2.38-18.54-4.71-37.07c-.82-6.81-.58-6.93,5.38-7.35a51.19,51.19,0,0,1,35.62,10.9,36.23,36.23,0,0,0,3.71,2.11q-2.1-17.46-4.22-34.93c-.39-3.17-.93-6.32-1.17-9.51-.43-5.69-1.68-9.86-7.1-12.42-2.93-1.38-5.1-7-5.79-11.18-13.29-78-32.15-154.84-69.45-225.15a316.48,316.48,0,0,0-26.79-37.28c-14.75-17.83-37.81-22.6-59.81-23.38C554.07,26.8,511.2,30.48,468.18,37c-26.4,4.28-52.88,8.82-78.89,14.37C344.8,60.88,300.65,73.31,258.73,91c-9.14,3.84-18.14,8.57-27,13.11-17.6,9-32,23.6-43.62,39.5-19.44,27.17-34.25,55.89-46.62,86.88A637.89,637.89,0,0,0,109.42,351.7c-.21,1.28.29,2.74-.29,3.87-1.61,3.13-2.84,7.58-5.65,8.86-5.42,2.45-6.47,5.69-7.06,10-1.36,9.74-3,19.48-4.52,29.19-.22,1.34-.22,2.71-.38,5,13-8.54,28.71-14.3,44.52-12.87q-11.82,76.53-23.9,153c-12.52-1.93-24.74-6.9-33.9-15.79-4-3.93-7.15-8.63-10.29-13.14-1.49-2.14-2.75-3.45-6-3.49-11.12-.13-16.67-5.78-15.16-15,.07-.42.17-.83.25-1.24,1.26-6.73,1.26-6.75-6.27-9.41-8.38-3-13.69-10.26-12.7-18.09.79-6.35,1.84-12.7,3.07-19,1.82-9.26,9-15.16,20.2-16.15,4.51-.4,6.13-1.66,6.73-5.55,3.47-22.67,7.24-45.36,10.82-68.05.44-2.85,1.25-4.05,4.92-3.84,6.58.37,8.6-1.24,9.81-7,4.48-21.94,8.51-44.22,14-65.66a502.11,502.11,0,0,1,49.36-123.13,326.48,326.48,0,0,1,42.16-55.92c15.3-15.75,35.42-26.64,55.22-35.6C278.62,57.47,314,45.61,350.11,36c10.23-2.74,20.62-5.25,30.9-7.93a17.37,17.37,0,0,0,3.23-1.61Z"/><path class="cls-7" d="M648.24,523c0,7.8-4.32,13.54-8.92,11.83A534.38,534.38,0,0,0,548.27,510c-39-7-79.08-11.22-119-13.39-32.39.53-64.39,4.73-96.4,8.63a726.36,726.36,0,0,0-117.32,24.22c-2.71.8-5.28-2.07-5.28-5.91V431c-.05-11.69,5.41-25.09,16.8-29.19,29-10.45,60.78-18.3,91.51-24.49a642.69,642.69,0,0,1,110.69-12.92,769.67,769.67,0,0,1,82.13,1.17c39.33,2.85,81,8.11,117.18,19.08,14,4.26,20.19,24.43,19.69,38.47Z"/><path class="cls-7" d="M243.57,394.5V523.23"/><path class="cls-7" d="M280.7,388.74V519.62"/><path class="cls-7" d="M317.84,382.85v133"/><path class="cls-7" d="M355,376.82V512"/><path class="cls-7" d="M392.11,370.66V508"/><path class="cls-7" d="M429.24,364.37V503.86"/><path class="cls-7" d="M466.14,368.25V509.88"/><path class="cls-7" d="M503,372.32V516.08"/><path class="cls-7" d="M539.93,376.56v145.9"/><path class="cls-7" d="M576.83,381V529"/><path class="cls-7" d="M613.73,385.57V535.75"/><path class="cls-2" d="M232.24,427v94s-10.76-3.23-16-20C211.41,485.53,211.12,457.76,232.24,427Z"/><polygon class="cls-2" points="269.24 401.03 269.24 512.03 249.24 518.03 249.24 406.03 269.24 401.03"/><polygon class="cls-2" points="286.24 397.03 306.24 392.03 306.24 504.03 286.24 507.03 286.24 397.03"/><polygon class="cls-2" points="323.24 389.03 343.24 385.03 343.24 499.03 323.24 501.03 323.24 389.03"/><polygon class="cls-2" points="360.24 382.03 381.24 379.03 381.24 495.03 360.24 497.03 360.24 382.03"/><polygon class="cls-2" points="397.24 378.03 417.24 377.03 417.24 493.03 397.24 494.03 397.24 378.03"/><polygon class="cls-2" points="434.24 376.03 455.24 376.03 454.24 494.03 434.24 493.03 434.24 376.03"/><polygon class="cls-2" points="472.24 376.03 492.24 377.03 492.24 498.03 471.24 495.03 472.24 376.03"/><polygon class="cls-2" points="508.24 378.03 529.24 380.03 528.24 503.03 508.24 500.03 508.24 378.03"/><path class="cls-8" d="M233.64,425.63v94s-10.76-3.23-16-20C212.81,484.13,212.52,456.36,233.64,425.63Z"/><polygon class="cls-9" points="270.64 399.63 270.64 510.63 250.64 516.63 250.64 404.63 270.64 399.63"/><polygon class="cls-10" points="287.64 395.63 307.64 390.63 307.64 502.63 287.64 505.63 287.64 395.63"/><polygon class="cls-11" points="324.64 387.63 344.64 383.63 344.64 497.63 324.64 499.63 324.64 387.63"/><polygon class="cls-12" points="361.64 380.63 382.64 377.63 382.64 493.63 361.64 495.63 361.64 380.63"/><polygon class="cls-13" points="398.64 376.63 418.64 375.63 418.64 491.63 398.64 492.63 398.64 376.63"/><polygon class="cls-14" points="435.64 374.63 456.64 374.63 455.64 492.63 435.64 491.63 435.64 374.63"/><polygon class="cls-15" points="473.64 374.63 493.64 375.63 493.64 496.63 472.64 493.63 473.64 374.63"/><polygon class="cls-16" points="509.64 376.63 530.64 378.63 529.64 501.63 509.64 498.63 509.64 376.63"/><path class="cls-17" d="M235,424.23v94s-10.76-3.23-16-20C214.21,482.73,213.92,455,235,424.23Z"/><polygon class="cls-18" points="272.04 398.23 272.04 509.23 252.04 515.23 252.04 403.23 272.04 398.23"/><polygon class="cls-19" points="289.04 394.23 309.04 389.23 309.04 501.23 289.04 504.23 289.04 394.23"/><polygon class="cls-20" points="326.04 386.23 346.04 382.23 346.04 496.23 326.04 498.23 326.04 386.23"/><polygon class="cls-21" points="363.04 379.23 384.04 376.23 384.04 492.23 363.04 494.23 363.04 379.23"/><polygon class="cls-22" points="400.04 375.23 420.04 374.23 420.04 490.23 400.04 491.23 400.04 375.23"/><polygon class="cls-23" points="437.04 373.23 458.04 373.23 457.04 491.23 437.04 490.23 437.04 373.23"/><polygon class="cls-24" points="475.04 373.23 495.04 374.23 495.04 495.23 474.04 492.23 475.04 373.23"/><polygon class="cls-25" points="511.04 375.23 532.04 377.23 531.04 500.23 511.04 497.23 511.04 375.23"/><path class="cls-26" d="M236.44,422.83v94s-10.76-3.23-16-20C215.61,481.33,215.32,453.56,236.44,422.83Z"/><polygon class="cls-27" points="273.44 396.83 273.44 507.83 253.44 513.83 253.44 401.83 273.44 396.83"/><polygon class="cls-28" points="290.44 392.83 310.44 387.83 310.44 499.83 290.44 502.83 290.44 392.83"/><polygon class="cls-29" points="327.44 384.83 347.44 380.83 347.44 494.83 327.44 496.83 327.44 384.83"/><polygon class="cls-30" points="364.44 377.83 385.44 374.83 385.44 490.83 364.44 492.83 364.44 377.83"/><polygon class="cls-31" points="401.44 373.83 421.44 372.83 421.44 488.83 401.44 489.83 401.44 373.83"/><polygon class="cls-32" points="438.44 371.83 459.44 371.83 458.44 489.83 438.44 488.83 438.44 371.83"/><polygon class="cls-33" points="476.44 371.83 496.44 372.83 496.44 493.83 475.44 490.83 476.44 371.83"/><polygon class="cls-34" points="512.44 373.83 533.44 375.83 532.44 498.83 512.44 495.83 512.44 373.83"/><path class="cls-35" d="M237.84,421.43v94s-10.76-3.23-16-20C217,479.93,216.72,452.16,237.84,421.43Z"/><polygon class="cls-36" points="274.84 395.43 274.84 506.43 254.84 512.43 254.84 400.43 274.84 395.43"/><polygon class="cls-37" points="291.84 391.43 311.84 386.43 311.84 498.43 291.84 501.43 291.84 391.43"/><polygon class="cls-38" points="328.84 383.43 348.84 379.43 348.84 493.43 328.84 495.43 328.84 383.43"/><polygon class="cls-39" points="365.84 376.43 386.84 373.43 386.84 489.43 365.84 491.43 365.84 376.43"/><polygon class="cls-40" points="402.84 372.43 422.84 371.43 422.84 487.43 402.84 488.43 402.84 372.43"/><polygon class="cls-41" points="439.84 370.43 460.84 370.43 459.84 488.43 439.84 487.43 439.84 370.43"/><polygon class="cls-42" points="477.84 370.43 497.84 371.43 497.84 492.43 476.84 489.43 477.84 370.43"/><polygon class="cls-43" points="513.84 372.43 534.84 374.43 533.84 497.43 513.84 494.43 513.84 372.43"/><path class="cls-44" d="M239.24,420v94s-10.76-3.23-16-20C218.41,478.53,218.12,450.76,239.24,420Z"/><polygon class="cls-45" points="276.24 394.03 276.24 505.03 256.24 511.03 256.24 399.03 276.24 394.03"/><polygon class="cls-46" points="293.24 390.03 313.24 385.03 313.24 497.03 293.24 500.03 293.24 390.03"/><polygon class="cls-47" points="330.24 382.03 350.24 378.03 350.24 492.03 330.24 494.03 330.24 382.03"/><polygon class="cls-48" points="367.24 375.03 388.24 372.03 388.24 488.03 367.24 490.03 367.24 375.03"/><polygon class="cls-49" points="404.24 371.03 424.24 370.03 424.24 486.03 404.24 487.03 404.24 371.03"/><polygon class="cls-50" points="441.24 369.03 462.24 369.03 461.24 487.03 441.24 486.03 441.24 369.03"/><polygon class="cls-51" points="479.24 369.03 499.24 370.03 499.24 491.03 478.24 488.03 479.24 369.03"/><polygon class="cls-52" points="515.24 371.03 536.24 373.03 535.24 496.03 515.24 493.03 515.24 371.03"/></g></g></svg>