<svg xmlns="http://www.w3.org/2000/svg" viewBox="0 0 1127.78 219.73"><defs><style>.cls-1{fill:#fff;}</style></defs><title>pod_viking_typeface_white</title><g id="Layer_2" data-name="Layer 2"><g id="Layer_11" data-name="Layer 11"><g id="FLAT"><path class="cls-1" d="M1.61,2.34h131c1.07.2,1.61.74,1.61,1.62V98.73Q82.91,135.21,50.24,156.3v53.61a1.42,1.42,0,0,1-1.61,1.61h-47A1.42,1.42,0,0,1,0,209.91V4C.19,2.88.73,2.34,1.61,2.34ZM50.24,41.89v66.65q27.1-17.72,33.7-23.87V41.89Z"/><path class="cls-1" d="M209.91,1.9Q269,41.76,272,45.7v122q-6.15,6.3-62.11,43.8H208.3q-.3-1-59.91-42.18l-.73-1.62V45.7Q153.81,39.41,209.91,1.9ZM193.8,61.82v89.79q3.51,4.69,16.11,13.77,14.21-10.83,16.12-13.77V61.82q-1.92-2.94-16.12-13.77Q197.75,56.69,193.8,61.82Z"/><path class="cls-1" d="M287.26,1.9H362.7q4.4,0,57.12,39V172.56q-5.26,5.41-54.63,39H285.64V115.43q0-2.49-.87-2.49l.87-4.1V3.52Q285.79,1.9,287.26,1.9Zm48,44V168.46h14.94q4.11,0,19.93-13.33V122.9c0-1.66-.3-2.49-.88-2.49l.88-4.1v-58Q354.93,45.85,351,45.85Z"/><path class="cls-1" d="M434,1.61H479.3c1.07.2,1.61.73,1.61,1.61V150.29q.29.59,16,13.48,1.31,0,16.69-13.48V3.22c.1-1.07.64-1.61,1.62-1.61h45.26c1.07.2,1.61.73,1.61,1.61v163q-5.41,5.28-64.45,45.26h-.73q-59.34-40.12-64.46-45.26V3.22C432.62,2.15,433.15,1.61,434,1.61Z"/><path class="cls-1" d="M575.83,1.61H623c1.07.2,1.61.73,1.61,1.61V209.91a1.42,1.42,0,0,1-1.61,1.61H575.83a1.42,1.42,0,0,1-1.61-1.61V3.22C574.41,2.15,575,1.61,575.83,1.61Z"/><path class="cls-1" d="M639.4,1.61h47.32c1.07.2,1.61.73,1.61,1.61V107.81L722.46,85.4V3.22c.1-1.07.63-1.61,1.61-1.61h47.32c1.07.2,1.61.73,1.61,1.61v98q-.15.89-52.3,35.6,46.44,27.09,52.3,33.25v49.66h-1.61l-83.06-54.64v45.55c0,1.18-.54,1.76-1.61,1.76H639.4c-1.07,0-1.61-.58-1.61-1.76V3.22C638,2.15,638.53,1.61,639.4,1.61Z"/><path class="cls-1" d="M787.5,1.61h47.17c1.07.2,1.61.73,1.61,1.61V209.91a1.42,1.42,0,0,1-1.61,1.61H787.5a1.42,1.42,0,0,1-1.61-1.61V3.22C786.08,2.15,786.62,1.61,787.5,1.61Z"/><path class="cls-1" d="M851.07,1.61h48L933,27.25h.73v-24a1.69,1.69,0,0,1,1.76-1.61h47c1.17.2,1.76.73,1.76,1.61V209.91c0,1.08-.59,1.61-1.76,1.61h-47c-1.17,0-1.76-.53-1.76-1.61V77.64q-.44-1.32-33.84-24h-.73v156.3c0,1.08-.58,1.61-1.76,1.61H851.07a1.42,1.42,0,0,1-1.61-1.61V3.22C849.66,2.15,850.2,1.61,851.07,1.61Z"/><path class="cls-1" d="M1063.62,0l4.84.73h46.43c1.08.2,1.61.73,1.61,1.61V36.91a1.42,1.42,0,0,1-1.61,1.62H1046V149.85q0,1,16,13.63,5.71-3.53,16.85-13.63-16.12-10.4-16.85-10.4v-.88q1.17-2.19,34.43-24.75,4.24,0,31.34,20.8v31.2q-63.13,45.7-65.77,45.7-56.25-37.78-64.89-45.7V2.34c.19-1.07.73-1.61,1.61-1.61h60.94A8.33,8.33,0,0,0,1063.62,0Z"/></g></g></g></svg>