<svg width="18" height="20" viewBox="0 0 18 20" fill="none" xmlns="http://www.w3.org/2000/svg">
<path d="M11.8472 19.763L18 18.5414C18 18.5414 15.7806 4.77683 15.7623 4.68568C15.744 4.59558 15.664 4.53481 15.5816 4.53481C15.4993 4.53481 13.9362 4.42899 13.9362 4.42899C13.9362 4.42899 12.8511 3.43474 12.7196 3.32891C12.6887 3.29854 12.6544 3.28386 12.6213 3.26815L11.8472 19.763ZM12.3571 3.23881C12.3388 3.23881 12.308 3.25349 12.292 3.25349C12.2737 3.25349 12.0438 3.3153 11.6825 3.41901C11.3189 2.45619 10.6774 1.5667 9.54314 1.5667H9.44479C9.11434 1.18848 8.721 1.02295 8.37454 1.02295C5.72634 1.02295 4.45712 4.05288 4.06378 5.58984C3.04383 5.87795 2.30517 6.08854 2.21941 6.11891C1.64312 6.28445 1.62825 6.29913 1.56308 6.79783C1.49791 7.15823 0 17.787 0 17.787L11.5682 19.7766L12.3571 3.23881ZM9.34417 3.97639V4.08325C8.70499 4.2645 7.99721 4.46043 7.30543 4.65634C7.70106 3.27025 8.43971 2.5903 9.08118 2.33361C9.24813 2.7265 9.34417 3.25349 9.34417 3.97639ZM8.29221 1.67148C8.40655 1.67148 8.52205 1.7008 8.63868 1.77834C7.80168 2.13874 6.87892 3.05861 6.4993 4.89836C5.96358 5.05538 5.42574 5.20625 4.88591 5.35096C5.33071 3.9481 6.40097 1.67148 8.29221 1.67148ZM8.75187 9.85603C8.75187 9.85603 8.06124 9.526 7.24024 9.526C6.00534 9.526 5.95617 10.2343 5.95617 10.4155C5.95617 11.3804 8.721 11.7565 8.721 14.0331C8.721 15.8269 7.48608 16.973 5.80866 16.973C3.80079 16.973 2.78085 15.8269 2.78085 15.8269L3.32397 14.1988C3.32397 14.1988 4.37822 15.0285 5.26438 15.0285C5.37083 15.0324 5.47703 15.0166 5.57667 14.9821C5.6763 14.9476 5.76732 14.895 5.84428 14.8276C5.92124 14.7601 5.98256 14.6791 6.02457 14.5894C6.06659 14.4998 6.08844 14.4031 6.08881 14.3056C6.08881 13.0389 3.81794 12.9771 3.81794 10.8985C3.81794 9.14989 5.18435 7.44634 7.96519 7.44634C9.03545 7.44634 9.56029 7.73131 9.56029 7.73131L8.75187 9.85603ZM9.80613 2.22779C10.3984 2.29065 10.778 2.9067 11.0227 3.60131C10.7277 3.69246 10.3973 3.78256 10.036 3.88734V3.69141C10.036 3.10366 9.95363 2.62068 9.80613 2.22779Z" fill="#3A3A3A"/>
</svg>
