<?xml version="1.0" standalone="no"?>
<!DOCTYPE svg PUBLIC "-//W3C//DTD SVG 1.1//EN" "http://www.w3.org/Graphics/SVG/1.1/DTD/svg11.dtd" >
<svg xmlns="http://www.w3.org/2000/svg" xmlns:xlink="http://www.w3.org/1999/xlink" version="1.1">
<metadata>
Created by FontForge 20170731 at Mon Nov 28 19:32:05 2016
 By Aleksey,,,
Typeface (c)WOODCUTTER MANERO MMXVI All Rights Reserved
</metadata>
<defs>
<font id="VikingHell" horiz-adv-x="1014" >
  <font-face 
    font-family="Viking Hell"
    font-weight="400"
    font-stretch="normal"
    units-per-em="2048"
    panose-1="2 0 5 0 0 0 0 0 0 0"
    ascent="1638"
    descent="-410"
    x-height="1428"
    cap-height="1433"
    bbox="30 -206 1706 1690"
    underline-thickness="150"
    underline-position="-592"
    unicode-range="U+0020-F002"
  />
<missing-glyph horiz-adv-x="1024" 
d="M100 0v1434h824v-1434h-824zM150 50h724v1334h-724v-1334zM325 1148q31 28 58 43q53 30 112 30q92 0 148 -47.5t56 -127.5q0 -49 -23 -98.5t-87 -129.5q-63 -80 -99 -132t-36 -99q0 -38 24 -133h-32q-35 97 -35 148q0 76 81.5 218t81.5 217q0 57 -33 90t-91 33
q-38 0 -69 -17q-26 -15 -56 -40v45zM389 334l57 58q11 10 20 10q10 0 22 -11l56 -60q9 -11 9 -20q0 -11 -10 -22l-56 -62q-14 -14 -21 -14q-11 0 -20 10l-61 71q-7 9 -7 18q0 10 11 22z" />
    <glyph glyph-name=".notdef" horiz-adv-x="1024" 
d="M100 0v1434h824v-1434h-824zM150 50h724v1334h-724v-1334zM325 1148q31 28 58 43q53 30 112 30q92 0 148 -47.5t56 -127.5q0 -49 -23 -98.5t-87 -129.5q-63 -80 -99 -132t-36 -99q0 -38 24 -133h-32q-35 97 -35 148q0 76 81.5 218t81.5 217q0 57 -33 90t-91 33
q-38 0 -69 -17q-26 -15 -56 -40v45zM389 334l57 58q11 10 20 10q10 0 22 -11l56 -60q9 -11 9 -20q0 -11 -10 -22l-56 -62q-14 -14 -21 -14q-11 0 -20 10l-61 71q-7 9 -7 18q0 10 11 22z" />
    <glyph glyph-name=".null" horiz-adv-x="0" 
 />
    <glyph glyph-name="nonmarkingreturn" horiz-adv-x="508" 
 />
    <glyph glyph-name="space" unicode=" " horiz-adv-x="508" 
 />
    <glyph glyph-name="space" unicode="&#xa0;" horiz-adv-x="508" 
 />
    <glyph glyph-name="exclam" unicode="!" horiz-adv-x="1751" 
d="M50 1428h20q11 -2 11 -10v-117q1 -10 10 -10h5q10 0 10 10v117q1 10 10 10h25q10 -2 10 -10v-117q2 -10 11 -10h5q10 0 10 10v117q1 10 10 10h25q10 -2 10 -10v-127q-10 -17 -55 -45h-5l-31 20h-5l-30 -20h-5q-51 34 -51 40v132q2 10 10 10zM475 1428h46q27 0 61 -41
v-106q-1 -8 -46 -35h-61q-10 0 -10 10v162q2 10 10 10zM602 1428h76q10 -2 10 -10v-15q0 -10 -10 -10h-46v-87l11 -15l25 5q8 0 20 -20q-3 -12 -40 -30q-32 15 -56 40v132q2 10 10 10zM713 1428h26q10 -2 10 -10v-112l-5 -10q19 -15 30 -15v137q2 10 10 10h26q10 -2 10 -10
v-162q0 -10 -10 -10h-61q-45 27 -46 35v137q2 10 10 10zM835 1428h96q10 -2 10 -10v-15q0 -10 -10 -10h-25v-137q0 -10 -10 -10h-26q-10 0 -10 10v137h-25q-10 0 -10 10v15q1 10 10 10zM962 1428h96q10 -2 10 -10v-15q0 -10 -10 -10h-25v-137q0 -10 -11 -10h-25
q-10 0 -10 10v126l-36 21v15q2 10 11 10zM1083 1428h76q10 -2 10 -10v-15q0 -10 -10 -10h-40v-31q25 0 25 -10v-15q0 -10 -25 -10v-26q1 -10 10 -10l25 5l20 -20q-22 -19 -45 -30q-56 33 -56 40v132q2 10 10 10zM1195 1428h96q10 -2 10 -10v-71q-22 -30 -41 -30
q41 -36 41 -41v-25q0 -10 -10 -10q-1 5 -56 40h-5v-25q0 -10 -10 -10h-25q-11 0 -11 10v162q2 10 11 10zM1412 1428h76q10 -2 10 -10v-15q0 -10 -10 -10h-45v-31q30 0 30 -10v-15q0 -10 -30 -10v-31q5 0 15 -5q10 5 15 5q23 -9 25 -20q-3 -12 -40 -30q-32 15 -56 40v132
q2 10 10 10zM278 1423h10q46 -28 51 -41v-96q-24 -25 -56 -40q-32 15 -56 40v96q5 13 51 41zM394 1423q31 0 61 -41v-96q-38 -38 -61 -40q-45 34 -45 40v101q0 7 45 36zM1559 1423q25 0 46 -25v-11q-8 0 -21 -10l-25 5l-10 -15q66 -34 71 -50v-31q-5 -13 -56 -40
q-55 33 -55 40v20q5 16 30 16q12 -10 20 -10v-11l-5 -10q5 0 15 -5l15 20q-14 0 -75 51v25q0 8 50 41zM1230 1393v-56q25 13 25 20v36h-25zM511 1387v-106h5q20 8 20 15v76q0 8 -15 15h-10zM268 1372l5 -10v-66q2 -10 10 -10q10 0 10 10v76q0 10 -10 10zM394 1382l-5 -10
v-71q0 -7 16 -15l10 15v76zM1341 1281h21q10 -1 10 -10v-15q0 -10 -10 -10h-21q-10 0 -10 10v15q2 10 10 10zM1346 1180h259q10 -2 10 -10v-66q0 -10 -10 -10h-152v-253q0 -10 35 -31q36 24 36 31q-36 17 -36 25q69 56 81 56q31 -16 71 -51v-61q-63 -59 -152 -111
q-105 63 -152 111v360q2 10 10 10zM55 1175h96q11 -2 11 -10v-324q20 -31 40 -31l30 31v324q2 10 11 10h91q10 -2 10 -10v-360q-13 -20 -147 -106q-75 43 -152 106v360q2 10 10 10zM379 1175h102q10 -2 10 -10v-456q0 -10 -10 -10h-102q-10 0 -10 10v456q2 10 10 10z
M526 1175h101q11 -2 11 -10v-223h5q65 39 65 45v178q2 10 11 10h101q10 -2 10 -10v-208q-24 -30 -122 -86v-5q89 -43 122 -76v-86q0 -10 -10 -10h-5q-18 0 -177 106v-91q0 -10 -11 -10h-101q-10 0 -10 10v456q2 10 10 10zM865 1175h102q10 -2 10 -10v-456q0 -10 -10 -10
h-102q-10 0 -10 10v456q2 10 10 10zM1012 1175h96q20 0 81 -51h6v41q1 10 10 10h101q10 -2 10 -10v-456q0 -10 -10 -10h-101q-10 0 -10 10v294q-18 20 -76 55v-349q0 -10 -11 -10h-96q-10 0 -10 10v456q2 10 10 10zM75 643h137q10 -1 10 -10v-385h102v380q0 7 15 15h126
q8 0 16 -15v-618q0 -10 -11 -10h-136q-10 0 -10 10v106h-102v-106q0 -10 -10 -10h-137q-10 0 -10 10v299q0 5 5 5l-5 10v309q2 10 10 10zM521 643h314q10 -1 10 -10v-96q0 -10 -10 -10h-172v-117h86q7 0 15 -15v-86q0 -10 -10 -10h-91v-107q2 -9 45 -40h5q24 21 46 35h5
q70 -43 101 -76q-107 -86 -162 -111l-192 142v491q2 10 10 10zM911 643h137q10 -1 10 -10v-496h35q17 0 81 45q87 -49 112 -81q-131 -101 -157 -101h-218q-10 0 -10 10v623q1 10 10 10zM1331 643h132q10 -1 10 -10v-486q2 -10 10 -10h41l66 45h5q106 -69 111 -81l-147 -101
h-228q-10 0 -10 10v623q2 10 10 10z" />
    <glyph glyph-name="quotedbl" unicode="&#x22;" horiz-adv-x="1107" 
d="M449 1428h16q118 -95 591 -560q7 -14 7 -31q-424 -422 -437 -422q-107 106 -131 153v15q258 241 261 254v8q0 11 -430 445v15q56 71 123 123zM465 990q50 0 161 -145q-1 -21 -277 -285q2 -10 392 -383l23 -31v-15q-25 -47 -131 -131h-7q-259 226 -576 553
q158 182 415 437z" />
    <glyph glyph-name="numbersign" unicode="#" horiz-adv-x="1520" 
d="M780 1433q180 -192 694 -712q-301 -326 -603 -639q-54 -70 -100 -82q-37 0 -721 703v9l575 593q98 94 155 128zM452 730q93 -121 310 -338h9q12 0 301 302q0 38 -301 319h-18q-301 -273 -301 -283z" />
    <glyph glyph-name="dollar" unicode="$" horiz-adv-x="960" 
d="M65 1433h219q15 -2 15 -15v-358q362 -343 394 -343v701q3 15 15 15h183q10 0 22 -22v-1389q0 -11 -22 -22h-183q-15 0 -15 15v358q-252 230 -387 336h-7v-687q0 -11 -22 -22h-59q-24 0 -36 7l-44 -7h-66q-11 0 -22 22v1396q2 15 15 15z" />
    <glyph glyph-name="percent" unicode="%" horiz-adv-x="1040" 
d="M839 1433q140 -98 140 -107v-25q-107 -205 -239 -412q-74 -120 -74 -148v-24q104 -181 329 -602v-8q-136 -107 -181 -107q-36 36 -132 239l-164 263q-233 -392 -297 -477h-33q-137 76 -148 99v8q282 473 346 593v24l-313 560v9q25 32 173 107h25q21 -16 255 -445
q36 21 165 255q104 168 148 198z" />
    <glyph glyph-name="ampersand" unicode="&#x26;" horiz-adv-x="1150" 
d="M453 690q-33 58 -127 153q-226 244 -296 334q0 10 129 129l294 -286v413h244v-401q227 233 282 274q130 -108 130 -129q-64 -85 -411 -463h-1v-715h-244v691z" />
    <glyph glyph-name="quotesingle" unicode="'" horiz-adv-x="1161" 
d="M446 1431h45q12 0 434 -320q145 -94 175 -137q-124 -152 -137 -152q-271 183 -289 183v-975q-15 -30 -46 -30q-535 389 -578 434v23q98 144 114 144l251 -190h16v1005q2 15 15 15z" />
    <glyph glyph-name="parenleft" unicode="(" horiz-adv-x="936" 
d="M80 1433q14 0 389 -320h8q80 73 396 305q15 -3 15 -15v-1388q0 -15 -15 -15h-175q-11 0 -23 23v694q0 61 8 144q-8 0 -8 84h-23l-160 -122h-30l-153 107h-15v-915q0 -15 -15 -15h-206q-11 0 -23 23q8 715 8 1044q0 89 7 282l-7 15q9 69 22 69z" />
    <glyph glyph-name="parenright" unicode=")" horiz-adv-x="1193" 
d="M65 1433q10 0 285 -277q187 -199 268 -259q302 319 503 519h8q17 -2 17 -17v-1357q0 -17 -17 -17h-16q-131 121 -495 503h-25q-518 -528 -528 -528q-12 0 -25 25v1374zM224 964v-453h9q209 189 209 243q0 12 -209 210h-9zM769 721q3 -47 201 -227h9v436h-9
q-162 -141 -201 -209z" />
    <glyph glyph-name="asterisk" unicode="*" horiz-adv-x="931" 
d="M48 1428q27 0 672 -367q151 -78 160 -99q-59 -51 -199 -122q-145 -99 -168 -99v-8q101 -80 321 -206q46 -27 46 -38v-8q-165 -120 -817 -481h-8l-15 23v1367zM277 1031v-153q2 -15 15 -15h8q74 40 137 92q-13 0 -145 91q-15 -2 -15 -15zM277 557v-183q2 -15 15 -15
q144 86 145 99v23q-109 59 -145 92q-15 -3 -15 -16z" />
    <glyph glyph-name="plus" unicode="+" horiz-adv-x="941" 
d="M65 1433h54l449 -175q23 -20 122 -46l198 -84v-8q-22 -93 -68 -167q-239 68 -496 175h-22q-16 -2 -16 -15v-168q43 -41 435 -168q106 -49 106 -60v-16q-30 -51 -53 -160h-7q-50 0 -404 130q0 12 -69 15l-8 -15v-648q0 -11 -23 -23h-190q-11 0 -23 23v1395q2 15 15 15z
" />
    <glyph glyph-name="comma" unicode="," horiz-adv-x="684" 
d="M209 -4v282h300v-484z" />
    <glyph glyph-name="hyphen" unicode="-" horiz-adv-x="928" 
d="M55 1433h31q21 0 316 -169q218 -102 485 -270v-8q-19 -44 -400 -208q-193 -99 -193 -108q-7 -13 -7 -31v-616q0 -11 -24 -23h-192q-12 0 -31 31v1387q2 15 15 15zM287 1055v-130h7q126 37 139 69v8z" />
    <glyph glyph-name="hyphen" unicode="&#xad;" horiz-adv-x="928" 
d="M55 1433h31q21 0 316 -169q218 -102 485 -270v-8q-19 -44 -400 -208q-193 -99 -193 -108q-7 -13 -7 -31v-616q0 -11 -24 -23h-192q-12 0 -31 31v1387q2 15 15 15zM287 1055v-130h7q126 37 139 69v8z" />
    <glyph glyph-name="period" unicode="." horiz-adv-x="735" 
d="M225 4v282h300v-282h-300z" />
    <glyph glyph-name="slash" unicode="/" horiz-adv-x="1105" 
d="M874 1425q180 -150 180 -188q-170 -129 -598 -516v-17q438 -397 590 -516v-16q0 -5 -172 -172q-423 349 -844 721v8q76 85 508 426q310 269 336 270z" />
    <glyph glyph-name="zero" unicode="0" horiz-adv-x="764" 
d="M55 1428h15q22 -2 570 -319q37 -4 84 -61q-66 -106 -130 -167h-7l-281 167h-31v-980q0 -7 -7 -7l7 -15v-16q0 -11 -30 -30h-175q-11 0 -30 30v1383q2 15 15 15z" />
    <glyph glyph-name="one" unicode="1" horiz-adv-x="1134" 
d="M1048 1428h15q25 0 30 -84q0 -45 -7 -136l7 -38q-7 -50 -7 -99v-53q0 -23 7 -23l-7 -38v-934q0 -11 -23 -23h-182q-15 0 -15 15v570q0 41 -107 99q-104 91 -190 136h-22q-131 -84 -320 -228v-144q0 -114 8 -266l-8 -30q8 -40 8 -76v-53q0 -11 -23 -23h-167q-15 0 -15 15
v1383q0 11 23 22q12 0 167 -114l334 -227h30q450 349 464 349zM227 1041l8 -54v-144q42 0 144 106l-129 99h-7zM744 942l137 -91q15 0 15 15v159l-8 16q-81 -32 -144 -99z" />
    <glyph glyph-name="two" unicode="2" horiz-adv-x="1110" 
d="M443 1436q153 -8 212 -8l8 -15v-592l395 -350q-45 -80 -129 -152h-8q-71 48 -250 198h-8v-502q0 -15 -15 -15h-205q-11 0 -23 23v691l-380 327v15q8 28 144 152q40 -16 213 -175h23v380q0 11 23 23z" />
    <glyph glyph-name="three" unicode="3" horiz-adv-x="1234" 
d="M605 1433h8q139 -137 511 -496v-15q-52 -52 -325 -341v-8q65 -85 287 -310q93 -98 93 -116q-124 -147 -155 -147q-13 0 -171 170q-10 0 -217 225h-15q-95 -84 -387 -395h-39q-91 65 -155 139v8l403 426q0 14 -248 248l-93 101v8q484 503 503 503zM598 1108l-147 -163v-15
q0 -19 154 -163h8q11 0 171 170v8q-158 163 -186 163z" />
    <glyph glyph-name="four" unicode="4" horiz-adv-x="931" 
d="M751 1436q116 -108 116 -116v-15q-13 -34 -261 -275h-22q-30 14 -355 116q0 -15 -15 -15q7 -193 7 -304v-399q0 -36 -7 -109l22 -14h29q309 137 341 137l275 -282v-15q-69 -95 -130 -145l-196 203h-15q-248 -87 -478 -188h-7q-15 0 -15 14v1378q0 14 22 14
q370 -118 442 -159h58z" />
    <glyph glyph-name="five" unicode="5" horiz-adv-x="925" 
d="M63 1433h15l679 -412q91 -56 91 -68q-111 -86 -412 -267l-7 -15l449 -419v-23q-108 -122 -114 -122q-95 64 -434 366q-60 53 -84 53q0 -8 -8 -8q8 -193 8 -282v-213q0 -11 -23 -23h-168q-15 0 -15 15v1395q0 11 23 23zM246 1098l-8 -38v-8q0 -59 8 -107q-8 -39 -8 -91h38
q102 45 191 114q0 8 -145 92q-2 5 -76 38z" />
    <glyph glyph-name="six" unicode="6" horiz-adv-x="888" 
d="M550 1431h8q6 0 91 -107v-22q-190 -175 -335 -282v-23l327 -274q99 -54 206 -183v-7q-354 -424 -472 -533q-122 97 -122 122q99 122 350 396v7q-80 72 -548 426l-15 23q417 415 510 457z" />
    <glyph glyph-name="seven" unicode="7" horiz-adv-x="799" 
d="M66 1436h173q16 -2 16 -16v-244q66 -74 371 -308q126 -98 126 -111q-19 -37 -426 -331q-71 -49 -71 -63v-339q0 -16 -16 -16h-110l-55 -8l-24 32v1388q2 16 16 16zM255 868v-221h24q132 73 150 103q-25 37 -158 118h-16z" />
    <glyph glyph-name="eight" unicode="8" horiz-adv-x="1137" 
d="M456 981l-265 -211h-8q-133 127 -133 166l522 497q28 0 464 -439q66 -54 66 -75q-9 -43 -141 -157q-190 169 -256 219v-985h-249v985z" />
    <glyph glyph-name="nine" unicode="9" horiz-adv-x="936" 
d="M73 1433q93 -31 655 -300q102 -41 169 -85v-1025q0 -11 -23 -23h-169q-11 0 -23 23v855q-52 47 -409 208h-7v-1055q0 -12 -31 -31h-69q-116 0 -116 46q0 206 8 247q-8 284 -8 516v593z" />
    <glyph glyph-name="colon" unicode=":" horiz-adv-x="735" 
d="M225 272v282h300v-282h-300zM225 789v282h300v-282h-300z" />
    <glyph glyph-name="semicolon" unicode=";" horiz-adv-x="735" 
d="M225 272v282h300v-484zM225 789v282h300v-282h-300z" />
    <glyph glyph-name="semicolon" unicode="&#x37e;" horiz-adv-x="735" 
d="M225 272v282h300v-484zM225 789v282h300v-282h-300z" />
    <glyph glyph-name="less" unicode="&#x3c;" 
 />
    <glyph glyph-name="equal" unicode="=" 
 />
    <glyph glyph-name="greater" unicode="&#x3e;" 
 />
    <glyph glyph-name="question" unicode="?" horiz-adv-x="748" 
 />
    <glyph glyph-name="at" unicode="@" horiz-adv-x="1751" 
d="M50 1428h20q11 -2 11 -10v-117q1 -10 10 -10h5q10 0 10 10v117q1 10 10 10h25q10 -2 10 -10v-117q2 -10 11 -10h5q10 0 10 10v117q1 10 10 10h25q10 -2 10 -10v-127q-10 -17 -55 -45h-5l-31 20h-5l-30 -20h-5q-51 34 -51 40v132q2 10 10 10zM475 1428h46q27 0 61 -41
v-106q-1 -8 -46 -35h-61q-10 0 -10 10v162q2 10 10 10zM602 1428h76q10 -2 10 -10v-15q0 -10 -10 -10h-46v-87l11 -15l25 5q8 0 20 -20q-3 -12 -40 -30q-32 15 -56 40v132q2 10 10 10zM713 1428h26q10 -2 10 -10v-112l-5 -10q19 -15 30 -15v137q2 10 10 10h26q10 -2 10 -10
v-162q0 -10 -10 -10h-61q-45 27 -46 35v137q2 10 10 10zM835 1428h96q10 -2 10 -10v-15q0 -10 -10 -10h-25v-137q0 -10 -10 -10h-26q-10 0 -10 10v137h-25q-10 0 -10 10v15q1 10 10 10zM962 1428h96q10 -2 10 -10v-15q0 -10 -10 -10h-25v-137q0 -10 -11 -10h-25
q-10 0 -10 10v126l-36 21v15q2 10 11 10zM1083 1428h76q10 -2 10 -10v-15q0 -10 -10 -10h-40v-31q25 0 25 -10v-15q0 -10 -25 -10v-26q1 -10 10 -10l25 5l20 -20q-22 -19 -45 -30q-56 33 -56 40v132q2 10 10 10zM1195 1428h96q10 -2 10 -10v-71q-22 -30 -41 -30
q41 -36 41 -41v-25q0 -10 -10 -10q-1 5 -56 40h-5v-25q0 -10 -10 -10h-25q-11 0 -11 10v162q2 10 11 10zM1412 1428h76q10 -2 10 -10v-15q0 -10 -10 -10h-45v-31q30 0 30 -10v-15q0 -10 -30 -10v-31q5 0 15 -5q10 5 15 5q23 -9 25 -20q-3 -12 -40 -30q-32 15 -56 40v132
q2 10 10 10zM278 1423h10q46 -28 51 -41v-96q-24 -25 -56 -40q-32 15 -56 40v96q5 13 51 41zM394 1423q31 0 61 -41v-96q-38 -38 -61 -40q-45 34 -45 40v101q0 7 45 36zM1559 1423q25 0 46 -25v-11q-8 0 -21 -10l-25 5l-10 -15q66 -34 71 -50v-31q-5 -13 -56 -40
q-55 33 -55 40v20q5 16 30 16q12 -10 20 -10v-11l-5 -10q5 0 15 -5l15 20q-14 0 -75 51v25q0 8 50 41zM1230 1393v-56q25 13 25 20v36h-25zM511 1387v-106h5q20 8 20 15v76q0 8 -15 15h-10zM268 1372l5 -10v-66q2 -10 10 -10q10 0 10 10v76q0 10 -10 10zM394 1382l-5 -10
v-71q0 -7 16 -15l10 15v76zM1341 1281h21q10 -1 10 -10v-15q0 -10 -10 -10h-21q-10 0 -10 10v15q2 10 10 10zM1346 1180h259q10 -2 10 -10v-66q0 -10 -10 -10h-152v-253q0 -10 35 -31q36 24 36 31q-36 17 -36 25q69 56 81 56q31 -16 71 -51v-61q-63 -59 -152 -111
q-105 63 -152 111v360q2 10 10 10zM55 1175h96q11 -2 11 -10v-324q20 -31 40 -31l30 31v324q2 10 11 10h91q10 -2 10 -10v-360q-13 -20 -147 -106q-75 43 -152 106v360q2 10 10 10zM379 1175h102q10 -2 10 -10v-456q0 -10 -10 -10h-102q-10 0 -10 10v456q2 10 10 10z
M526 1175h101q11 -2 11 -10v-223h5q65 39 65 45v178q2 10 11 10h101q10 -2 10 -10v-208q-24 -30 -122 -86v-5q89 -43 122 -76v-86q0 -10 -10 -10h-5q-18 0 -177 106v-91q0 -10 -11 -10h-101q-10 0 -10 10v456q2 10 10 10zM865 1175h102q10 -2 10 -10v-456q0 -10 -10 -10
h-102q-10 0 -10 10v456q2 10 10 10zM1012 1175h96q20 0 81 -51h6v41q1 10 10 10h101q10 -2 10 -10v-456q0 -10 -10 -10h-101q-10 0 -10 10v294q-18 20 -76 55v-349q0 -10 -11 -10h-96q-10 0 -10 10v456q2 10 10 10zM75 643h137q10 -1 10 -10v-385h102v380q0 7 15 15h126
q8 0 16 -15v-618q0 -10 -11 -10h-136q-10 0 -10 10v106h-102v-106q0 -10 -10 -10h-137q-10 0 -10 10v299q0 5 5 5l-5 10v309q2 10 10 10zM521 643h314q10 -1 10 -10v-96q0 -10 -10 -10h-172v-117h86q7 0 15 -15v-86q0 -10 -10 -10h-91v-107q2 -9 45 -40h5q24 21 46 35h5
q70 -43 101 -76q-107 -86 -162 -111l-192 142v491q2 10 10 10zM911 643h137q10 -1 10 -10v-496h35q17 0 81 45q87 -49 112 -81q-131 -101 -157 -101h-218q-10 0 -10 10v623q1 10 10 10zM1331 643h132q10 -1 10 -10v-486q2 -10 10 -10h41l66 45h5q106 -69 111 -81l-147 -101
h-228q-10 0 -10 10v623q2 10 10 10z" />
    <glyph glyph-name="A" unicode="A" horiz-adv-x="968" 
d="M481 1431h5q395 -270 441 -310v-1110q0 -11 -11 -11h-310q-11 0 -11 11v239h-223v-239q0 -11 -11 -11h-310q-11 0 -11 11v1110q33 28 441 310zM372 1007v-479h223v484q-1 4 -109 93q-85 -62 -114 -98z" />
    <glyph glyph-name="B" unicode="B" horiz-adv-x="998" 
d="M51 1431h877q11 -2 11 -11v-492l-181 -170q188 -113 204 -130v-362q-13 -19 -373 -266h-538q-11 0 -11 11v1409q2 11 11 11zM385 1165v-288h113q8 0 119 118v170h-232zM385 628v-334h113q118 79 119 85v170q-104 79 -130 79h-102z" />
    <glyph glyph-name="C" unicode="C" horiz-adv-x="880" 
d="M106 1444l27 -5h454q12 0 22 5q9 -5 22 -5h147q11 -2 11 -11v-236q0 -11 -11 -11h-246q-43 0 -115 -5q-5 5 -43 5v-760q102 -93 120 -93q78 76 109 88q205 -134 241 -170v-5l-355 -241h-11q-418 292 -438 312v1116q2 11 11 11h38q17 0 17 5z" />
    <glyph glyph-name="D" unicode="D" horiz-adv-x="1008" 
d="M57 1431h515q30 0 390 -266v-899q-36 -37 -373 -266h-543v656q0 17 -6 17l6 28v719q1 11 11 11zM385 1131v-837h102q28 0 136 91v220q0 17 -6 17l6 28v396q-104 85 -131 85h-107z" />
    <glyph glyph-name="E" unicode="E" horiz-adv-x="869" 
d="M363 1441q10 -5 22 -5h93q12 0 21 5q10 -5 22 -5h71q17 0 17 5l27 -5h131q11 -2 11 -11v-235q0 -11 -11 -11h-404v-262h218q11 -2 11 -11v-229q0 -11 -11 -11h-218v-246q1 -4 109 -92h6q103 87 114 87q204 -133 240 -169v-6l-354 -240h-11q-417 292 -437 311v633
q0 30 5 77q-5 1 -5 54q0 49 5 66q-5 47 -5 82v202q2 11 11 11h300q12 0 22 5z" />
    <glyph glyph-name="F" unicode="F" horiz-adv-x="869" 
d="M481 1433h6q273 -191 354 -240v-16q-16 -7 -245 -164h-6q-2 10 -103 77h-6q-99 -71 -109 -71v-240h218q11 -2 11 -11v-229q0 -10 -11 -10h-218v-518q0 -11 -11 -11h-310q-11 0 -11 11v1111q5 11 441 311z" />
    <glyph glyph-name="G" unicode="G" horiz-adv-x="973" 
d="M494 1444l33 -5h317q11 -2 11 -11v-236q0 -11 -11 -11h-470v-760q0 -7 109 -93q39 24 115 93q-110 71 -115 71v6q8 15 235 169q29 0 214 -142v-213q-431 -312 -449 -312q-384 258 -443 312v1116q2 11 11 11h416q18 0 27 5z" />
    <glyph glyph-name="H" unicode="H" horiz-adv-x="995" 
d="M41 1434h322q11 -2 11 -12v-869h237v869q2 12 12 12h316q11 -2 11 -12v-1411q0 -11 -11 -11h-316q-12 0 -12 11v249h-237v-249q0 -11 -11 -11h-322q-11 0 -11 11v616q0 32 6 90q-6 0 -6 62v45q0 6 6 6l-6 11v581q2 12 11 12z" />
    <glyph glyph-name="I" unicode="I" horiz-adv-x="434" 
d="M51 1433h322q11 -2 11 -11v-1411q0 -11 -11 -11h-322q-11 0 -11 11v1411q2 11 11 11z" />
    <glyph glyph-name="J" unicode="J" horiz-adv-x="912" 
d="M541 1433h311q11 -2 11 -11v-1117q-1 -5 -436 -305q-52 16 -387 262v10q113 97 234 164q29 -18 147 -115q109 92 109 99v1002q2 11 11 11z" />
    <glyph glyph-name="K" unicode="K" horiz-adv-x="1011" 
d="M51 1433h323q11 -2 11 -11v-714l233 153v561q1 11 11 11h323q11 -2 11 -11v-669q-1 -6 -357 -243q317 -185 357 -227v-339h-11l-567 373v-311q0 -12 -11 -12h-323q-11 0 -11 12v1416q2 11 11 11z" />
    <glyph glyph-name="L" unicode="L" horiz-adv-x="941" 
d="M61 1436h317q11 -2 11 -11v-1125h119l153 107q218 -155 248 -170v-11q-307 -226 -333 -226h-515q-11 0 -11 11v1414q2 11 11 11z" />
    <glyph glyph-name="M" unicode="M" horiz-adv-x="1545" 
d="M486 1433q18 0 283 -185h11q33 27 262 185q21 0 376 -251q76 -50 76 -60v-152q0 -16 -6 -16l6 -28v-915q0 -11 -11 -11h-311q-10 0 -10 11v1002q-1 9 -115 99q-109 -95 -109 -99v-256q0 -48 -5 -109q5 -16 5 -76q0 -38 -5 -43q5 -56 5 -88v-430q0 -11 -11 -11h-310
q-11 0 -11 11v1002q0 5 -115 99q-114 -97 -114 -104v-27q0 -17 5 -17l-5 -27v-926q0 -11 -11 -11h-305q-11 0 -11 11v1117q1 5 436 305z" />
    <glyph glyph-name="N" unicode="N" horiz-adv-x="1008" 
d="M51 1433h328l231 -175h5v164q2 11 12 11h321q12 -2 12 -11v-1411q0 -11 -12 -11h-321q-12 0 -12 11v903q-3 9 -231 164h-5v-1067q0 -11 -12 -11h-316q-11 0 -11 11v1411q2 11 11 11z" />
    <glyph glyph-name="O" unicode="O" horiz-adv-x="936" 
d="M465 1431q403 -272 424 -299v-833q-42 -43 -424 -299h-11q-2 7 -409 288l-5 11v833q42 43 425 299zM355 1022v-613q24 -32 110 -94q97 74 110 94v613q-13 20 -110 94q-83 -59 -110 -94z" />
    <glyph glyph-name="P" unicode="P" horiz-adv-x="1008" 
d="M51 1428h894q11 -2 11 -11v-647q-350 -249 -573 -393v-366q0 -11 -11 -11h-321q-11 0 -11 11v1406q2 11 11 11zM383 1158v-455q185 121 230 163v292h-230z" />
    <glyph glyph-name="Q" unicode="Q" horiz-adv-x="944" 
d="M465 1433h5q421 -289 426 -299v-835q-411 -299 -436 -299l-84 63l-100 -63q-217 144 -231 163l84 68q-89 60 -89 68v835q8 13 425 299zM460 1118l-100 -89v-625q0 -3 105 -89q10 0 110 89v630q-105 84 -115 84z" />
    <glyph glyph-name="R" unicode="R" 
d="M61 1433h900q11 -2 11 -11v-645q-29 -34 -351 -243q347 -242 351 -249v-334l-6 -11l-571 390v-322q0 -11 -11 -11h-323q-11 0 -11 11v1414q2 11 11 11zM395 1162v-459q231 159 232 164v295h-232z" />
    <glyph glyph-name="S" unicode="S" horiz-adv-x="933" 
d="M470 1431q299 -199 341 -236v-5q0 -4 -231 -163l-110 89q-147 -109 -157 -125q529 -341 581 -383v-309q-153 -122 -435 -299h-5q-40 36 -409 288l-5 11v209q0 4 162 116h11q230 -157 231 -163q-84 -56 -84 -63l105 -83q173 127 173 131q-12 17 -467 319q-126 89 -126 95
v272q57 52 425 299z" />
    <glyph glyph-name="T" unicode="T" horiz-adv-x="984" 
d="M51 1436h882q12 -2 12 -11v-249q0 -11 -12 -11h-277v-1154q0 -11 -11 -11h-317q-11 0 -11 11v1154h-266q-11 0 -11 11v249q2 11 11 11z" />
    <glyph glyph-name="U" unicode="U" horiz-adv-x="1006" 
d="M57 1431h316q11 -2 11 -11v-1037q107 -90 135 -90h102v1127q1 11 11 11h315q12 -2 12 -11v-1409q0 -11 -12 -11h-529q-336 228 -372 265v1155q2 11 11 11z" />
    <glyph glyph-name="V" unicode="V" horiz-adv-x="968" 
d="M51 1433h309q11 -2 11 -11v-1004q2 -4 109 -92q9 0 114 92v1004q1 11 11 11h309q11 -2 11 -11v-1113q-37 -36 -440 -309h-5q-405 274 -440 309v1113q2 11 11 11z" />
    <glyph glyph-name="W" unicode="W" horiz-adv-x="1523" 
d="M51 1428h308q11 -2 11 -11v-1006l114 -86q108 91 108 97v995q1 11 11 11h308q11 -2 11 -11v-1006q12 -5 113 -86q108 91 108 97v995q2 11 11 11h309q10 -2 10 -11v-1109q-429 -307 -449 -308q-254 189 -275 189q-235 -173 -276 -189l-433 308v1109q2 11 11 11z" />
    <glyph glyph-name="X" unicode="X" horiz-adv-x="971" 
d="M51 1433h309q11 -2 11 -11v-499q111 -82 120 -82l103 87v494l5 11q6 0 6 -5l65 5q40 0 59 -5q36 5 71 5h114q11 -2 11 -11v-624q0 -5 -299 -223q11 0 299 -238v-332h-11q-404 323 -434 342l-435 -347l-5 11v320q77 77 299 244l-299 223v624q2 11 11 11z" />
    <glyph glyph-name="Y" unicode="Y" horiz-adv-x="1008" 
d="M61 1436h323q11 -2 11 -11v-571q10 0 113 -85q10 0 119 90v566q1 11 11 11h322q12 -2 12 -11v-679q-18 -22 -289 -209v-526q0 -11 -11 -11h-322q-12 0 -12 11v526q-288 202 -288 209v679q2 11 11 11z" />
    <glyph glyph-name="Z" unicode="Z" horiz-adv-x="1124" 
 />
    <glyph glyph-name="bracketleft" unicode="[" horiz-adv-x="758" 
 />
    <glyph glyph-name="backslash" unicode="\" horiz-adv-x="569" 
 />
    <glyph glyph-name="bracketright" unicode="]" horiz-adv-x="758" 
 />
    <glyph glyph-name="asciicircum" unicode="^" 
 />
    <glyph glyph-name="underscore" unicode="_" horiz-adv-x="1024" 
 />
    <glyph glyph-name="grave" unicode="`" horiz-adv-x="1024" 
 />
    <glyph glyph-name="a" unicode="a" horiz-adv-x="968" 
d="M481 1431h5q395 -270 441 -310v-1110q0 -11 -11 -11h-310q-11 0 -11 11v239h-223v-239q0 -11 -11 -11h-310q-11 0 -11 11v1110q33 28 441 310zM372 1007v-479h223v484q-1 4 -109 93q-85 -62 -114 -98z" />
    <glyph glyph-name="b" unicode="b" horiz-adv-x="998" 
d="M51 1431h877q11 -2 11 -11v-492l-181 -170q188 -113 204 -130v-362q-13 -19 -373 -266h-538q-11 0 -11 11v1409q2 11 11 11zM385 1165v-288h113q8 0 119 118v170h-232zM385 628v-334h113q118 79 119 85v170q-104 79 -130 79h-102z" />
    <glyph glyph-name="c" unicode="c" horiz-adv-x="880" 
d="M106 1444l27 -5h454q12 0 22 5q9 -5 22 -5h147q11 -2 11 -11v-236q0 -11 -11 -11h-246q-43 0 -115 -5q-5 5 -43 5v-760q102 -93 120 -93q78 76 109 88q205 -134 241 -170v-5l-355 -241h-11q-418 292 -438 312v1116q2 11 11 11h38q17 0 17 5z" />
    <glyph glyph-name="d" unicode="d" horiz-adv-x="1008" 
d="M57 1431h515q30 0 390 -266v-899q-36 -37 -373 -266h-543v656q0 17 -6 17l6 28v719q1 11 11 11zM385 1131v-837h102q28 0 136 91v220q0 17 -6 17l6 28v396q-104 85 -131 85h-107z" />
    <glyph glyph-name="e" unicode="e" horiz-adv-x="869" 
d="M363 1441q10 -5 22 -5h93q12 0 21 5q10 -5 22 -5h71q17 0 17 5l27 -5h131q11 -2 11 -11v-235q0 -11 -11 -11h-404v-262h218q11 -2 11 -11v-229q0 -11 -11 -11h-218v-246q1 -4 109 -92h6q103 87 114 87q204 -133 240 -169v-6l-354 -240h-11q-417 292 -437 311v633
q0 30 5 77q-5 1 -5 54q0 49 5 66q-5 47 -5 82v202q2 11 11 11h300q12 0 22 5z" />
    <glyph glyph-name="f" unicode="f" horiz-adv-x="869" 
d="M481 1433h6q273 -191 354 -240v-16q-16 -7 -245 -164h-6q-2 10 -103 77h-6q-99 -71 -109 -71v-240h218q11 -2 11 -11v-229q0 -10 -11 -10h-218v-518q0 -11 -11 -11h-310q-11 0 -11 11v1111q5 11 441 311z" />
    <glyph glyph-name="g" unicode="g" horiz-adv-x="973" 
d="M494 1444l33 -5h317q11 -2 11 -11v-236q0 -11 -11 -11h-470v-760q0 -7 109 -93q39 24 115 93q-110 71 -115 71v6q8 15 235 169q29 0 214 -142v-213q-431 -312 -449 -312q-384 258 -443 312v1116q2 11 11 11h416q18 0 27 5z" />
    <glyph glyph-name="h" unicode="h" horiz-adv-x="995" 
d="M41 1434h322q11 -2 11 -12v-869h237v869q2 12 12 12h316q11 -2 11 -12v-1411q0 -11 -11 -11h-316q-12 0 -12 11v249h-237v-249q0 -11 -11 -11h-322q-11 0 -11 11v616q0 32 6 90q-6 0 -6 62v45q0 6 6 6l-6 11v581q2 12 11 12z" />
    <glyph glyph-name="i" unicode="i" horiz-adv-x="434" 
d="M51 1433h322q11 -2 11 -11v-1411q0 -11 -11 -11h-322q-11 0 -11 11v1411q2 11 11 11z" />
    <glyph glyph-name="j" unicode="j" horiz-adv-x="912" 
d="M541 1433h311q11 -2 11 -11v-1117q-1 -5 -436 -305q-52 16 -387 262v10q113 97 234 164q29 -18 147 -115q109 92 109 99v1002q2 11 11 11z" />
    <glyph glyph-name="k" unicode="k" horiz-adv-x="1011" 
d="M51 1433h323q11 -2 11 -11v-714l233 153v561q1 11 11 11h323q11 -2 11 -11v-669q-1 -6 -357 -243q317 -185 357 -227v-339h-11l-567 373v-311q0 -12 -11 -12h-323q-11 0 -11 12v1416q2 11 11 11z" />
    <glyph glyph-name="l" unicode="l" horiz-adv-x="941" 
d="M61 1436h317q11 -2 11 -11v-1125h119l153 107q218 -155 248 -170v-11q-307 -226 -333 -226h-515q-11 0 -11 11v1414q2 11 11 11z" />
    <glyph glyph-name="m" unicode="m" horiz-adv-x="1545" 
d="M486 1433q18 0 283 -185h11q33 27 262 185q21 0 376 -251q76 -50 76 -60v-152q0 -16 -6 -16l6 -28v-915q0 -11 -11 -11h-311q-10 0 -10 11v1002q-1 9 -115 99q-109 -95 -109 -99v-256q0 -48 -5 -109q5 -16 5 -76q0 -38 -5 -43q5 -56 5 -88v-430q0 -11 -11 -11h-310
q-11 0 -11 11v1002q0 5 -115 99q-114 -97 -114 -104v-27q0 -17 5 -17l-5 -27v-926q0 -11 -11 -11h-305q-11 0 -11 11v1117q1 5 436 305z" />
    <glyph glyph-name="n" unicode="n" horiz-adv-x="1008" 
d="M51 1433h328l231 -175h5v164q2 11 12 11h321q12 -2 12 -11v-1411q0 -11 -12 -11h-321q-12 0 -12 11v903q-3 9 -231 164h-5v-1067q0 -11 -12 -11h-316q-11 0 -11 11v1411q2 11 11 11z" />
    <glyph glyph-name="o" unicode="o" horiz-adv-x="936" 
d="M465 1431q403 -272 424 -299v-833q-42 -43 -424 -299h-11q-2 7 -409 288l-5 11v833q42 43 425 299zM355 1022v-613q24 -32 110 -94q97 74 110 94v613q-13 20 -110 94q-83 -59 -110 -94z" />
    <glyph glyph-name="p" unicode="p" horiz-adv-x="1008" 
d="M51 1428h894q11 -2 11 -11v-647q-350 -249 -573 -393v-366q0 -11 -11 -11h-321q-11 0 -11 11v1406q2 11 11 11zM383 1158v-455q185 121 230 163v292h-230z" />
    <glyph glyph-name="q" unicode="q" horiz-adv-x="944" 
d="M465 1433h5q421 -289 426 -299v-835q-411 -299 -436 -299l-84 63l-100 -63q-217 144 -231 163l84 68q-89 60 -89 68v835q8 13 425 299zM460 1118l-100 -89v-625q0 -3 105 -89q10 0 110 89v630q-105 84 -115 84z" />
    <glyph glyph-name="r" unicode="r" 
d="M61 1433h900q11 -2 11 -11v-645q-29 -34 -351 -243q347 -242 351 -249v-334l-6 -11l-571 390v-322q0 -11 -11 -11h-323q-11 0 -11 11v1414q2 11 11 11zM395 1162v-459q231 159 232 164v295h-232z" />
    <glyph glyph-name="s" unicode="s" horiz-adv-x="933" 
d="M470 1431q299 -199 341 -236v-5q0 -4 -231 -163l-110 89q-147 -109 -157 -125q529 -341 581 -383v-309q-153 -122 -435 -299h-5q-40 36 -409 288l-5 11v209q0 4 162 116h11q230 -157 231 -163q-84 -56 -84 -63l105 -83q173 127 173 131q-12 17 -467 319q-126 89 -126 95
v272q57 52 425 299z" />
    <glyph glyph-name="t" unicode="t" horiz-adv-x="984" 
d="M51 1436h882q12 -2 12 -11v-249q0 -11 -12 -11h-277v-1154q0 -11 -11 -11h-317q-11 0 -11 11v1154h-266q-11 0 -11 11v249q2 11 11 11z" />
    <glyph glyph-name="u" unicode="u" horiz-adv-x="1006" 
d="M57 1431h316q11 -2 11 -11v-1037q107 -90 135 -90h102v1127q1 11 11 11h315q12 -2 12 -11v-1409q0 -11 -12 -11h-529q-336 228 -372 265v1155q2 11 11 11z" />
    <glyph glyph-name="v" unicode="v" horiz-adv-x="968" 
d="M51 1433h309q11 -2 11 -11v-1004q2 -4 109 -92q9 0 114 92v1004q1 11 11 11h309q11 -2 11 -11v-1113q-37 -36 -440 -309h-5q-405 274 -440 309v1113q2 11 11 11z" />
    <glyph glyph-name="w" unicode="w" horiz-adv-x="1523" 
d="M51 1428h308q11 -2 11 -11v-1006l114 -86q108 91 108 97v995q1 11 11 11h308q11 -2 11 -11v-1006q12 -5 113 -86q108 91 108 97v995q2 11 11 11h309q10 -2 10 -11v-1109q-429 -307 -449 -308q-254 189 -275 189q-235 -173 -276 -189l-433 308v1109q2 11 11 11z" />
    <glyph glyph-name="x" unicode="x" horiz-adv-x="971" 
d="M51 1433h309q11 -2 11 -11v-499q111 -82 120 -82l103 87v494l5 11q6 0 6 -5l65 5q40 0 59 -5q36 5 71 5h114q11 -2 11 -11v-624q0 -5 -299 -223q11 0 299 -238v-332h-11q-404 323 -434 342l-435 -347l-5 11v320q77 77 299 244l-299 223v624q2 11 11 11z" />
    <glyph glyph-name="y" unicode="y" horiz-adv-x="1008" 
d="M61 1436h323q11 -2 11 -11v-571q10 0 113 -85q10 0 119 90v566q1 11 11 11h322q12 -2 12 -11v-679q-18 -22 -289 -209v-526q0 -11 -11 -11h-322q-12 0 -12 11v526q-288 202 -288 209v679q2 11 11 11z" />
    <glyph glyph-name="z" unicode="z" horiz-adv-x="727" 
 />
    <glyph glyph-name="braceleft" unicode="{" 
 />
    <glyph glyph-name="bar" unicode="|" 
 />
    <glyph glyph-name="braceright" unicode="}" 
 />
    <glyph glyph-name="asciitilde" unicode="~" 
 />
    <glyph glyph-name="exclamdown" unicode="&#xa1;" horiz-adv-x="672" 
 />
    <glyph glyph-name="cent" unicode="&#xa2;" horiz-adv-x="1139" 
 />
    <glyph glyph-name="sterling" unicode="&#xa3;" 
 />
    <glyph glyph-name="currency" unicode="&#xa4;" 
 />
    <glyph glyph-name="yen" unicode="&#xa5;" horiz-adv-x="1262" 
 />
    <glyph glyph-name="brokenbar" unicode="&#xa6;" 
 />
    <glyph glyph-name="section" unicode="&#xa7;" 
 />
    <glyph glyph-name="dieresis" unicode="&#xa8;" horiz-adv-x="1024" 
 />
    <glyph glyph-name="copyright" unicode="&#xa9;" horiz-adv-x="1751" 
d="M50 1428h20q11 -2 11 -10v-117q1 -10 10 -10h5q10 0 10 10v117q1 10 10 10h25q10 -2 10 -10v-117q2 -10 11 -10h5q10 0 10 10v117q1 10 10 10h25q10 -2 10 -10v-127q-10 -17 -55 -45h-5l-31 20h-5l-30 -20h-5q-51 34 -51 40v132q2 10 10 10zM475 1428h46q27 0 61 -41
v-106q-1 -8 -46 -35h-61q-10 0 -10 10v162q2 10 10 10zM602 1428h76q10 -2 10 -10v-15q0 -10 -10 -10h-46v-87l11 -15l25 5q8 0 20 -20q-3 -12 -40 -30q-32 15 -56 40v132q2 10 10 10zM713 1428h26q10 -2 10 -10v-112l-5 -10q19 -15 30 -15v137q2 10 10 10h26q10 -2 10 -10
v-162q0 -10 -10 -10h-61q-45 27 -46 35v137q2 10 10 10zM835 1428h96q10 -2 10 -10v-15q0 -10 -10 -10h-25v-137q0 -10 -10 -10h-26q-10 0 -10 10v137h-25q-10 0 -10 10v15q1 10 10 10zM962 1428h96q10 -2 10 -10v-15q0 -10 -10 -10h-25v-137q0 -10 -11 -10h-25
q-10 0 -10 10v126l-36 21v15q2 10 11 10zM1083 1428h76q10 -2 10 -10v-15q0 -10 -10 -10h-40v-31q25 0 25 -10v-15q0 -10 -25 -10v-26q1 -10 10 -10l25 5l20 -20q-22 -19 -45 -30q-56 33 -56 40v132q2 10 10 10zM1195 1428h96q10 -2 10 -10v-71q-22 -30 -41 -30
q41 -36 41 -41v-25q0 -10 -10 -10q-1 5 -56 40h-5v-25q0 -10 -10 -10h-25q-11 0 -11 10v162q2 10 11 10zM1412 1428h76q10 -2 10 -10v-15q0 -10 -10 -10h-45v-31q30 0 30 -10v-15q0 -10 -30 -10v-31q5 0 15 -5q10 5 15 5q23 -9 25 -20q-3 -12 -40 -30q-32 15 -56 40v132
q2 10 10 10zM278 1423h10q46 -28 51 -41v-96q-24 -25 -56 -40q-32 15 -56 40v96q5 13 51 41zM394 1423q31 0 61 -41v-96q-38 -38 -61 -40q-45 34 -45 40v101q0 7 45 36zM1559 1423q25 0 46 -25v-11q-8 0 -21 -10l-25 5l-10 -15q66 -34 71 -50v-31q-5 -13 -56 -40
q-55 33 -55 40v20q5 16 30 16q12 -10 20 -10v-11l-5 -10q5 0 15 -5l15 20q-14 0 -75 51v25q0 8 50 41zM1230 1393v-56q25 13 25 20v36h-25zM511 1387v-106h5q20 8 20 15v76q0 8 -15 15h-10zM268 1372l5 -10v-66q2 -10 10 -10q10 0 10 10v76q0 10 -10 10zM394 1382l-5 -10
v-71q0 -7 16 -15l10 15v76zM1341 1281h21q10 -1 10 -10v-15q0 -10 -10 -10h-21q-10 0 -10 10v15q2 10 10 10zM1346 1180h259q10 -2 10 -10v-66q0 -10 -10 -10h-152v-253q0 -10 35 -31q36 24 36 31q-36 17 -36 25q69 56 81 56q31 -16 71 -51v-61q-63 -59 -152 -111
q-105 63 -152 111v360q2 10 10 10zM55 1175h96q11 -2 11 -10v-324q20 -31 40 -31l30 31v324q2 10 11 10h91q10 -2 10 -10v-360q-13 -20 -147 -106q-75 43 -152 106v360q2 10 10 10zM379 1175h102q10 -2 10 -10v-456q0 -10 -10 -10h-102q-10 0 -10 10v456q2 10 10 10z
M526 1175h101q11 -2 11 -10v-223h5q65 39 65 45v178q2 10 11 10h101q10 -2 10 -10v-208q-24 -30 -122 -86v-5q89 -43 122 -76v-86q0 -10 -10 -10h-5q-18 0 -177 106v-91q0 -10 -11 -10h-101q-10 0 -10 10v456q2 10 10 10zM865 1175h102q10 -2 10 -10v-456q0 -10 -10 -10
h-102q-10 0 -10 10v456q2 10 10 10zM1012 1175h96q20 0 81 -51h6v41q1 10 10 10h101q10 -2 10 -10v-456q0 -10 -10 -10h-101q-10 0 -10 10v294q-18 20 -76 55v-349q0 -10 -11 -10h-96q-10 0 -10 10v456q2 10 10 10zM75 643h137q10 -1 10 -10v-385h102v380q0 7 15 15h126
q8 0 16 -15v-618q0 -10 -11 -10h-136q-10 0 -10 10v106h-102v-106q0 -10 -10 -10h-137q-10 0 -10 10v299q0 5 5 5l-5 10v309q2 10 10 10zM521 643h314q10 -1 10 -10v-96q0 -10 -10 -10h-172v-117h86q7 0 15 -15v-86q0 -10 -10 -10h-91v-107q2 -9 45 -40h5q24 21 46 35h5
q70 -43 101 -76q-107 -86 -162 -111l-192 142v491q2 10 10 10zM911 643h137q10 -1 10 -10v-496h35q17 0 81 45q87 -49 112 -81q-131 -101 -157 -101h-218q-10 0 -10 10v623q1 10 10 10zM1331 643h132q10 -1 10 -10v-486q2 -10 10 -10h41l66 45h5q106 -69 111 -81l-147 -101
h-228q-10 0 -10 10v623q2 10 10 10z" />
    <glyph glyph-name="ordfeminine" unicode="&#xaa;" horiz-adv-x="648" 
 />
    <glyph glyph-name="guillemotleft" unicode="&#xab;" horiz-adv-x="944" 
 />
    <glyph glyph-name="logicalnot" unicode="&#xac;" 
 />
    <glyph glyph-name="registered" unicode="&#xae;" horiz-adv-x="1751" 
d="M50 1428h20q11 -2 11 -10v-117q1 -10 10 -10h5q10 0 10 10v117q1 10 10 10h25q10 -2 10 -10v-117q2 -10 11 -10h5q10 0 10 10v117q1 10 10 10h25q10 -2 10 -10v-127q-10 -17 -55 -45h-5l-31 20h-5l-30 -20h-5q-51 34 -51 40v132q2 10 10 10zM475 1428h46q27 0 61 -41
v-106q-1 -8 -46 -35h-61q-10 0 -10 10v162q2 10 10 10zM602 1428h76q10 -2 10 -10v-15q0 -10 -10 -10h-46v-87l11 -15l25 5q8 0 20 -20q-3 -12 -40 -30q-32 15 -56 40v132q2 10 10 10zM713 1428h26q10 -2 10 -10v-112l-5 -10q19 -15 30 -15v137q2 10 10 10h26q10 -2 10 -10
v-162q0 -10 -10 -10h-61q-45 27 -46 35v137q2 10 10 10zM835 1428h96q10 -2 10 -10v-15q0 -10 -10 -10h-25v-137q0 -10 -10 -10h-26q-10 0 -10 10v137h-25q-10 0 -10 10v15q1 10 10 10zM962 1428h96q10 -2 10 -10v-15q0 -10 -10 -10h-25v-137q0 -10 -11 -10h-25
q-10 0 -10 10v126l-36 21v15q2 10 11 10zM1083 1428h76q10 -2 10 -10v-15q0 -10 -10 -10h-40v-31q25 0 25 -10v-15q0 -10 -25 -10v-26q1 -10 10 -10l25 5l20 -20q-22 -19 -45 -30q-56 33 -56 40v132q2 10 10 10zM1195 1428h96q10 -2 10 -10v-71q-22 -30 -41 -30
q41 -36 41 -41v-25q0 -10 -10 -10q-1 5 -56 40h-5v-25q0 -10 -10 -10h-25q-11 0 -11 10v162q2 10 11 10zM1412 1428h76q10 -2 10 -10v-15q0 -10 -10 -10h-45v-31q30 0 30 -10v-15q0 -10 -30 -10v-31q5 0 15 -5q10 5 15 5q23 -9 25 -20q-3 -12 -40 -30q-32 15 -56 40v132
q2 10 10 10zM278 1423h10q46 -28 51 -41v-96q-24 -25 -56 -40q-32 15 -56 40v96q5 13 51 41zM394 1423q31 0 61 -41v-96q-38 -38 -61 -40q-45 34 -45 40v101q0 7 45 36zM1559 1423q25 0 46 -25v-11q-8 0 -21 -10l-25 5l-10 -15q66 -34 71 -50v-31q-5 -13 -56 -40
q-55 33 -55 40v20q5 16 30 16q12 -10 20 -10v-11l-5 -10q5 0 15 -5l15 20q-14 0 -75 51v25q0 8 50 41zM1230 1393v-56q25 13 25 20v36h-25zM511 1387v-106h5q20 8 20 15v76q0 8 -15 15h-10zM268 1372l5 -10v-66q2 -10 10 -10q10 0 10 10v76q0 10 -10 10zM394 1382l-5 -10
v-71q0 -7 16 -15l10 15v76zM1341 1281h21q10 -1 10 -10v-15q0 -10 -10 -10h-21q-10 0 -10 10v15q2 10 10 10zM1346 1180h259q10 -2 10 -10v-66q0 -10 -10 -10h-152v-253q0 -10 35 -31q36 24 36 31q-36 17 -36 25q69 56 81 56q31 -16 71 -51v-61q-63 -59 -152 -111
q-105 63 -152 111v360q2 10 10 10zM55 1175h96q11 -2 11 -10v-324q20 -31 40 -31l30 31v324q2 10 11 10h91q10 -2 10 -10v-360q-13 -20 -147 -106q-75 43 -152 106v360q2 10 10 10zM379 1175h102q10 -2 10 -10v-456q0 -10 -10 -10h-102q-10 0 -10 10v456q2 10 10 10z
M526 1175h101q11 -2 11 -10v-223h5q65 39 65 45v178q2 10 11 10h101q10 -2 10 -10v-208q-24 -30 -122 -86v-5q89 -43 122 -76v-86q0 -10 -10 -10h-5q-18 0 -177 106v-91q0 -10 -11 -10h-101q-10 0 -10 10v456q2 10 10 10zM865 1175h102q10 -2 10 -10v-456q0 -10 -10 -10
h-102q-10 0 -10 10v456q2 10 10 10zM1012 1175h96q20 0 81 -51h6v41q1 10 10 10h101q10 -2 10 -10v-456q0 -10 -10 -10h-101q-10 0 -10 10v294q-18 20 -76 55v-349q0 -10 -11 -10h-96q-10 0 -10 10v456q2 10 10 10zM75 643h137q10 -1 10 -10v-385h102v380q0 7 15 15h126
q8 0 16 -15v-618q0 -10 -11 -10h-136q-10 0 -10 10v106h-102v-106q0 -10 -10 -10h-137q-10 0 -10 10v299q0 5 5 5l-5 10v309q2 10 10 10zM521 643h314q10 -1 10 -10v-96q0 -10 -10 -10h-172v-117h86q7 0 15 -15v-86q0 -10 -10 -10h-91v-107q2 -9 45 -40h5q24 21 46 35h5
q70 -43 101 -76q-107 -86 -162 -111l-192 142v491q2 10 10 10zM911 643h137q10 -1 10 -10v-496h35q17 0 81 45q87 -49 112 -81q-131 -101 -157 -101h-218q-10 0 -10 10v623q1 10 10 10zM1331 643h132q10 -1 10 -10v-486q2 -10 10 -10h41l66 45h5q106 -69 111 -81l-147 -101
h-228q-10 0 -10 10v623q2 10 10 10z" />
    <glyph glyph-name="macron" unicode="&#xaf;" horiz-adv-x="670" 
 />
    <glyph glyph-name="degree" unicode="&#xb0;" horiz-adv-x="674" 
 />
    <glyph glyph-name="plusminus" unicode="&#xb1;" 
 />
    <glyph glyph-name="uni00B2" unicode="&#xb2;" 
 />
    <glyph glyph-name="uni00B3" unicode="&#xb3;" 
 />
    <glyph glyph-name="acute" unicode="&#xb4;" horiz-adv-x="1024" 
 />
    <glyph glyph-name="mu" unicode="&#xb5;" horiz-adv-x="1180" 
 />
    <glyph glyph-name="paragraph" unicode="&#xb6;" horiz-adv-x="1024" 
 />
    <glyph glyph-name="periodcentered" unicode="&#xb7;" horiz-adv-x="508" 
 />
    <glyph glyph-name="periodcentered" unicode="&#x2219;" horiz-adv-x="508" 
 />
    <glyph glyph-name="cedilla" unicode="&#xb8;" horiz-adv-x="1024" 
 />
    <glyph glyph-name="uni00B9" unicode="&#xb9;" 
 />
    <glyph glyph-name="ordmasculine" unicode="&#xba;" horiz-adv-x="718" 
 />
    <glyph glyph-name="guillemotright" unicode="&#xbb;" horiz-adv-x="944" 
 />
    <glyph glyph-name="onequarter" unicode="&#xbc;" horiz-adv-x="1708" 
 />
    <glyph glyph-name="onehalf" unicode="&#xbd;" horiz-adv-x="1964" 
 />
    <glyph glyph-name="threequarters" unicode="&#xbe;" horiz-adv-x="1708" 
 />
    <glyph glyph-name="questiondown" unicode="&#xbf;" horiz-adv-x="748" 
 />
    <glyph glyph-name="Agrave" unicode="&#xc0;" horiz-adv-x="968" 
d="M481 1431h5q395 -270 441 -310v-1110q0 -11 -11 -11h-310q-11 0 -11 11v239h-223v-239q0 -11 -11 -11h-310q-11 0 -11 11v1110q33 28 441 310zM372 1007v-479h223v484q-1 4 -109 93q-85 -62 -114 -98z" />
    <glyph glyph-name="Aacute" unicode="&#xc1;" horiz-adv-x="968" 
d="M481 1431h5q395 -270 441 -310v-1110q0 -11 -11 -11h-310q-11 0 -11 11v239h-223v-239q0 -11 -11 -11h-310q-11 0 -11 11v1110q33 28 441 310zM372 1007v-479h223v484q-1 4 -109 93q-85 -62 -114 -98z" />
    <glyph glyph-name="Acircumflex" unicode="&#xc2;" horiz-adv-x="968" 
d="M481 1431h5q395 -270 441 -310v-1110q0 -11 -11 -11h-310q-11 0 -11 11v239h-223v-239q0 -11 -11 -11h-310q-11 0 -11 11v1110q33 28 441 310zM372 1007v-479h223v484q-1 4 -109 93q-85 -62 -114 -98z" />
    <glyph glyph-name="Atilde" unicode="&#xc3;" horiz-adv-x="968" 
d="M481 1431h5q395 -270 441 -310v-1110q0 -11 -11 -11h-310q-11 0 -11 11v239h-223v-239q0 -11 -11 -11h-310q-11 0 -11 11v1110q33 28 441 310zM372 1007v-479h223v484q-1 4 -109 93q-85 -62 -114 -98z" />
    <glyph glyph-name="Adieresis" unicode="&#xc4;" horiz-adv-x="968" 
d="M481 1431h5q395 -270 441 -310v-1110q0 -11 -11 -11h-310q-11 0 -11 11v239h-223v-239q0 -11 -11 -11h-310q-11 0 -11 11v1110q33 28 441 310zM372 1007v-479h223v484q-1 4 -109 93q-85 -62 -114 -98z" />
    <glyph glyph-name="Aring" unicode="&#xc5;" horiz-adv-x="968" 
d="M481 1431h5q395 -270 441 -310v-1110q0 -11 -11 -11h-310q-11 0 -11 11v239h-223v-239q0 -11 -11 -11h-310q-11 0 -11 11v1110q33 28 441 310zM372 1007v-479h223v484q-1 4 -109 93q-85 -62 -114 -98z" />
    <glyph glyph-name="AE" unicode="&#xc6;" horiz-adv-x="2118" 
 />
    <glyph glyph-name="Ccedilla" unicode="&#xc7;" horiz-adv-x="880" 
d="M167 219q-117 83 -127 93v1116q2 11 11 11h38q17 0 17 5l27 -5h454q12 0 22 5q9 -5 22 -5h147q11 -2 11 -11v-236q0 -11 -11 -11h-246q-43 0 -115 -5q-5 5 -43 5v-760q102 -93 120 -93q78 76 109 88q205 -134 241 -170v-5l-355 -241h-11q-45 32 -86 60l-138 -182
l-220 167z" />
    <glyph glyph-name="Egrave" unicode="&#xc8;" horiz-adv-x="869" 
d="M363 1441q10 -5 22 -5h93q12 0 21 5q10 -5 22 -5h71q17 0 17 5l27 -5h131q11 -2 11 -11v-235q0 -11 -11 -11h-404v-262h218q11 -2 11 -11v-229q0 -11 -11 -11h-218v-246q1 -4 109 -92h6q103 87 114 87q204 -133 240 -169v-6l-354 -240h-11q-417 292 -437 311v633
q0 30 5 77q-5 1 -5 54q0 49 5 66q-5 47 -5 82v202q2 11 11 11h300q12 0 22 5z" />
    <glyph glyph-name="Eacute" unicode="&#xc9;" horiz-adv-x="869" 
d="M363 1441q10 -5 22 -5h93q12 0 21 5q10 -5 22 -5h71q17 0 17 5l27 -5h131q11 -2 11 -11v-235q0 -11 -11 -11h-404v-262h218q11 -2 11 -11v-229q0 -11 -11 -11h-218v-246q1 -4 109 -92h6q103 87 114 87q204 -133 240 -169v-6l-354 -240h-11q-417 292 -437 311v633
q0 30 5 77q-5 1 -5 54q0 49 5 66q-5 47 -5 82v202q2 11 11 11h300q12 0 22 5z" />
    <glyph glyph-name="Ecircumflex" unicode="&#xca;" horiz-adv-x="869" 
d="M363 1441q10 -5 22 -5h93q12 0 21 5q10 -5 22 -5h71q17 0 17 5l27 -5h131q11 -2 11 -11v-235q0 -11 -11 -11h-404v-262h218q11 -2 11 -11v-229q0 -11 -11 -11h-218v-246q1 -4 109 -92h6q103 87 114 87q204 -133 240 -169v-6l-354 -240h-11q-417 292 -437 311v633
q0 30 5 77q-5 1 -5 54q0 49 5 66q-5 47 -5 82v202q2 11 11 11h300q12 0 22 5z" />
    <glyph glyph-name="Edieresis" unicode="&#xcb;" horiz-adv-x="869" 
d="M363 1441q10 -5 22 -5h93q12 0 21 5q10 -5 22 -5h71q17 0 17 5l27 -5h131q11 -2 11 -11v-235q0 -11 -11 -11h-404v-262h218q11 -2 11 -11v-229q0 -11 -11 -11h-218v-246q1 -4 109 -92h6q103 87 114 87q204 -133 240 -169v-6l-354 -240h-11q-417 292 -437 311v633
q0 30 5 77q-5 1 -5 54q0 49 5 66q-5 47 -5 82v202q2 11 11 11h300q12 0 22 5z" />
    <glyph glyph-name="Igrave" unicode="&#xcc;" horiz-adv-x="434" 
d="M51 1433h322q11 -2 11 -11v-1411q0 -11 -11 -11h-322q-11 0 -11 11v1411q2 11 11 11z" />
    <glyph glyph-name="Iacute" unicode="&#xcd;" horiz-adv-x="434" 
d="M51 1433h322q11 -2 11 -11v-1411q0 -11 -11 -11h-322q-11 0 -11 11v1411q2 11 11 11z" />
    <glyph glyph-name="Icircumflex" unicode="&#xce;" horiz-adv-x="434" 
d="M51 1433h322q11 -2 11 -11v-1411q0 -11 -11 -11h-322q-11 0 -11 11v1411q2 11 11 11z" />
    <glyph glyph-name="Idieresis" unicode="&#xcf;" horiz-adv-x="434" 
d="M51 1433h322q11 -2 11 -11v-1411q0 -11 -11 -11h-322q-11 0 -11 11v1411q2 11 11 11z" />
    <glyph glyph-name="Eth" unicode="&#xd0;" horiz-adv-x="1518" 
 />
    <glyph glyph-name="Ntilde" unicode="&#xd1;" horiz-adv-x="1008" 
d="M51 1433h328l231 -175h5v164q2 11 12 11h321q12 -2 12 -11v-1411q0 -11 -12 -11h-321q-12 0 -12 11v903q-3 9 -231 164h-5v-1067q0 -11 -12 -11h-316q-11 0 -11 11v1411q2 11 11 11zM794 1690v-225h-571v225h571z" />
    <glyph glyph-name="Ograve" unicode="&#xd2;" horiz-adv-x="936" 
d="M465 1431q403 -272 424 -299v-833q-42 -43 -424 -299h-11q-2 7 -409 288l-5 11v833q42 43 425 299zM355 1022v-613q24 -32 110 -94q97 74 110 94v613q-13 20 -110 94q-83 -59 -110 -94z" />
    <glyph glyph-name="Oacute" unicode="&#xd3;" horiz-adv-x="936" 
d="M465 1431q403 -272 424 -299v-833q-42 -43 -424 -299h-11q-2 7 -409 288l-5 11v833q42 43 425 299zM355 1022v-613q24 -32 110 -94q97 74 110 94v613q-13 20 -110 94q-83 -59 -110 -94z" />
    <glyph glyph-name="Ocircumflex" unicode="&#xd4;" horiz-adv-x="936" 
d="M465 1431q403 -272 424 -299v-833q-42 -43 -424 -299h-11q-2 7 -409 288l-5 11v833q42 43 425 299zM355 1022v-613q24 -32 110 -94q97 74 110 94v613q-13 20 -110 94q-83 -59 -110 -94z" />
    <glyph glyph-name="Otilde" unicode="&#xd5;" horiz-adv-x="936" 
d="M465 1431q403 -272 424 -299v-833q-42 -43 -424 -299h-11q-2 7 -409 288l-5 11v833q42 43 425 299zM355 1022v-613q24 -32 110 -94q97 74 110 94v613q-13 20 -110 94q-83 -59 -110 -94z" />
    <glyph glyph-name="Odieresis" unicode="&#xd6;" horiz-adv-x="936" 
d="M465 1431q403 -272 424 -299v-833q-42 -43 -424 -299h-11q-2 7 -409 288l-5 11v833q42 43 425 299zM355 1022v-613q24 -32 110 -94q97 74 110 94v613q-13 20 -110 94q-83 -59 -110 -94z" />
    <glyph glyph-name="multiply" unicode="&#xd7;" 
 />
    <glyph glyph-name="Oslash" unicode="&#xd8;" horiz-adv-x="1614" 
 />
    <glyph glyph-name="Ugrave" unicode="&#xd9;" horiz-adv-x="1006" 
d="M57 1431h316q11 -2 11 -11v-1037q107 -90 135 -90h102v1127q1 11 11 11h315q12 -2 12 -11v-1409q0 -11 -12 -11h-529q-336 228 -372 265v1155q2 11 11 11z" />
    <glyph glyph-name="Uacute" unicode="&#xda;" horiz-adv-x="1006" 
d="M57 1431h316q11 -2 11 -11v-1037q107 -90 135 -90h102v1127q1 11 11 11h315q12 -2 12 -11v-1409q0 -11 -12 -11h-529q-336 228 -372 265v1155q2 11 11 11z" />
    <glyph glyph-name="Ucircumflex" unicode="&#xdb;" horiz-adv-x="1006" 
d="M57 1431h316q11 -2 11 -11v-1037q107 -90 135 -90h102v1127q1 11 11 11h315q12 -2 12 -11v-1409q0 -11 -12 -11h-529q-336 228 -372 265v1155q2 11 11 11z" />
    <glyph glyph-name="Udieresis" unicode="&#xdc;" horiz-adv-x="1006" 
d="M57 1431h316q11 -2 11 -11v-1037q107 -90 135 -90h102v1127q1 11 11 11h315q12 -2 12 -11v-1409q0 -11 -12 -11h-529q-336 228 -372 265v1155q2 11 11 11z" />
    <glyph glyph-name="Yacute" unicode="&#xdd;" horiz-adv-x="1008" 
d="M61 1436h323q11 -2 11 -11v-571q10 0 113 -85q10 0 119 90v566q1 11 11 11h322q12 -2 12 -11v-679q-18 -22 -289 -209v-526q0 -11 -11 -11h-322q-12 0 -12 11v526q-288 202 -288 209v679q2 11 11 11z" />
    <glyph glyph-name="Thorn" unicode="&#xde;" horiz-adv-x="1120" 
 />
    <glyph glyph-name="germandbls" unicode="&#xdf;" horiz-adv-x="1251" 
 />
    <glyph glyph-name="agrave" unicode="&#xe0;" horiz-adv-x="968" 
d="M481 1431h5q395 -270 441 -310v-1110q0 -11 -11 -11h-310q-11 0 -11 11v239h-223v-239q0 -11 -11 -11h-310q-11 0 -11 11v1110q33 28 441 310zM372 1007v-479h223v484q-1 4 -109 93q-85 -62 -114 -98z" />
    <glyph glyph-name="aacute" unicode="&#xe1;" horiz-adv-x="968" 
d="M481 1431h5q395 -270 441 -310v-1110q0 -11 -11 -11h-310q-11 0 -11 11v239h-223v-239q0 -11 -11 -11h-310q-11 0 -11 11v1110q33 28 441 310zM372 1007v-479h223v484q-1 4 -109 93q-85 -62 -114 -98z" />
    <glyph glyph-name="acircumflex" unicode="&#xe2;" horiz-adv-x="968" 
d="M481 1431h5q395 -270 441 -310v-1110q0 -11 -11 -11h-310q-11 0 -11 11v239h-223v-239q0 -11 -11 -11h-310q-11 0 -11 11v1110q33 28 441 310zM372 1007v-479h223v484q-1 4 -109 93q-85 -62 -114 -98z" />
    <glyph glyph-name="atilde" unicode="&#xe3;" horiz-adv-x="968" 
d="M481 1431h5q395 -270 441 -310v-1110q0 -11 -11 -11h-310q-11 0 -11 11v239h-223v-239q0 -11 -11 -11h-310q-11 0 -11 11v1110q33 28 441 310zM372 1007v-479h223v484q-1 4 -109 93q-85 -62 -114 -98z" />
    <glyph glyph-name="adieresis" unicode="&#xe4;" horiz-adv-x="968" 
d="M481 1431h5q395 -270 441 -310v-1110q0 -11 -11 -11h-310q-11 0 -11 11v239h-223v-239q0 -11 -11 -11h-310q-11 0 -11 11v1110q33 28 441 310zM372 1007v-479h223v484q-1 4 -109 93q-85 -62 -114 -98z" />
    <glyph glyph-name="aring" unicode="&#xe5;" horiz-adv-x="968" 
d="M481 1431h5q395 -270 441 -310v-1110q0 -11 -11 -11h-310q-11 0 -11 11v239h-223v-239q0 -11 -11 -11h-310q-11 0 -11 11v1110q33 28 441 310zM372 1007v-479h223v484q-1 4 -109 93q-85 -62 -114 -98z" />
    <glyph glyph-name="ae" unicode="&#xe6;" horiz-adv-x="1454" 
 />
    <glyph glyph-name="ccedilla" unicode="&#xe7;" horiz-adv-x="880" 
d="M167 219q-117 83 -127 93v1116q2 11 11 11h38q17 0 17 5l27 -5h454q12 0 22 5q9 -5 22 -5h147q11 -2 11 -11v-236q0 -11 -11 -11h-246q-43 0 -115 -5q-5 5 -43 5v-760q102 -93 120 -93q78 76 109 88q205 -134 241 -170v-5l-355 -241h-11q-45 32 -86 60l-138 -182
l-220 167z" />
    <glyph glyph-name="egrave" unicode="&#xe8;" horiz-adv-x="869" 
d="M363 1441q10 -5 22 -5h93q12 0 21 5q10 -5 22 -5h71q17 0 17 5l27 -5h131q11 -2 11 -11v-235q0 -11 -11 -11h-404v-262h218q11 -2 11 -11v-229q0 -11 -11 -11h-218v-246q1 -4 109 -92h6q103 87 114 87q204 -133 240 -169v-6l-354 -240h-11q-417 292 -437 311v633
q0 30 5 77q-5 1 -5 54q0 49 5 66q-5 47 -5 82v202q2 11 11 11h300q12 0 22 5z" />
    <glyph glyph-name="eacute" unicode="&#xe9;" horiz-adv-x="869" 
d="M363 1441q10 -5 22 -5h93q12 0 21 5q10 -5 22 -5h71q17 0 17 5l27 -5h131q11 -2 11 -11v-235q0 -11 -11 -11h-404v-262h218q11 -2 11 -11v-229q0 -11 -11 -11h-218v-246q1 -4 109 -92h6q103 87 114 87q204 -133 240 -169v-6l-354 -240h-11q-417 292 -437 311v633
q0 30 5 77q-5 1 -5 54q0 49 5 66q-5 47 -5 82v202q2 11 11 11h300q12 0 22 5z" />
    <glyph glyph-name="ecircumflex" unicode="&#xea;" horiz-adv-x="869" 
d="M363 1441q10 -5 22 -5h93q12 0 21 5q10 -5 22 -5h71q17 0 17 5l27 -5h131q11 -2 11 -11v-235q0 -11 -11 -11h-404v-262h218q11 -2 11 -11v-229q0 -11 -11 -11h-218v-246q1 -4 109 -92h6q103 87 114 87q204 -133 240 -169v-6l-354 -240h-11q-417 292 -437 311v633
q0 30 5 77q-5 1 -5 54q0 49 5 66q-5 47 -5 82v202q2 11 11 11h300q12 0 22 5z" />
    <glyph glyph-name="edieresis" unicode="&#xeb;" horiz-adv-x="869" 
d="M363 1441q10 -5 22 -5h93q12 0 21 5q10 -5 22 -5h71q17 0 17 5l27 -5h131q11 -2 11 -11v-235q0 -11 -11 -11h-404v-262h218q11 -2 11 -11v-229q0 -11 -11 -11h-218v-246q1 -4 109 -92h6q103 87 114 87q204 -133 240 -169v-6l-354 -240h-11q-417 292 -437 311v633
q0 30 5 77q-5 1 -5 54q0 49 5 66q-5 47 -5 82v202q2 11 11 11h300q12 0 22 5z" />
    <glyph glyph-name="igrave" unicode="&#xec;" horiz-adv-x="434" 
d="M51 1433h322q11 -2 11 -11v-1411q0 -11 -11 -11h-322q-11 0 -11 11v1411q2 11 11 11z" />
    <glyph glyph-name="iacute" unicode="&#xed;" horiz-adv-x="434" 
d="M51 1433h322q11 -2 11 -11v-1411q0 -11 -11 -11h-322q-11 0 -11 11v1411q2 11 11 11z" />
    <glyph glyph-name="icircumflex" unicode="&#xee;" horiz-adv-x="434" 
d="M51 1433h322q11 -2 11 -11v-1411q0 -11 -11 -11h-322q-11 0 -11 11v1411q2 11 11 11z" />
    <glyph glyph-name="idieresis" unicode="&#xef;" horiz-adv-x="434" 
d="M51 1433h322q11 -2 11 -11v-1411q0 -11 -11 -11h-322q-11 0 -11 11v1411q2 11 11 11z" />
    <glyph glyph-name="eth" unicode="&#xf0;" horiz-adv-x="1139" 
 />
    <glyph glyph-name="ntilde" unicode="&#xf1;" horiz-adv-x="1008" 
d="M51 1433h328l231 -175h5v164q2 11 12 11h321q12 -2 12 -11v-1411q0 -11 -12 -11h-321q-12 0 -12 11v903q-3 9 -231 164h-5v-1067q0 -11 -12 -11h-316q-11 0 -11 11v1411q2 11 11 11zM794 1690v-225h-571v225h571z" />
    <glyph glyph-name="ograve" unicode="&#xf2;" horiz-adv-x="936" 
d="M465 1431q403 -272 424 -299v-833q-42 -43 -424 -299h-11q-2 7 -409 288l-5 11v833q42 43 425 299zM355 1022v-613q24 -32 110 -94q97 74 110 94v613q-13 20 -110 94q-83 -59 -110 -94z" />
    <glyph glyph-name="oacute" unicode="&#xf3;" horiz-adv-x="936" 
d="M465 1431q403 -272 424 -299v-833q-42 -43 -424 -299h-11q-2 7 -409 288l-5 11v833q42 43 425 299zM355 1022v-613q24 -32 110 -94q97 74 110 94v613q-13 20 -110 94q-83 -59 -110 -94z" />
    <glyph glyph-name="ocircumflex" unicode="&#xf4;" horiz-adv-x="936" 
d="M465 1431q403 -272 424 -299v-833q-42 -43 -424 -299h-11q-2 7 -409 288l-5 11v833q42 43 425 299zM355 1022v-613q24 -32 110 -94q97 74 110 94v613q-13 20 -110 94q-83 -59 -110 -94z" />
    <glyph glyph-name="otilde" unicode="&#xf5;" horiz-adv-x="936" 
d="M465 1431q403 -272 424 -299v-833q-42 -43 -424 -299h-11q-2 7 -409 288l-5 11v833q42 43 425 299zM355 1022v-613q24 -32 110 -94q97 74 110 94v613q-13 20 -110 94q-83 -59 -110 -94z" />
    <glyph glyph-name="odieresis" unicode="&#xf6;" horiz-adv-x="936" 
d="M465 1431q403 -272 424 -299v-833q-42 -43 -424 -299h-11q-2 7 -409 288l-5 11v833q42 43 425 299zM355 1022v-613q24 -32 110 -94q97 74 110 94v613q-13 20 -110 94q-83 -59 -110 -94z" />
    <glyph glyph-name="divide" unicode="&#xf7;" 
 />
    <glyph glyph-name="oslash" unicode="&#xf8;" horiz-adv-x="1010" 
 />
    <glyph glyph-name="ugrave" unicode="&#xf9;" horiz-adv-x="1006" 
d="M57 1431h316q11 -2 11 -11v-1037q107 -90 135 -90h102v1127q1 11 11 11h315q12 -2 12 -11v-1409q0 -11 -12 -11h-529q-336 228 -372 265v1155q2 11 11 11z" />
    <glyph glyph-name="uacute" unicode="&#xfa;" horiz-adv-x="1006" 
d="M57 1431h316q11 -2 11 -11v-1037q107 -90 135 -90h102v1127q1 11 11 11h315q12 -2 12 -11v-1409q0 -11 -12 -11h-529q-336 228 -372 265v1155q2 11 11 11z" />
    <glyph glyph-name="ucircumflex" unicode="&#xfb;" horiz-adv-x="1006" 
d="M57 1431h316q11 -2 11 -11v-1037q107 -90 135 -90h102v1127q1 11 11 11h315q12 -2 12 -11v-1409q0 -11 -12 -11h-529q-336 228 -372 265v1155q2 11 11 11z" />
    <glyph glyph-name="udieresis" unicode="&#xfc;" horiz-adv-x="1006" 
d="M57 1431h316q11 -2 11 -11v-1037q107 -90 135 -90h102v1127q1 11 11 11h315q12 -2 12 -11v-1409q0 -11 -12 -11h-529q-336 228 -372 265v1155q2 11 11 11z" />
    <glyph glyph-name="yacute" unicode="&#xfd;" horiz-adv-x="1008" 
d="M61 1436h323q11 -2 11 -11v-571q10 0 113 -85q10 0 119 90v566q1 11 11 11h322q12 -2 12 -11v-679q-18 -22 -289 -209v-526q0 -11 -11 -11h-322q-12 0 -12 11v526q-288 202 -288 209v679q2 11 11 11z" />
    <glyph glyph-name="thorn" unicode="&#xfe;" horiz-adv-x="1010" 
 />
    <glyph glyph-name="ydieresis" unicode="&#xff;" horiz-adv-x="1008" 
d="M61 1436h323q11 -2 11 -11v-571q10 0 113 -85q10 0 119 90v566q1 11 11 11h322q12 -2 12 -11v-679q-18 -22 -289 -209v-526q0 -11 -11 -11h-322q-12 0 -12 11v526q-288 202 -288 209v679q2 11 11 11z" />
    <glyph glyph-name="dotlessi" unicode="&#x131;" horiz-adv-x="514" 
 />
    <glyph glyph-name="circumflex" unicode="&#x2c6;" horiz-adv-x="1024" 
 />
    <glyph glyph-name="caron" unicode="&#x2c7;" horiz-adv-x="1024" 
 />
    <glyph glyph-name="uni02C9" unicode="&#x2c9;" horiz-adv-x="1024" 
 />
    <glyph glyph-name="breve" unicode="&#x2d8;" horiz-adv-x="1024" 
 />
    <glyph glyph-name="dotaccent" unicode="&#x2d9;" horiz-adv-x="1024" 
 />
    <glyph glyph-name="ring" unicode="&#x2da;" horiz-adv-x="1024" 
 />
    <glyph glyph-name="ogonek" unicode="&#x2db;" horiz-adv-x="1024" 
 />
    <glyph glyph-name="tilde" unicode="&#x2dc;" horiz-adv-x="1024" 
 />
    <glyph glyph-name="hungarumlaut" unicode="&#x2dd;" horiz-adv-x="1024" 
 />
    <glyph glyph-name="endash" unicode="&#x2013;" horiz-adv-x="1108" 
 />
    <glyph glyph-name="emdash" unicode="&#x2014;" horiz-adv-x="2048" 
 />
    <glyph glyph-name="quoteleft" unicode="&#x2018;" horiz-adv-x="557" 
 />
    <glyph glyph-name="quoteright" unicode="&#x2019;" horiz-adv-x="557" 
 />
    <glyph glyph-name="quotesinglbase" unicode="&#x201a;" horiz-adv-x="557" 
 />
    <glyph glyph-name="quotedblleft" unicode="&#x201c;" horiz-adv-x="910" 
 />
    <glyph glyph-name="quotedblright" unicode="&#x201d;" horiz-adv-x="910" 
 />
    <glyph glyph-name="quotedblbase" unicode="&#x201e;" horiz-adv-x="910" 
 />
    <glyph glyph-name="dagger" unicode="&#x2020;" 
 />
    <glyph glyph-name="daggerdbl" unicode="&#x2021;" 
 />
    <glyph glyph-name="bullet" unicode="&#x2022;" horiz-adv-x="1024" 
 />
    <glyph glyph-name="ellipsis" unicode="&#x2026;" horiz-adv-x="2048" 
 />
    <glyph glyph-name="guilsinglleft" unicode="&#x2039;" horiz-adv-x="631" 
 />
    <glyph glyph-name="guilsinglright" unicode="&#x203a;" horiz-adv-x="631" 
 />
    <glyph glyph-name="fraction" unicode="&#x2044;" horiz-adv-x="342" 
 />
    <glyph glyph-name="fraction" unicode="&#x2215;" horiz-adv-x="342" 
 />
    <glyph glyph-name="franc" unicode="&#x20a3;" 
 />
    <glyph glyph-name="lira" unicode="&#x20a4;" 
 />
    <glyph glyph-name="peseta" unicode="&#x20a7;" horiz-adv-x="2028" 
 />
    <glyph glyph-name="Euro" unicode="&#x20ac;" horiz-adv-x="1751" 
d="M50 1428h20q11 -2 11 -10v-117q1 -10 10 -10h5q10 0 10 10v117q1 10 10 10h25q10 -2 10 -10v-117q2 -10 11 -10h5q10 0 10 10v117q1 10 10 10h25q10 -2 10 -10v-127q-10 -17 -55 -45h-5l-31 20h-5l-30 -20h-5q-51 34 -51 40v132q2 10 10 10zM475 1428h46q27 0 61 -41
v-106q-1 -8 -46 -35h-61q-10 0 -10 10v162q2 10 10 10zM602 1428h76q10 -2 10 -10v-15q0 -10 -10 -10h-46v-87l11 -15l25 5q8 0 20 -20q-3 -12 -40 -30q-32 15 -56 40v132q2 10 10 10zM713 1428h26q10 -2 10 -10v-112l-5 -10q19 -15 30 -15v137q2 10 10 10h26q10 -2 10 -10
v-162q0 -10 -10 -10h-61q-45 27 -46 35v137q2 10 10 10zM835 1428h96q10 -2 10 -10v-15q0 -10 -10 -10h-25v-137q0 -10 -10 -10h-26q-10 0 -10 10v137h-25q-10 0 -10 10v15q1 10 10 10zM962 1428h96q10 -2 10 -10v-15q0 -10 -10 -10h-25v-137q0 -10 -11 -10h-25
q-10 0 -10 10v126l-36 21v15q2 10 11 10zM1083 1428h76q10 -2 10 -10v-15q0 -10 -10 -10h-40v-31q25 0 25 -10v-15q0 -10 -25 -10v-26q1 -10 10 -10l25 5l20 -20q-22 -19 -45 -30q-56 33 -56 40v132q2 10 10 10zM1195 1428h96q10 -2 10 -10v-71q-22 -30 -41 -30
q41 -36 41 -41v-25q0 -10 -10 -10q-1 5 -56 40h-5v-25q0 -10 -10 -10h-25q-11 0 -11 10v162q2 10 11 10zM1412 1428h76q10 -2 10 -10v-15q0 -10 -10 -10h-45v-31q30 0 30 -10v-15q0 -10 -30 -10v-31q5 0 15 -5q10 5 15 5q23 -9 25 -20q-3 -12 -40 -30q-32 15 -56 40v132
q2 10 10 10zM278 1423h10q46 -28 51 -41v-96q-24 -25 -56 -40q-32 15 -56 40v96q5 13 51 41zM394 1423q31 0 61 -41v-96q-38 -38 -61 -40q-45 34 -45 40v101q0 7 45 36zM1559 1423q25 0 46 -25v-11q-8 0 -21 -10l-25 5l-10 -15q66 -34 71 -50v-31q-5 -13 -56 -40
q-55 33 -55 40v20q5 16 30 16q12 -10 20 -10v-11l-5 -10q5 0 15 -5l15 20q-14 0 -75 51v25q0 8 50 41zM1230 1393v-56q25 13 25 20v36h-25zM511 1387v-106h5q20 8 20 15v76q0 8 -15 15h-10zM268 1372l5 -10v-66q2 -10 10 -10q10 0 10 10v76q0 10 -10 10zM394 1382l-5 -10
v-71q0 -7 16 -15l10 15v76zM1341 1281h21q10 -1 10 -10v-15q0 -10 -10 -10h-21q-10 0 -10 10v15q2 10 10 10zM1346 1180h259q10 -2 10 -10v-66q0 -10 -10 -10h-152v-253q0 -10 35 -31q36 24 36 31q-36 17 -36 25q69 56 81 56q31 -16 71 -51v-61q-63 -59 -152 -111
q-105 63 -152 111v360q2 10 10 10zM55 1175h96q11 -2 11 -10v-324q20 -31 40 -31l30 31v324q2 10 11 10h91q10 -2 10 -10v-360q-13 -20 -147 -106q-75 43 -152 106v360q2 10 10 10zM379 1175h102q10 -2 10 -10v-456q0 -10 -10 -10h-102q-10 0 -10 10v456q2 10 10 10z
M526 1175h101q11 -2 11 -10v-223h5q65 39 65 45v178q2 10 11 10h101q10 -2 10 -10v-208q-24 -30 -122 -86v-5q89 -43 122 -76v-86q0 -10 -10 -10h-5q-18 0 -177 106v-91q0 -10 -11 -10h-101q-10 0 -10 10v456q2 10 10 10zM865 1175h102q10 -2 10 -10v-456q0 -10 -10 -10
h-102q-10 0 -10 10v456q2 10 10 10zM1012 1175h96q20 0 81 -51h6v41q1 10 10 10h101q10 -2 10 -10v-456q0 -10 -10 -10h-101q-10 0 -10 10v294q-18 20 -76 55v-349q0 -10 -11 -10h-96q-10 0 -10 10v456q2 10 10 10zM75 643h137q10 -1 10 -10v-385h102v380q0 7 15 15h126
q8 0 16 -15v-618q0 -10 -11 -10h-136q-10 0 -10 10v106h-102v-106q0 -10 -10 -10h-137q-10 0 -10 10v299q0 5 5 5l-5 10v309q2 10 10 10zM521 643h314q10 -1 10 -10v-96q0 -10 -10 -10h-172v-117h86q7 0 15 -15v-86q0 -10 -10 -10h-91v-107q2 -9 45 -40h5q24 21 46 35h5
q70 -43 101 -76q-107 -86 -162 -111l-192 142v491q2 10 10 10zM911 643h137q10 -1 10 -10v-496h35q17 0 81 45q87 -49 112 -81q-131 -101 -157 -101h-218q-10 0 -10 10v623q1 10 10 10zM1331 643h132q10 -1 10 -10v-486q2 -10 10 -10h41l66 45h5q106 -69 111 -81l-147 -101
h-228q-10 0 -10 10v623q2 10 10 10z" />
    <glyph glyph-name="afii61352" unicode="&#x2116;" horiz-adv-x="2271" 
 />
    <glyph glyph-name="trademark" unicode="&#x2122;" horiz-adv-x="1751" 
d="M50 1428h20q11 -2 11 -10v-117q1 -10 10 -10h5q10 0 10 10v117q1 10 10 10h25q10 -2 10 -10v-117q2 -10 11 -10h5q10 0 10 10v117q1 10 10 10h25q10 -2 10 -10v-127q-10 -17 -55 -45h-5l-31 20h-5l-30 -20h-5q-51 34 -51 40v132q2 10 10 10zM475 1428h46q27 0 61 -41
v-106q-1 -8 -46 -35h-61q-10 0 -10 10v162q2 10 10 10zM602 1428h76q10 -2 10 -10v-15q0 -10 -10 -10h-46v-87l11 -15l25 5q8 0 20 -20q-3 -12 -40 -30q-32 15 -56 40v132q2 10 10 10zM713 1428h26q10 -2 10 -10v-112l-5 -10q19 -15 30 -15v137q2 10 10 10h26q10 -2 10 -10
v-162q0 -10 -10 -10h-61q-45 27 -46 35v137q2 10 10 10zM835 1428h96q10 -2 10 -10v-15q0 -10 -10 -10h-25v-137q0 -10 -10 -10h-26q-10 0 -10 10v137h-25q-10 0 -10 10v15q1 10 10 10zM962 1428h96q10 -2 10 -10v-15q0 -10 -10 -10h-25v-137q0 -10 -11 -10h-25
q-10 0 -10 10v126l-36 21v15q2 10 11 10zM1083 1428h76q10 -2 10 -10v-15q0 -10 -10 -10h-40v-31q25 0 25 -10v-15q0 -10 -25 -10v-26q1 -10 10 -10l25 5l20 -20q-22 -19 -45 -30q-56 33 -56 40v132q2 10 10 10zM1195 1428h96q10 -2 10 -10v-71q-22 -30 -41 -30
q41 -36 41 -41v-25q0 -10 -10 -10q-1 5 -56 40h-5v-25q0 -10 -10 -10h-25q-11 0 -11 10v162q2 10 11 10zM1412 1428h76q10 -2 10 -10v-15q0 -10 -10 -10h-45v-31q30 0 30 -10v-15q0 -10 -30 -10v-31q5 0 15 -5q10 5 15 5q23 -9 25 -20q-3 -12 -40 -30q-32 15 -56 40v132
q2 10 10 10zM278 1423h10q46 -28 51 -41v-96q-24 -25 -56 -40q-32 15 -56 40v96q5 13 51 41zM394 1423q31 0 61 -41v-96q-38 -38 -61 -40q-45 34 -45 40v101q0 7 45 36zM1559 1423q25 0 46 -25v-11q-8 0 -21 -10l-25 5l-10 -15q66 -34 71 -50v-31q-5 -13 -56 -40
q-55 33 -55 40v20q5 16 30 16q12 -10 20 -10v-11l-5 -10q5 0 15 -5l15 20q-14 0 -75 51v25q0 8 50 41zM1230 1393v-56q25 13 25 20v36h-25zM511 1387v-106h5q20 8 20 15v76q0 8 -15 15h-10zM268 1372l5 -10v-66q2 -10 10 -10q10 0 10 10v76q0 10 -10 10zM394 1382l-5 -10
v-71q0 -7 16 -15l10 15v76zM1341 1281h21q10 -1 10 -10v-15q0 -10 -10 -10h-21q-10 0 -10 10v15q2 10 10 10zM1346 1180h259q10 -2 10 -10v-66q0 -10 -10 -10h-152v-253q0 -10 35 -31q36 24 36 31q-36 17 -36 25q69 56 81 56q31 -16 71 -51v-61q-63 -59 -152 -111
q-105 63 -152 111v360q2 10 10 10zM55 1175h96q11 -2 11 -10v-324q20 -31 40 -31l30 31v324q2 10 11 10h91q10 -2 10 -10v-360q-13 -20 -147 -106q-75 43 -152 106v360q2 10 10 10zM379 1175h102q10 -2 10 -10v-456q0 -10 -10 -10h-102q-10 0 -10 10v456q2 10 10 10z
M526 1175h101q11 -2 11 -10v-223h5q65 39 65 45v178q2 10 11 10h101q10 -2 10 -10v-208q-24 -30 -122 -86v-5q89 -43 122 -76v-86q0 -10 -10 -10h-5q-18 0 -177 106v-91q0 -10 -11 -10h-101q-10 0 -10 10v456q2 10 10 10zM865 1175h102q10 -2 10 -10v-456q0 -10 -10 -10
h-102q-10 0 -10 10v456q2 10 10 10zM1012 1175h96q20 0 81 -51h6v41q1 10 10 10h101q10 -2 10 -10v-456q0 -10 -10 -10h-101q-10 0 -10 10v294q-18 20 -76 55v-349q0 -10 -11 -10h-96q-10 0 -10 10v456q2 10 10 10zM75 643h137q10 -1 10 -10v-385h102v380q0 7 15 15h126
q8 0 16 -15v-618q0 -10 -11 -10h-136q-10 0 -10 10v106h-102v-106q0 -10 -10 -10h-137q-10 0 -10 10v299q0 5 5 5l-5 10v309q2 10 10 10zM521 643h314q10 -1 10 -10v-96q0 -10 -10 -10h-172v-117h86q7 0 15 -15v-86q0 -10 -10 -10h-91v-107q2 -9 45 -40h5q24 21 46 35h5
q70 -43 101 -76q-107 -86 -162 -111l-192 142v491q2 10 10 10zM911 643h137q10 -1 10 -10v-496h35q17 0 81 45q87 -49 112 -81q-131 -101 -157 -101h-218q-10 0 -10 10v623q1 10 10 10zM1331 643h132q10 -1 10 -10v-486q2 -10 10 -10h41l66 45h5q106 -69 111 -81l-147 -101
h-228q-10 0 -10 10v623q2 10 10 10z" />
    <glyph glyph-name="partialdiff" unicode="&#x2202;" 
 />
    <glyph glyph-name="Delta" unicode="&#x2206;" horiz-adv-x="1081" 
 />
    <glyph glyph-name="product" unicode="&#x220f;" horiz-adv-x="1515" 
 />
    <glyph glyph-name="summation" unicode="&#x2211;" horiz-adv-x="1206" 
 />
    <glyph glyph-name="minus" unicode="&#x2212;" 
 />
    <glyph glyph-name="radical" unicode="&#x221a;" 
 />
    <glyph glyph-name="infinity" unicode="&#x221e;" 
 />
    <glyph glyph-name="integral" unicode="&#x222b;" horiz-adv-x="665" 
 />
    <glyph glyph-name="approxequal" unicode="&#x2248;" 
 />
    <glyph glyph-name="lessequal" unicode="&#x2264;" 
 />
    <glyph glyph-name="greaterequal" unicode="&#x2265;" 
 />
    <glyph glyph-name="uniF001" unicode="&#xf001;" horiz-adv-x="1073" 
 />
    <glyph glyph-name="uniF001" unicode="&#xfb01;" horiz-adv-x="1073" 
 />
    <glyph glyph-name="uniF002" unicode="&#xf002;" horiz-adv-x="1081" 
 />
    <glyph glyph-name="uniF002" unicode="&#xfb02;" horiz-adv-x="1081" 
 />
  </font>
</defs>
</svg>
