<?xml version="1.0" standalone="no"?>
<!DOCTYPE svg PUBLIC "-//W3C//DTD SVG 20010904//EN"
 "http://www.w3.org/TR/2001/REC-SVG-20010904/DTD/svg10.dtd">
<svg version="1.0" xmlns="http://www.w3.org/2000/svg"
 width="1006.000000pt" height="1006.000000pt" viewBox="0 0 1006.000000 1006.000000"
 preserveAspectRatio="xMidYMid meet">
<metadata>
Created by potrace 1.11, written by Peter Selinger 2001-2013
</metadata>
<g transform="translate(0.000000,1006.000000) scale(0.100000,-0.100000)"
fill="#000000" stroke="none">
<path d="M6260 10039 c-428 -27 -829 -81 -1295 -175 -687 -139 -1223 -295
-1684 -489 -337 -142 -504 -245 -672 -414 -212 -214 -382 -460 -543 -785 -238
-481 -350 -832 -487 -1525 -37 -187 -45 -201 -113 -201 -25 0 -48 -4 -51 -10
-3 -5 -32 -171 -63 -369 -32 -198 -64 -366 -70 -374 -7 -8 -34 -18 -60 -22
-136 -20 -179 -70 -208 -240 -30 -179 -10 -233 108 -288 l70 -32 -6 -65 c-4
-44 -2 -73 7 -90 18 -36 74 -70 116 -71 53 -1 65 -8 113 -74 93 -125 192 -194
339 -235 40 -11 74 -18 76 -17 1 2 55 336 118 743 63 406 117 749 120 762 5
21 3 22 -65 22 -94 0 -183 -24 -288 -76 -47 -24 -87 -42 -89 -41 -1 2 11 88
27 192 29 188 30 190 62 218 79 67 74 55 113 277 68 387 208 875 340 1190 110
261 290 583 436 780 80 106 214 242 300 303 152 107 474 252 819 367 664 222
1689 416 2427 461 245 15 662 7 753 -15 206 -48 296 -105 428 -270 117 -146
206 -284 282 -435 263 -526 453 -1140 600 -1941 23 -124 49 -240 57 -258 9
-18 28 -39 44 -48 16 -8 34 -24 41 -37 14 -25 77 -510 67 -515 -4 -2 -34 14
-67 36 -88 57 -159 77 -272 77 l-95 0 -3 -30 c-3 -31 235 -1935 243 -1943 2
-2 35 5 72 17 138 41 266 154 339 297 21 41 43 78 48 83 6 5 33 12 60 16 101
14 144 94 129 240 l-9 84 42 16 c60 23 119 91 139 159 14 49 15 71 5 169 -27
253 -51 335 -110 379 -14 10 -50 22 -80 28 -66 12 -96 41 -104 102 -3 24 -29
232 -56 463 -28 231 -53 432 -56 447 -5 26 -8 27 -56 25 -75 -3 -79 7 -128
278 -137 764 -342 1447 -580 1943 -218 452 -423 706 -663 822 -181 86 -510
117 -967 89z"/>
<path d="M4911 8745 c-101 -22 -189 -54 -284 -103 -105 -53 -242 -178 -617
-558 -623 -631 -1069 -1212 -1328 -1729 -114 -227 -122 -239 -175 -268 -37
-19 -57 -22 -174 -22 -73 -1 -137 -5 -142 -10 -6 -6 -55 -300 -110 -655 -55
-355 -107 -688 -116 -740 -23 -147 -29 -135 75 -149 55 -8 90 -17 90 -24 -1
-21 -104 -140 -163 -188 -73 -59 -144 -94 -235 -117 l-74 -19 52 -45 c53 -47
160 -104 245 -131 75 -24 219 -47 296 -47 38 0 69 -4 69 -9 0 -15 -64 -89 -99
-116 -39 -28 -138 -68 -486 -195 -265 -96 -302 -113 -391 -175 -84 -60 -137
-121 -130 -149 3 -12 -8 -71 -24 -132 -17 -60 -30 -118 -30 -129 0 -11 -27
-61 -60 -112 -57 -87 -76 -143 -47 -143 22 0 442 210 455 227 16 22 15 61 -3
112 l-14 42 47 21 c26 11 69 21 96 22 44 1 51 -2 82 -38 69 -80 38 -150 -124
-284 -24 -20 -59 -59 -77 -88 -45 -70 -94 -97 -256 -139 -106 -28 -154 -35
-229 -35 l-95 -1 36 -33 c20 -18 62 -44 95 -56 52 -21 76 -24 214 -24 162 0
253 15 379 63 l52 19 17 -26 c11 -17 18 -52 20 -102 8 -169 -87 -327 -308
-511 l-55 -46 40 -13 c22 -7 83 -14 135 -17 107 -6 131 1 328 92 57 26 107 43
112 39 4 -5 20 -47 35 -94 31 -94 91 -221 138 -290 46 -67 154 -176 224 -226
115 -83 321 -161 496 -188 111 -18 297 -31 297 -22 0 4 -35 23 -77 42 -188 86
-321 203 -393 346 -37 74 -41 89 -38 140 7 102 84 167 198 168 66 0 124 -25
236 -101 297 -200 455 -547 349 -765 -36 -75 -97 -125 -234 -193 -65 -33 -122
-65 -125 -70 -10 -16 192 -34 318 -28 208 10 400 73 513 170 78 67 153 157
218 263 32 52 63 93 69 91 11 -4 252 -461 369 -699 86 -174 91 -178 170 -119
120 91 265 134 381 113 105 -20 165 -50 304 -156 170 -129 172 -130 176 -125
5 5 173 327 306 587 57 111 107 202 110 202 3 0 20 -47 39 -105 111 -354 367
-642 731 -825 112 -56 230 -97 303 -105 l52 -6 -30 26 c-277 249 -337 327
-399 525 -52 162 -45 299 19 428 65 128 185 233 331 288 153 58 311 -1 380
-142 24 -48 26 -63 22 -128 -6 -96 -42 -172 -117 -247 -71 -71 -144 -106 -314
-154 l-136 -37 29 -24 c88 -74 273 -120 445 -111 203 11 325 65 462 202 81 82
97 104 147 206 55 113 89 222 122 392 9 48 19 87 23 86 3 0 51 -55 106 -121
157 -190 283 -287 420 -323 98 -25 101 -23 62 38 -337 521 -346 536 -367 685
-12 83 -6 252 9 252 4 0 46 -23 92 -51 46 -27 165 -91 264 -141 164 -82 187
-91 250 -95 79 -6 139 6 143 28 3 19 -100 97 -318 241 -206 136 -289 215 -344
330 -60 125 -85 321 -51 388 23 44 56 48 121 15 48 -24 63 -27 119 -23 l64 6
-46 -59 c-25 -33 -43 -62 -40 -65 13 -13 94 8 145 36 30 18 71 54 98 88 82
103 102 163 68 210 -25 37 -258 213 -459 347 -376 252 -643 436 -663 458 -20
22 -92 136 -92 146 0 3 78 6 173 7 151 1 184 4 268 26 126 34 256 88 237 99
-8 4 -69 23 -135 42 -67 19 -142 46 -166 61 -63 36 -131 107 -161 167 -34 69
-63 199 -46 209 6 4 59 13 116 20 57 7 104 17 104 21 0 5 -43 347 -95 761 -52
414 -107 843 -121 953 -34 269 -27 249 -72 241 -73 -13 -268 -35 -313 -36 -64
0 -84 24 -138 162 -59 151 -198 423 -298 583 -90 144 -247 360 -368 505 -173
207 -526 547 -800 770 -190 155 -465 354 -540 390 -137 67 -312 87 -464 55z
m-353 -663 c-13 -16 -71 -85 -129 -155 -126 -150 -242 -318 -334 -482 -78
-140 -187 -366 -180 -373 3 -3 94 11 203 31 572 106 953 144 1342 134 245 -7
429 -25 615 -62 123 -24 278 -74 311 -101 17 -14 15 -15 -31 -10 -27 3 -99 14
-160 25 -261 47 -384 56 -755 56 -376 0 -481 -7 -745 -51 -270 -45 -754 -158
-816 -190 -16 -8 -36 -25 -44 -38 -17 -26 -33 -126 -20 -126 4 0 112 20 238
45 518 102 873 140 1307 139 328 0 490 -12 745 -55 200 -33 425 -117 425 -159
0 -4 -44 6 -97 22 -116 35 -297 71 -443 90 -158 20 -665 17 -860 -5 -679 -76
-1268 -219 -1845 -447 -97 -39 -180 -70 -186 -70 -19 0 -6 28 93 194 361 607
770 1100 1244 1500 75 64 139 116 141 116 3 0 -6 -13 -19 -28z m752 -2105 c0
-200 -3 -466 -7 -591 l-6 -227 -96 3 -96 3 -3 588 -2 587 105 0 105 0 0 -363z
m333 357 l37 -7 0 -604 0 -605 -67 6 c-38 4 -85 9 -105 12 l-38 6 0 583 c0
321 3 590 6 599 5 12 21 16 68 16 33 0 78 -3 99 -6z m-713 -583 l0 -578 -37
-7 c-21 -3 -66 -6 -100 -6 l-63 0 0 579 0 580 28 4 c15 2 60 5 100 6 l72 1 0
-579z m1064 554 l58 -7 -7 -611 c-4 -337 -8 -613 -10 -615 -2 -2 -45 3 -96 10
l-94 13 -3 614 -2 613 47 -6 c27 -3 74 -8 107 -11z m-1424 -574 c0 -543 -1
-580 -17 -585 -10 -2 -57 -8 -105 -12 l-88 -6 0 575 0 576 33 6 c63 11 142 23
160 24 16 1 17 -33 17 -578z m1785 520 l40 -7 3 -609 c1 -336 0 -615 -2 -621
-4 -11 -53 -5 -163 21 l-23 5 0 616 0 615 53 -7 c28 -4 70 -9 92 -13z m-2167
-573 l-3 -573 -45 -6 c-25 -4 -71 -10 -102 -13 l-58 -7 0 561 c0 518 1 561 17
567 14 6 161 39 186 42 4 1 6 -257 5 -571z m2507 514 l70 -17 3 -633 c1 -347
0 -632 -3 -632 -3 0 -48 12 -100 26 l-95 27 0 623 0 624 28 -1 c15 0 59 -8 97
-17z m-3073 -814 c2 -196 0 -354 -4 -351 -5 2 -7 250 -6 551 2 301 4 459 5
352 2 -107 4 -355 5 -552z m3387 675 c28 -32 63 -80 76 -107 l25 -50 0 -419 0
-419 -32 -45 c-29 -39 -114 -113 -132 -113 -3 0 -6 272 -6 605 0 362 4 605 9
605 5 0 32 -26 60 -57z m-3762 -840 c-1 -147 -2 -29 -2 262 0 292 1 412 2 268
2 -144 2 -382 0 -530z m550 -159 c-3 -3 -12 -4 -19 -1 -8 3 -5 6 6 6 11 1 17
-2 13 -5z m-64 -11 c-7 -2 -19 -2 -25 0 -7 3 -2 5 12 5 14 0 19 -2 13 -5z
m-60 -10 c-7 -2 -19 -2 -25 0 -7 3 -2 5 12 5 14 0 19 -2 13 -5z m-667 -90 c43
-44 46 -56 7 -25 -28 21 -73 82 -72 96 0 6 6 2 12 -9 7 -11 31 -39 53 -62z
m2290 12 c9 -9 35 -128 69 -322 30 -169 60 -333 66 -363 l11 -55 88 93 c82 87
90 92 128 92 37 0 409 -96 872 -225 92 -25 175 -43 188 -40 24 6 45 43 62 112
19 76 61 110 158 127 58 10 83 -39 119 -229 21 -110 13 -295 -17 -385 -56
-167 -159 -308 -288 -394 -74 -49 -159 -86 -198 -86 -42 0 -82 22 -325 177
-517 329 -735 461 -791 478 -48 14 -102 16 -355 13 l-298 -3 -395 -197 c-669
-332 -754 -371 -832 -376 -56 -3 -75 0 -121 21 -243 111 -396 338 -397 587 0
136 50 368 87 406 13 12 29 15 69 12 88 -7 119 -37 209 -198 42 -77 83 -144
91 -151 15 -13 162 38 743 258 151 56 282 103 292 103 9 0 62 -48 117 -107 56
-59 104 -105 108 -101 3 4 21 165 38 358 27 288 35 354 49 368 14 13 51 19
190 28 242 16 247 16 263 -1z m249 -1651 c222 -83 379 -147 392 -160 13 -13
23 -39 26 -65 3 -24 19 -147 36 -274 33 -251 58 -565 48 -606 -8 -30 -42 -50
-524 -298 -194 -100 -365 -184 -381 -187 -16 -3 -40 0 -53 6 -13 7 -132 93
-264 190 -132 97 -327 239 -433 315 -106 76 -202 149 -212 162 -23 29 -23 32
-50 381 -23 308 -23 310 47 349 21 12 108 51 193 86 85 36 256 110 380 165
124 55 241 104 260 109 43 12 40 13 535 -173z"/>
</g>
</svg>
